Arimo-BoldItalic.ufo
<glyph name="exclam" format="2">
  <advance width="682"/>
  <unicode hex="0021"/>
  <note>
exclam
</note>
  <outline>
    <contour>
      <point x="423" y="426" type="line"/>
      <point x="647" y="1409" type="line"/>
      <point x="353" y="1409" type="line"/>
      <point x="193" y="426" type="line"/>
    </contour>
    <contour>
      <point x="79" y="0" type="line"/>
      <point x="367" y="0" type="line"/>
      <point x="419" y="270" type="line"/>
      <point x="131" y="270" type="line"/>
    </contour>
  </outline>
</glyph>
<glyph name="dollar" format="2">
  <advance width="1139"/>
  <unicode hex="0024"/>
  <note>
dollar
</note>
  <outline>
    <contour>
      <point x="1080" y="474" type="qcurve" smooth="yes"/>
      <point x="1080" y="610"/>
      <point x="883" y="787"/>
      <point x="674" y="837" type="qcurve"/>
      <point x="741" y="1190" type="line"/>
      <point x="801" y="1190"/>
      <point x="882" y="1109"/>
      <point x="896" y="1032" type="qcurve"/>
      <point x="1157" y="1089" type="line"/>
      <point x="1144" y="1228"/>
      <point x="941" y="1386"/>
      <point x="779" y="1386" type="qcurve"/>
      <point x="806" y="1516" type="line"/>
      <point x="696" y="1520" type="line"/>
      <point x="672" y="1394" type="line"/>
      <point x="517" y="1394"/>
      <point x="269" y="1292"/>
      <point x="144" y="1111"/>
      <point x="144" y="988" type="qcurve" smooth="yes"/>
      <point x="144" y="854"/>
      <point x="338" y="664"/>
      <point x="518" y="619" type="qcurve"/>
      <point x="445" y="231" type="line"/>
      <point x="265" y="231"/>
      <point x="251" y="408" type="qcurve"/>
      <point x="-11" y="366" type="line"/>
      <point x="1" y="210"/>
      <point x="227" y="23"/>
      <point x="403" y="23" type="qcurve"/>
      <point x="371" y="-152" type="line"/>
      <point x="483" y="-152" type="line"/>
      <point x="516" y="21" type="line"/>
      <point x="798" y="32"/>
      <point x="1080" y="261"/>
    </contour>
    <contour>
      <point x="810" y="413" type="qcurve" smooth="yes"/>
      <point x="810" y="329"/>
      <point x="669" y="231"/>
      <point x="554" y="231" type="qcurve"/>
      <point x="627" y="593" type="line"/>
      <point x="722" y="571"/>
      <point x="810" y="490"/>
    </contour>
    <contour>
      <point x="412" y="1006" type="qcurve" smooth="yes"/>
      <point x="412" y="1088"/>
      <point x="534" y="1194"/>
      <point x="633" y="1194" type="qcurve"/>
      <point x="566" y="863" type="line"/>
      <point x="477" y="892"/>
      <point x="412" y="957"/>
    </contour>
  </outline>
</glyph>
<glyph name="percent" format="2">
  <advance width="1821"/>
  <unicode hex="0025"/>
  <note>
percent
</note>
  <outline>
    <contour>
      <point x="546" y="1421" type="qcurve" smooth="yes"/>
      <point x="220" y="1421"/>
      <point x="136" y="1015" type="qcurve"/>
      <point x="112" y="930"/>
      <point x="112" y="841" type="qcurve" smooth="yes"/>
      <point x="112" y="692"/>
      <point x="265" y="524"/>
      <point x="407" y="524" type="qcurve" smooth="yes"/>
      <point x="511" y="524"/>
      <point x="678" y="618"/>
      <point x="800" y="798"/>
      <point x="829" y="935" type="qcurve"/>
      <point x="855" y="1031"/>
      <point x="855" y="1113" type="qcurve" smooth="yes"/>
      <point x="855" y="1262"/>
      <point x="696" y="1421"/>
    </contour>
    <contour>
      <point x="545" y="1270" type="qcurve" smooth="yes"/>
      <point x="641" y="1270"/>
      <point x="641" y="1131" type="qcurve" smooth="yes"/>
      <point x="641" y="1054"/>
      <point x="613" y="945" type="qcurve"/>
      <point x="587" y="814"/>
      <point x="490" y="685"/>
      <point x="411" y="685" type="qcurve" smooth="yes"/>
      <point x="325" y="685"/>
      <point x="325" y="827" type="qcurve" smooth="yes"/>
      <point x="325" y="901"/>
      <point x="377" y="1150"/>
      <point x="467" y="1270"/>
    </contour>
    <contour>
      <point x="1455" y="882" type="qcurve" smooth="yes"/>
      <point x="1129" y="882"/>
      <point x="1045" y="476" type="qcurve"/>
      <point x="1021" y="391"/>
      <point x="1021" y="302" type="qcurve" smooth="yes"/>
      <point x="1021" y="153"/>
      <point x="1174" y="-15"/>
      <point x="1316" y="-15" type="qcurve" smooth="yes"/>
      <point x="1420" y="-15"/>
      <point x="1587" y="79"/>
      <point x="1709" y="259"/>
      <point x="1738" y="396" type="qcurve"/>
      <point x="1764" y="492"/>
      <point x="1764" y="574" type="qcurve" smooth="yes"/>
      <point x="1764" y="723"/>
      <point x="1605" y="882"/>
    </contour>
    <contour>
      <point x="1454" y="731" type="qcurve" smooth="yes"/>
      <point x="1550" y="731"/>
      <point x="1550" y="592" type="qcurve" smooth="yes"/>
      <point x="1550" y="515"/>
      <point x="1522" y="406" type="qcurve"/>
      <point x="1496" y="275"/>
      <point x="1399" y="146"/>
      <point x="1320" y="146" type="qcurve" smooth="yes"/>
      <point x="1234" y="146"/>
      <point x="1234" y="288" type="qcurve" smooth="yes"/>
      <point x="1234" y="362"/>
      <point x="1286" y="611"/>
      <point x="1376" y="731"/>
    </contour>
    <contour>
      <point x="486" y="0" type="line"/>
      <point x="1574" y="1409" type="line"/>
      <point x="1375" y="1409" type="line"/>
      <point x="289" y="0" type="line"/>
    </contour>
  </outline>
</glyph>
<glyph name="ampersand" format="2">
  <advance width="1479"/>
  <unicode hex="0026"/>
  <note>
ampersand
</note>
  <outline>
    <contour>
      <point x="49" y="354" type="qcurve" smooth="yes"/>
      <point x="49" y="173"/>
      <point x="263" y="-20"/>
      <point x="464" y="-20" type="qcurve" smooth="yes"/>
      <point x="550" y="-20"/>
      <point x="688" y="5"/>
      <point x="792" y="50"/>
      <point x="863" y="105" type="qcurve"/>
      <point x="994" y="-12"/>
      <point x="1168" y="-12" type="qcurve" smooth="yes"/>
      <point x="1241" y="-12"/>
      <point x="1307" y="10" type="qcurve"/>
      <point x="1346" y="213" type="line"/>
      <point x="1298" y="197"/>
      <point x="1235" y="197" type="qcurve" smooth="yes"/>
      <point x="1126" y="197"/>
      <point x="1051" y="261" type="qcurve"/>
      <point x="1134" y="346"/>
      <point x="1284" y="573"/>
      <point x="1329" y="677" type="qcurve"/>
      <point x="1142" y="760" type="line"/>
      <point x="1041" y="537"/>
      <point x="908" y="395" type="qcurve"/>
      <point x="855" y="466"/>
      <point x="779" y="608"/>
      <point x="736" y="727" type="qcurve"/>
      <point x="942" y="811"/>
      <point x="1113" y="928"/>
      <point x="1204" y="1069"/>
      <point x="1204" y="1160" type="qcurve" smooth="yes"/>
      <point x="1204" y="1282"/>
      <point x="1027" y="1417"/>
      <point x="868" y="1417" type="qcurve" smooth="yes"/>
      <point x="669" y="1417"/>
      <point x="440" y="1209"/>
      <point x="440" y="1037" type="qcurve" smooth="yes"/>
      <point x="440" y="985"/>
      <point x="460" y="859"/>
      <point x="475" y="811" type="qcurve"/>
      <point x="49" y="663"/>
    </contour>
    <contour>
      <point x="493" y="170" type="qcurve" smooth="yes"/>
      <point x="408" y="170"/>
      <point x="304" y="275"/>
      <point x="304" y="360" type="qcurve" smooth="yes"/>
      <point x="304" y="443"/>
      <point x="401" y="575"/>
      <point x="525" y="631" type="qcurve"/>
      <point x="601" y="413"/>
      <point x="725" y="249" type="qcurve"/>
      <point x="680" y="215"/>
      <point x="556" y="170"/>
    </contour>
    <contour>
      <point x="667" y="1041" type="qcurve" smooth="yes"/>
      <point x="667" y="1137"/>
      <point x="770" y="1247"/>
      <point x="855" y="1247" type="qcurve" smooth="yes"/>
      <point x="913" y="1247"/>
      <point x="980" y="1193"/>
      <point x="980" y="1142" type="qcurve" smooth="yes"/>
      <point x="980" y="1091"/>
      <point x="929" y="1013"/>
      <point x="829" y="950"/>
      <point x="687" y="896" type="qcurve"/>
      <point x="667" y="960"/>
    </contour>
  </outline>
</glyph>
<glyph name="parenleft" format="2">
  <advance width="682"/>
  <unicode hex="0028"/>
  <note>
parenleft
</note>
  <outline>
    <contour>
      <point x="874" y="1484" type="qcurve"/>
      <point x="593" y="1484" type="line"/>
      <point x="338" y="1265"/>
      <point x="74" y="659"/>
      <point x="74" y="296" type="qcurve" smooth="yes"/>
      <point x="74" y="-109"/>
      <point x="222" y="-425" type="qcurve"/>
      <point x="497" y="-425" type="line"/>
      <point x="350" y="-119"/>
      <point x="350" y="280" type="qcurve" smooth="yes"/>
      <point x="350" y="984"/>
    </contour>
  </outline>
</glyph>
<glyph name="parenright" format="2">
  <advance width="682"/>
  <unicode hex="0029"/>
  <note>
parenright
</note>
  <outline>
    <contour>
      <point x="-180" y="-425" type="qcurve"/>
      <point x="101" y="-425" type="line"/>
      <point x="354" y="-204"/>
      <point x="622" y="418"/>
      <point x="622" y="793" type="qcurve" smooth="yes"/>
      <point x="622" y="1164"/>
      <point x="461" y="1484" type="qcurve"/>
      <point x="196" y="1484" type="line"/>
      <point x="265" y="1341"/>
      <point x="345" y="979"/>
      <point x="345" y="809" type="qcurve" smooth="yes"/>
      <point x="345" y="88"/>
    </contour>
  </outline>
</glyph>
<glyph name="comma" format="2">
  <advance width="569"/>
  <unicode hex="002C"/>
  <note>
comma
</note>
  <outline>
    <contour>
      <point x="165" y="-317" type="line"/>
      <point x="238" y="-237"/>
      <point x="324" y="-54"/>
      <point x="347" y="66" type="qcurve" smooth="yes"/>
      <point x="394" y="305" type="line"/>
      <point x="105" y="305" type="line"/>
      <point x="46" y="0" type="line"/>
      <point x="175" y="0" type="line"/>
      <point x="161" y="-73"/>
      <point x="58" y="-239"/>
      <point x="-20" y="-317" type="qcurve"/>
    </contour>
  </outline>
</glyph>
<glyph name="hyphen" format="2">
  <advance width="682"/>
  <unicode hex="002D"/>
  <unicode hex="00AD"/>
  <note>
hyphen
</note>
  <outline>
    <contour>
      <point x="56" y="409" type="line"/>
      <point x="576" y="409" type="line"/>
      <point x="623" y="653" type="line"/>
      <point x="103" y="653" type="line"/>
    </contour>
  </outline>
</glyph>
<glyph name="zero" format="2">
  <advance width="1139"/>
  <unicode hex="0030"/>
  <note>
zero
</note>
  <outline>
    <contour>
      <point x="724" y="1430" type="qcurve" smooth="yes"/>
      <point x="564" y="1430"/>
      <point x="332" y="1285"/>
      <point x="174" y="1003"/>
      <point x="85" y="593"/>
      <point x="85" y="454" type="qcurve" smooth="yes"/>
      <point x="85" y="215"/>
      <point x="278" y="-20"/>
      <point x="478" y="-20" type="qcurve" smooth="yes"/>
      <point x="937" y="-20"/>
      <point x="1081" y="665" type="qcurve" smooth="yes"/>
      <point x="1119" y="849"/>
      <point x="1119" y="964" type="qcurve" smooth="yes"/>
      <point x="1119" y="1430"/>
    </contour>
    <contour>
      <point x="497" y="201" type="qcurve" smooth="yes"/>
      <point x="358" y="201"/>
      <point x="358" y="415" type="qcurve" smooth="yes"/>
      <point x="358" y="498"/>
      <point x="426" y="907"/>
      <point x="501" y="1116"/>
      <point x="608" y="1210"/>
      <point x="694" y="1210" type="qcurve" smooth="yes"/>
      <point x="846" y="1210"/>
      <point x="846" y="977" type="qcurve" smooth="yes"/>
      <point x="846" y="894"/>
      <point x="755" y="416"/>
      <point x="614" y="201"/>
    </contour>
  </outline>
</glyph>
<glyph name="two" format="2">
  <advance width="1139"/>
  <unicode hex="0032"/>
  <note>
two
</note>
  <outline>
    <contour>
      <point x="-32" y="0" type="line"/>
      <point x="953" y="0" type="line"/>
      <point x="997" y="231" type="line"/>
      <point x="343" y="231" type="line"/>
      <point x="387" y="297"/>
      <point x="544" y="433"/>
      <point x="676" y="523" type="qcurve" smooth="yes"/>
      <point x="865" y="650"/>
      <point x="1034" y="813"/>
      <point x="1118" y="987"/>
      <point x="1118" y="1083" type="qcurve" smooth="yes"/>
      <point x="1118" y="1255"/>
      <point x="897" y="1430"/>
      <point x="687" y="1430" type="qcurve" smooth="yes"/>
      <point x="487" y="1430"/>
      <point x="231" y="1260"/>
      <point x="178" y="1081" type="qcurve"/>
      <point x="444" y="1022" type="line"/>
      <point x="471" y="1118"/>
      <point x="579" y="1206"/>
      <point x="667" y="1206" type="qcurve" smooth="yes"/>
      <point x="829" y="1206"/>
      <point x="829" y="1063" type="qcurve" smooth="yes"/>
      <point x="829" y="1001"/>
      <point x="770" y="889"/>
      <point x="662" y="781"/>
      <point x="514" y="677" type="qcurve" smooth="yes"/>
      <point x="333" y="551"/>
      <point x="182" y="422"/>
      <point x="54" y="280"/>
      <point x="5" y="195" type="qcurve"/>
    </contour>
  </outline>
</glyph>
<glyph name="three" format="2">
  <advance width="1139"/>
  <unicode hex="0033"/>
  <note>
three
</note>
  <outline>
    <contour>
      <point x="535" y="829" type="qcurve" smooth="yes"/>
      <point x="462" y="829" type="line"/>
      <point x="418" y="602" type="line"/>
      <point x="525" y="602" type="line" smooth="yes"/>
      <point x="745" y="602"/>
      <point x="745" y="416" type="qcurve" smooth="yes"/>
      <point x="745" y="318"/>
      <point x="628" y="206"/>
      <point x="524" y="206" type="qcurve" smooth="yes"/>
      <point x="413" y="206"/>
      <point x="309" y="291"/>
      <point x="298" y="381" type="qcurve"/>
      <point x="16" y="343" type="line"/>
      <point x="32" y="166"/>
      <point x="285" y="-20"/>
      <point x="511" y="-20" type="qcurve" smooth="yes"/>
      <point x="664" y="-20"/>
      <point x="900" y="91"/>
      <point x="1030" y="294"/>
      <point x="1030" y="418" type="qcurve" smooth="yes"/>
      <point x="1030" y="543"/>
      <point x="889" y="700"/>
      <point x="754" y="721" type="qcurve"/>
      <point x="755" y="725" type="line"/>
      <point x="922" y="740"/>
      <point x="1116" y="930"/>
      <point x="1116" y="1086" type="qcurve" smooth="yes"/>
      <point x="1116" y="1248"/>
      <point x="888" y="1430"/>
      <point x="685" y="1430" type="qcurve" smooth="yes"/>
      <point x="272" y="1430"/>
      <point x="170" y="1074" type="qcurve"/>
      <point x="437" y="1022" type="line"/>
      <point x="488" y="1206"/>
      <point x="674" y="1206" type="qcurve" smooth="yes"/>
      <point x="754" y="1206"/>
      <point x="831" y="1123"/>
      <point x="831" y="1051" type="qcurve" smooth="yes"/>
      <point x="831" y="945"/>
      <point x="684" y="829"/>
    </contour>
  </outline>
</glyph>
<glyph name="four" format="2">
  <advance width="1139"/>
  <unicode hex="0034"/>
  <note>
four
</note>
  <outline>
    <contour>
      <point x="874" y="286" type="line"/>
      <point x="1062" y="286" type="line"/>
      <point x="1104" y="496" type="line"/>
      <point x="916" y="496" type="line"/>
      <point x="1094" y="1409" type="line"/>
      <point x="724" y="1409" type="line"/>
      <point x="7" y="493" type="line"/>
      <point x="-34" y="286" type="line"/>
      <point x="606" y="286" type="line"/>
      <point x="552" y="0" type="line"/>
      <point x="820" y="0" type="line"/>
    </contour>
    <contour>
      <point x="800" y="1206" type="qcurve"/>
      <point x="768" y="1110"/>
      <point x="750" y="1020" type="qcurve" smooth="yes"/>
      <point x="648" y="496" type="line"/>
      <point x="259" y="496" type="line"/>
      <point x="683" y="1036" type="line" smooth="yes"/>
      <point x="754" y="1128"/>
    </contour>
  </outline>
</glyph>
<glyph name="five" format="2">
  <advance width="1139"/>
  <unicode hex="0035"/>
  <note>
five
</note>
  <outline>
    <contour>
      <point x="316" y="1409" type="line"/>
      <point x="113" y="616" type="line"/>
      <point x="387" y="616" type="line"/>
      <point x="466" y="707"/>
      <point x="589" y="707" type="qcurve" smooth="yes"/>
      <point x="679" y="707"/>
      <point x="778" y="591"/>
      <point x="778" y="486" type="qcurve" smooth="yes"/>
      <point x="778" y="359"/>
      <point x="635" y="206"/>
      <point x="510" y="206" type="qcurve" smooth="yes"/>
      <point x="416" y="206"/>
      <point x="321" y="281"/>
      <point x="303" y="374" type="qcurve"/>
      <point x="20" y="329" type="line"/>
      <point x="48" y="157"/>
      <point x="287" y="-20"/>
      <point x="486" y="-20" type="qcurve" smooth="yes"/>
      <point x="659" y="-20"/>
      <point x="923" y="112"/>
      <point x="1064" y="357"/>
      <point x="1064" y="518" type="qcurve" smooth="yes"/>
      <point x="1064" y="708"/>
      <point x="861" y="934"/>
      <point x="694" y="934" type="qcurve" smooth="yes"/>
      <point x="646" y="934"/>
      <point x="568" y="918"/>
      <point x="506" y="892"/>
      <point x="457" y="860"/>
      <point x="439" y="844" type="qcurve"/>
      <point x="526" y="1178" type="line"/>
      <point x="1120" y="1178" type="line"/>
      <point x="1163" y="1409" type="line"/>
    </contour>
  </outline>
</glyph>
<glyph name="six" format="2">
  <advance width="1139"/>
  <unicode hex="0036"/>
  <note>
six
</note>
  <outline>
    <contour>
      <point x="533" y="-20" type="qcurve" smooth="yes"/>
      <point x="689" y="-20"/>
      <point x="938" y="126"/>
      <point x="1078" y="382"/>
      <point x="1078" y="533" type="qcurve" smooth="yes"/>
      <point x="1078" y="707"/>
      <point x="889" y="907"/>
      <point x="725" y="907" type="qcurve" smooth="yes"/>
      <point x="622" y="907"/>
      <point x="459" y="818"/>
      <point x="406" y="746" type="qcurve"/>
      <point x="445" y="978"/>
      <point x="615" y="1208"/>
      <point x="730" y="1208" type="qcurve" smooth="yes"/>
      <point x="796" y="1208"/>
      <point x="870" y="1138"/>
      <point x="884" y="1065" type="qcurve"/>
      <point x="1150" y="1106" type="line"/>
      <point x="1132" y="1263"/>
      <point x="925" y="1430"/>
      <point x="745" y="1430" type="qcurve" smooth="yes"/>
      <point x="561" y="1430"/>
      <point x="262" y="1191"/>
      <point x="95" y="756"/>
      <point x="95" y="487" type="qcurve" smooth="yes"/>
      <point x="95" y="246"/>
      <point x="323" y="-20"/>
    </contour>
    <contour>
      <point x="369" y="429" type="qcurve" smooth="yes"/>
      <point x="369" y="508"/>
      <point x="433" y="632"/>
      <point x="547" y="700"/>
      <point x="614" y="700" type="qcurve" smooth="yes"/>
      <point x="697" y="700"/>
      <point x="792" y="596"/>
      <point x="792" y="499" type="qcurve" smooth="yes"/>
      <point x="792" y="363"/>
      <point x="665" y="200"/>
      <point x="558" y="200" type="qcurve" smooth="yes"/>
      <point x="467" y="200"/>
      <point x="369" y="324"/>
    </contour>
  </outline>
</glyph>
<glyph name="seven" format="2">
  <advance width="1139"/>
  <unicode hex="0037"/>
  <note>
seven
</note>
  <outline>
    <contour>
      <point x="188" y="1409" type="line"/>
      <point x="143" y="1178" type="line"/>
      <point x="893" y="1178" type="line"/>
      <point x="764" y="1036"/>
      <point x="533" y="769"/>
      <point x="346" y="489"/>
      <point x="209" y="182"/>
      <point x="174" y="0" type="qcurve"/>
      <point x="472" y="0" type="line"/>
      <point x="524" y="252"/>
      <point x="754" y="686"/>
      <point x="1013" y="992" type="qcurve" smooth="yes"/>
      <point x="1175" y="1186" type="line"/>
      <point x="1219" y="1409" type="line"/>
    </contour>
  </outline>
</glyph>
<glyph name="eight" format="2">
  <advance width="1139"/>
  <unicode hex="0038"/>
  <note>
eight
</note>
  <outline>
    <contour>
      <point x="707" y="1429" type="qcurve" smooth="yes"/>
      <point x="473" y="1429"/>
      <point x="199" y="1229"/>
      <point x="199" y="1052" type="qcurve" smooth="yes"/>
      <point x="199" y="943"/>
      <point x="294" y="782"/>
      <point x="386" y="741" type="qcurve"/>
      <point x="386" y="737" type="line"/>
      <point x="216" y="703"/>
      <point x="27" y="507"/>
      <point x="27" y="360" type="qcurve" smooth="yes"/>
      <point x="27" y="181"/>
      <point x="271" y="-20"/>
      <point x="493" y="-20" type="qcurve" smooth="yes"/>
      <point x="752" y="-20"/>
      <point x="1049" y="224"/>
      <point x="1049" y="432" type="qcurve" smooth="yes"/>
      <point x="1049" y="544"/>
      <point x="930" y="706"/>
      <point x="819" y="739" type="qcurve"/>
      <point x="820" y="743" type="line"/>
      <point x="965" y="763"/>
      <point x="1136" y="951"/>
      <point x="1136" y="1091" type="qcurve" smooth="yes"/>
      <point x="1136" y="1246"/>
      <point x="906" y="1429"/>
    </contour>
    <contour>
      <point x="648" y="840" type="qcurve" smooth="yes"/>
      <point x="566" y="840"/>
      <point x="476" y="933"/>
      <point x="476" y="1020" type="qcurve" smooth="yes"/>
      <point x="476" y="1121"/>
      <point x="584" y="1232"/>
      <point x="679" y="1232" type="qcurve" smooth="yes"/>
      <point x="851" y="1232"/>
      <point x="851" y="1064" type="qcurve" smooth="yes"/>
      <point x="851" y="959"/>
      <point x="742" y="840"/>
    </contour>
    <contour>
      <point x="561" y="640" type="qcurve" smooth="yes"/>
      <point x="654" y="640"/>
      <point x="760" y="539"/>
      <point x="760" y="444" type="qcurve" smooth="yes"/>
      <point x="760" y="322"/>
      <point x="628" y="178"/>
      <point x="520" y="178" type="qcurve" smooth="yes"/>
      <point x="424" y="178"/>
      <point x="317" y="282"/>
      <point x="317" y="377" type="qcurve" smooth="yes"/>
      <point x="317" y="498"/>
      <point x="445" y="640"/>
    </contour>
  </outline>
</glyph>
<glyph name="nine" format="2">
  <advance width="1139"/>
  <unicode hex="0039"/>
  <note>
nine
</note>
  <outline>
    <contour>
      <point x="817" y="653" type="qcurve"/>
      <point x="731" y="202"/>
      <point x="498" y="202" type="qcurve" smooth="yes"/>
      <point x="351" y="202"/>
      <point x="322" y="359" type="qcurve"/>
      <point x="48" y="311" type="line"/>
      <point x="75" y="152"/>
      <point x="297" y="-20"/>
      <point x="479" y="-20" type="qcurve" smooth="yes"/>
      <point x="623" y="-20"/>
      <point x="859" y="121"/>
      <point x="1033" y="400"/>
      <point x="1130" y="785"/>
      <point x="1130" y="957" type="qcurve" smooth="yes"/>
      <point x="1130" y="1173"/>
      <point x="892" y="1430"/>
      <point x="692" y="1430" type="qcurve" smooth="yes"/>
      <point x="540" y="1430"/>
      <point x="289" y="1291"/>
      <point x="147" y="1042"/>
      <point x="147" y="893" type="qcurve" smooth="yes"/>
      <point x="147" y="717"/>
      <point x="339" y="503"/>
      <point x="500" y="503" type="qcurve" smooth="yes"/>
      <point x="604" y="503"/>
      <point x="752" y="576"/>
    </contour>
    <contour>
      <point x="855" y="1009" type="qcurve" smooth="yes"/>
      <point x="855" y="870"/>
      <point x="725" y="710"/>
      <point x="611" y="710" type="qcurve" smooth="yes"/>
      <point x="528" y="710"/>
      <point x="432" y="815"/>
      <point x="432" y="900" type="qcurve" smooth="yes"/>
      <point x="432" y="1042"/>
      <point x="564" y="1210"/>
      <point x="678" y="1210" type="qcurve" smooth="yes"/>
      <point x="755" y="1210"/>
      <point x="855" y="1096"/>
    </contour>
  </outline>
</glyph>
<glyph name="colon" format="2">
  <advance width="682"/>
  <unicode hex="003A"/>
  <note>
colon
</note>
  <outline>
    <contour>
      <point x="235" y="752" type="line"/>
      <point x="523" y="752" type="line"/>
      <point x="578" y="1034" type="line"/>
      <point x="290" y="1034" type="line"/>
    </contour>
    <contour>
      <point x="89" y="0" type="line"/>
      <point x="377" y="0" type="line"/>
      <point x="432" y="281" type="line"/>
      <point x="144" y="281" type="line"/>
    </contour>
  </outline>
</glyph>
<glyph name="semicolon" format="2">
  <advance width="682"/>
  <unicode hex="003B"/>
  <unicode hex="037E"/>
  <note>
semicolon
</note>
  <outline>
    <contour>
      <point x="235" y="752" type="line"/>
      <point x="523" y="752" type="line"/>
      <point x="578" y="1034" type="line"/>
      <point x="290" y="1034" type="line"/>
    </contour>
    <contour>
      <point x="207" y="-317" type="line"/>
      <point x="282" y="-236"/>
      <point x="367" y="-54"/>
      <point x="390" y="66" type="qcurve" smooth="yes"/>
      <point x="432" y="281" type="line"/>
      <point x="144" y="281" type="line"/>
      <point x="89" y="0" type="line"/>
      <point x="218" y="0" type="line"/>
      <point x="204" y="-73"/>
      <point x="101" y="-239"/>
      <point x="23" y="-317" type="qcurve"/>
    </contour>
  </outline>
</glyph>
<glyph name="less" format="2">
  <advance width="1196"/>
  <unicode hex="003C"/>
  <note>
less
</note>
  <outline>
    <contour>
      <point x="124" y="516" type="line"/>
      <point x="1151" y="125" type="line"/>
      <point x="1151" y="352" type="line"/>
      <point x="318" y="676" type="line"/>
      <point x="1151" y="1001" type="line"/>
      <point x="1151" y="1229" type="line"/>
      <point x="124" y="838" type="line"/>
    </contour>
  </outline>
</glyph>
<glyph name="equal" format="2">
  <advance width="1196"/>
  <unicode hex="003D"/>
  <note>
equal
</note>
  <outline>
    <contour>
      <point x="123" y="842" type="line"/>
      <point x="1150" y="842" type="line"/>
      <point x="1150" y="1065" type="line"/>
      <point x="123" y="1065" type="line"/>
    </contour>
    <contour>
      <point x="123" y="291" type="line"/>
      <point x="1150" y="291" type="line"/>
      <point x="1150" y="512" type="line"/>
      <point x="123" y="512" type="line"/>
    </contour>
  </outline>
</glyph>
<glyph name="question" format="2">
  <advance width="1251"/>
  <unicode hex="003F"/>
  <note>
question
</note>
  <outline>
    <contour>
      <point x="745" y="1430" type="qcurve" smooth="yes"/>
      <point x="301" y="1430"/>
      <point x="184" y="1048" type="qcurve"/>
      <point x="450" y="1008" type="line"/>
      <point x="502" y="1201"/>
      <point x="729" y="1201" type="qcurve" smooth="yes"/>
      <point x="830" y="1201"/>
      <point x="926" y="1118"/>
      <point x="926" y="1055" type="qcurve" smooth="yes"/>
      <point x="926" y="1016"/>
      <point x="904" y="954"/>
      <point x="850" y="893"/>
      <point x="759" y="827"/>
      <point x="690" y="784" type="qcurve" smooth="yes"/>
      <point x="572" y="711"/>
      <point x="475" y="618"/>
      <point x="413" y="503"/>
      <point x="399" y="426" type="qcurve"/>
      <point x="666" y="426" type="line"/>
      <point x="672" y="468"/>
      <point x="706" y="530"/>
      <point x="763" y="584"/>
      <point x="841" y="635" type="qcurve"/>
      <point x="998" y="722"/>
      <point x="1134" y="843"/>
      <point x="1209" y="985"/>
      <point x="1209" y="1075" type="qcurve" smooth="yes"/>
      <point x="1209" y="1242"/>
      <point x="959" y="1430"/>
    </contour>
    <contour>
      <point x="309" y="0" type="line"/>
      <point x="598" y="0" type="line"/>
      <point x="650" y="270" type="line"/>
      <point x="361" y="270" type="line"/>
    </contour>
  </outline>
</glyph>
<glyph name="at" format="2">
  <advance width="1997"/>
  <unicode hex="0040"/>
  <note>
at
</note>
  <outline>
    <contour>
      <point x="1911" y="755" type="qcurve" smooth="yes"/>
      <point x="1911" y="973"/>
      <point x="1724" y="1303"/>
      <point x="1368" y="1484"/>
      <point x="1125" y="1484" type="qcurve" smooth="yes"/>
      <point x="849" y="1484"/>
      <point x="403" y="1232"/>
      <point x="150" y="774"/>
      <point x="150" y="491" type="qcurve" smooth="yes"/>
      <point x="150" y="258"/>
      <point x="351" y="-103"/>
      <point x="710" y="-294"/>
      <point x="946" y="-294" type="qcurve" smooth="yes"/>
      <point x="1115" y="-294"/>
      <point x="1436" y="-212"/>
      <point x="1604" y="-117" type="qcurve"/>
      <point x="1542" y="5" type="line"/>
      <point x="1247" y="-150"/>
      <point x="953" y="-150" type="qcurve" smooth="yes"/>
      <point x="759" y="-150"/>
      <point x="471" y="1"/>
      <point x="312" y="296"/>
      <point x="312" y="491" type="qcurve" smooth="yes"/>
      <point x="312" y="737"/>
      <point x="521" y="1133"/>
      <point x="887" y="1343"/>
      <point x="1127" y="1343" type="qcurve" smooth="yes"/>
      <point x="1318" y="1343"/>
      <point x="1606" y="1197"/>
      <point x="1759" y="928"/>
      <point x="1759" y="753" type="qcurve" smooth="yes"/>
      <point x="1759" y="613"/>
      <point x="1674" y="380"/>
      <point x="1528" y="241"/>
      <point x="1448" y="241" type="qcurve" smooth="yes"/>
      <point x="1417" y="241"/>
      <point x="1370" y="283"/>
      <point x="1370" y="333" type="qcurve" smooth="yes"/>
      <point x="1370" y="401"/>
      <point x="1407" y="573" type="qcurve" smooth="yes"/>
      <point x="1524" y="1079" type="line"/>
      <point x="1368" y="1079" type="line"/>
      <point x="1329" y="927" type="line"/>
      <point x="1323" y="927" type="line"/>
      <point x="1254" y="1101"/>
      <point x="1059" y="1101" type="qcurve" smooth="yes"/>
      <point x="917" y="1101"/>
      <point x="688" y="938"/>
      <point x="559" y="652"/>
      <point x="559" y="489" type="qcurve" smooth="yes"/>
      <point x="559" y="307"/>
      <point x="732" y="104"/>
      <point x="889" y="104" type="qcurve" smooth="yes"/>
      <point x="992" y="104"/>
      <point x="1189" y="238"/>
      <point x="1239" y="343" type="qcurve"/>
      <point x="1245" y="343" type="line"/>
      <point x="1239" y="313"/>
      <point x="1239" y="276" type="qcurve" smooth="yes"/>
      <point x="1239" y="195"/>
      <point x="1338" y="104"/>
      <point x="1430" y="104" type="qcurve" smooth="yes"/>
      <point x="1560" y="104"/>
      <point x="1784" y="273"/>
      <point x="1911" y="573"/>
    </contour>
    <contour>
      <point x="1264" y="751" type="qcurve" smooth="yes"/>
      <point x="1264" y="691"/>
      <point x="1211" y="488"/>
      <point x="1113" y="329"/>
      <point x="988" y="245"/>
      <point x="922" y="245" type="qcurve" smooth="yes"/>
      <point x="822" y="245"/>
      <point x="725" y="377"/>
      <point x="725" y="491" type="qcurve" smooth="yes"/>
      <point x="725" y="612"/>
      <point x="808" y="841"/>
      <point x="957" y="966"/>
      <point x="1051" y="966" type="qcurve" smooth="yes"/>
      <point x="1145" y="966"/>
      <point x="1264" y="846"/>
    </contour>
  </outline>
</glyph>
<glyph name="A" format="2">
  <advance width="1479"/>
  <unicode hex="0041"/>
  <note>
A
</note>
  <outline>
    <contour>
      <point x="1039" y="0" type="line"/>
      <point x="1331" y="0" type="line"/>
      <point x="1093" y="1409" type="line"/>
      <point x="745" y="1409" type="line"/>
      <point x="-42" y="0" type="line"/>
      <point x="252" y="0" type="line"/>
      <point x="447" y="360" type="line"/>
      <point x="984" y="360" type="line"/>
    </contour>
    <contour>
      <point x="876" y="1192" type="qcurve"/>
      <point x="876" y="1169"/>
      <point x="894" y="1034" type="qcurve" smooth="yes"/>
      <point x="961" y="582" type="line"/>
      <point x="566" y="582" type="line"/>
      <point x="778" y="980" type="line" smooth="yes"/>
      <point x="855" y="1128"/>
    </contour>
  </outline>
</glyph>
<glyph name="B" format="2">
  <advance width="1479"/>
  <unicode hex="0042"/>
  <note>
B
</note>
  <outline>
    <contour>
      <point x="310" y="1409" type="line"/>
      <point x="36" y="0" type="line"/>
      <point x="741" y="0" type="line" smooth="yes"/>
      <point x="1055" y="0"/>
      <point x="1368" y="220"/>
      <point x="1368" y="431" type="qcurve" smooth="yes"/>
      <point x="1368" y="550"/>
      <point x="1215" y="715"/>
      <point x="1079" y="738" type="qcurve"/>
      <point x="1238" y="771"/>
      <point x="1403" y="946"/>
      <point x="1403" y="1083" type="qcurve" smooth="yes"/>
      <point x="1403" y="1244"/>
      <point x="1145" y="1409"/>
      <point x="894" y="1409" type="qcurve" smooth="yes"/>
    </contour>
    <contour>
      <point x="494" y="841" type="line"/>
      <point x="561" y="1190" type="line"/>
      <point x="862" y="1190" type="line" smooth="yes"/>
      <point x="996" y="1190"/>
      <point x="1110" y="1118"/>
      <point x="1110" y="1038" type="qcurve" smooth="yes"/>
      <point x="1110" y="933"/>
      <point x="963" y="841"/>
      <point x="788" y="841" type="qcurve" smooth="yes"/>
    </contour>
    <contour>
      <point x="373" y="219" type="line"/>
      <point x="452" y="623" type="line"/>
      <point x="782" y="623" type="line" smooth="yes"/>
      <point x="936" y="623"/>
      <point x="1072" y="527"/>
      <point x="1072" y="437" type="qcurve" smooth="yes"/>
      <point x="1072" y="320"/>
      <point x="910" y="219"/>
      <point x="701" y="219" type="qcurve" smooth="yes"/>
    </contour>
  </outline>
</glyph>
<glyph name="D" format="2">
  <advance width="1479"/>
  <unicode hex="0044"/>
  <note>
D
</note>
  <anchor x="850" y="1540" name="gpos_18_mark_to_base__MARKCLASS_0_lookup_18"/>
  <anchor x="1330" y="1540" name="gpos_18_mark_to_base__MARKCLASS_1_lookup_18"/>
  <anchor x="700" y="-130" name="gpos_18_mark_to_base__MARKCLASS_2_lookup_18"/>
  <anchor x="1340" y="1150" name="gpos_20_mark_to_base__MARKCLASS_0_lookup_20"/>
  <anchor x="1100" y="1300" name="gpos_21_mark_to_base__MARKCLASS_0_lookup_21"/>
  <anchor x="1479" y="1540" name="gpos_22_mark_to_base__MARKCLASS_0_lookup_22"/>
  <anchor x="1479" y="-380" name="gpos_22_mark_to_base__MARKCLASS_1_lookup_22"/>
  <anchor x="1479" y="1840" name="gpos_23_mark_to_base__MARKCLASS_0_lookup_23"/>
  <anchor x="0" y="1840" name="gpos_23_mark_to_base__MARKCLASS_1_lookup_23"/>
  <anchor x="670" y="0" name="gpos_24_mark_to_base__MARKCLASS_0_lookup_24"/>
  <outline>
    <contour>
      <point x="734" y="1409" type="curve"/>
      <point x="310" y="1409" type="line"/>
      <point x="36" y="0" type="line"/>
      <point x="614" y="0" type="line" smooth="yes"/>
      <point x="925" y="0"/>
      <point x="1190" y="149"/>
      <point x="1322" y="390" type="curve" smooth="yes"/>
      <point x="1388" y="511"/>
      <point x="1421" y="650"/>
      <point x="1421" y="807" type="curve" smooth="yes"/>
      <point x="1421" y="1196"/>
      <point x="1178" y="1409"/>
    </contour>
    <contour>
      <point x="375" y="228" type="line"/>
      <point x="560" y="1181" type="line"/>
      <point x="736" y="1181" type="line" smooth="yes"/>
      <point x="1000" y="1181"/>
      <point x="1145" y="1046"/>
      <point x="1145" y="794" type="curve" smooth="yes"/>
      <point x="1145" y="566"/>
      <point x="1053" y="388"/>
      <point x="889" y="297" type="curve" smooth="yes"/>
      <point x="806" y="251"/>
      <point x="712" y="228"/>
      <point x="605" y="228" type="curve" smooth="yes"/>
    </contour>
  </outline>
</glyph>
<glyph name="E" format="2">
  <advance width="1366"/>
  <unicode hex="0045"/>
  <note>
E
</note>
  <anchor x="850" y="1540" name="gpos_18_mark_to_base__MARKCLASS_0_lookup_18"/>
  <anchor x="1240" y="1540" name="gpos_18_mark_to_base__MARKCLASS_1_lookup_18"/>
  <anchor x="740" y="-130" name="gpos_18_mark_to_base__MARKCLASS_2_lookup_18"/>
  <anchor x="1300" y="1420" name="gpos_20_mark_to_base__MARKCLASS_0_lookup_20"/>
  <anchor x="1330" y="1340" name="gpos_21_mark_to_base__MARKCLASS_0_lookup_21"/>
  <anchor x="1366" y="1540" name="gpos_22_mark_to_base__MARKCLASS_0_lookup_22"/>
  <anchor x="1366" y="-380" name="gpos_22_mark_to_base__MARKCLASS_1_lookup_22"/>
  <anchor x="1366" y="1840" name="gpos_23_mark_to_base__MARKCLASS_0_lookup_23"/>
  <anchor x="0" y="1840" name="gpos_23_mark_to_base__MARKCLASS_1_lookup_23"/>
  <anchor x="1120" y="0" name="gpos_24_mark_to_base__MARKCLASS_0_lookup_24"/>
  <outline>
    <contour>
      <point x="1229" y="228" type="line"/>
      <point x="375" y="228" type="line"/>
      <point x="447" y="599" type="line"/>
      <point x="1199" y="599" type="line"/>
      <point x="1243" y="827" type="line"/>
      <point x="491" y="827" type="line"/>
      <point x="560" y="1181" type="line"/>
      <point x="1373" y="1181" type="line"/>
      <point x="1417" y="1409" type="line"/>
      <point x="309" y="1409" type="line"/>
      <point x="36" y="0" type="line"/>
      <point x="1184" y="0" type="line"/>
    </contour>
  </outline>
</glyph>
<glyph name="G" format="2">
  <advance width="1593"/>
  <unicode hex="0047"/>
  <note>
G
</note>
  <outline>
    <contour>
      <point x="740" y="-19" type="qcurve" smooth="yes"/>
      <point x="932" y="-19"/>
      <point x="1244" y="68"/>
      <point x="1400" y="175" type="qcurve"/>
      <point x="1505" y="743" type="line"/>
      <point x="891" y="743" type="line"/>
      <point x="852" y="535" type="line"/>
      <point x="1194" y="535" type="line"/>
      <point x="1148" y="307" type="line"/>
      <point x="1076" y="263"/>
      <point x="872" y="211"/>
      <point x="764" y="211" type="qcurve" smooth="yes"/>
      <point x="590" y="211"/>
      <point x="399" y="414"/>
      <point x="399" y="592" type="qcurve" smooth="yes"/>
      <point x="399" y="772"/>
      <point x="527" y="1048"/>
      <point x="767" y="1198"/>
      <point x="926" y="1198" type="qcurve" smooth="yes"/>
      <point x="1053" y="1198"/>
      <point x="1219" y="1074"/>
      <point x="1248" y="961" type="qcurve"/>
      <point x="1530" y="1039" type="line"/>
      <point x="1477" y="1224"/>
      <point x="1170" y="1430"/>
      <point x="942" y="1430" type="qcurve" smooth="yes"/>
      <point x="692" y="1430"/>
      <point x="309" y="1221"/>
      <point x="100" y="833"/>
      <point x="100" y="583" type="qcurve" smooth="yes"/>
      <point x="100" y="298"/>
      <point x="440" y="-19"/>
    </contour>
  </outline>
</glyph>
<glyph name="H" format="2">
  <advance width="1479"/>
  <unicode hex="0048"/>
  <note>
H
</note>
  <outline>
    <contour>
      <point x="956" y="0" type="line"/>
      <point x="1240" y="0" type="line"/>
      <point x="1514" y="1409" type="line"/>
      <point x="1230" y="1409" type="line"/>
      <point x="1121" y="848" type="line"/>
      <point x="495" y="848" type="line"/>
      <point x="604" y="1409" type="line"/>
      <point x="309" y="1409" type="line"/>
      <point x="36" y="0" type="line"/>
      <point x="330" y="0" type="line"/>
      <point x="448" y="604" type="line"/>
      <point x="1074" y="604" type="line"/>
    </contour>
  </outline>
</glyph>
<glyph name="I" format="2">
  <advance width="569"/>
  <unicode hex="0049"/>
  <note>
I
</note>
  <anchor x="440" y="1540" name="top"/>
  <anchor x="440" y="1540" name="caronalt"/>
  <anchor x="280" y="-130" name="bottom"/>
  <anchor x="512" y="1420" name="rhotic"/>
  <anchor x="530" y="1300" name="horn"/>
  <anchor x="569" y="1540" name="topdouble"/>
  <anchor x="569" y="-380" name="bottomdouble"/>
  <anchor x="569" y="1840" name="tophalfright"/>
  <anchor x="0" y="1840" name="tophalfleft"/>
  <anchor x="200" y="0" name="ogonek"/>
  <outline>
    <contour>
      <point x="604" y="1409" type="line"/>
      <point x="309" y="1409" type="line"/>
      <point x="36" y="0" type="line"/>
      <point x="330" y="0" type="line"/>
    </contour>
  </outline>
</glyph>
<glyph name="J" format="2">
  <advance width="1139"/>
  <unicode hex="004A"/>
  <note>
J
</note>
  <anchor x="860" y="1540" name="gpos_18_mark_to_base__MARKCLASS_0_lookup_18"/>
  <anchor x="1000" y="1540" name="gpos_18_mark_to_base__MARKCLASS_1_lookup_18"/>
  <anchor x="540" y="-130" name="gpos_18_mark_to_base__MARKCLASS_2_lookup_18"/>
  <anchor x="1081" y="1420" name="gpos_20_mark_to_base__MARKCLASS_0_lookup_20"/>
  <anchor x="1070" y="1300" name="gpos_21_mark_to_base__MARKCLASS_0_lookup_21"/>
  <anchor x="1139" y="1540" name="gpos_22_mark_to_base__MARKCLASS_0_lookup_22"/>
  <anchor x="1139" y="-380" name="gpos_22_mark_to_base__MARKCLASS_1_lookup_22"/>
  <anchor x="1139" y="1840" name="gpos_23_mark_to_base__MARKCLASS_0_lookup_23"/>
  <anchor x="0" y="1840" name="gpos_23_mark_to_base__MARKCLASS_1_lookup_23"/>
  <anchor x="530" y="0" name="gpos_24_mark_to_base__MARKCLASS_0_lookup_24"/>
  <outline>
    <contour>
      <point x="480" y="-20" type="curve"/>
      <point x="768" y="-20"/>
      <point x="921" y="115"/>
      <point x="981" y="423" type="curve" smooth="yes"/>
      <point x="1174" y="1409" type="line"/>
      <point x="599" y="1409" type="line"/>
      <point x="555" y="1178" type="line"/>
      <point x="836" y="1178" type="line"/>
      <point x="693" y="440" type="line" smooth="yes"/>
      <point x="669" y="316"/>
      <point x="639" y="267"/>
      <point x="590" y="235" type="curve" smooth="yes"/>
      <point x="565" y="219"/>
      <point x="535" y="211"/>
      <point x="499" y="211" type="curve" smooth="yes"/>
      <point x="392" y="211"/>
      <point x="323" y="286"/>
      <point x="292" y="437" type="curve"/>
      <point x="25" y="379" type="line"/>
      <point x="76" y="103"/>
      <point x="227" y="-20"/>
    </contour>
  </outline>
</glyph>
<glyph name="K" format="2">
  <advance width="1479"/>
  <unicode hex="004B"/>
  <note>
K
</note>
  <anchor x="850" y="1540" name="gpos_18_mark_to_base__MARKCLASS_0_lookup_18"/>
  <anchor x="1330" y="1540" name="gpos_18_mark_to_base__MARKCLASS_1_lookup_18"/>
  <anchor x="700" y="-130" name="gpos_18_mark_to_base__MARKCLASS_2_lookup_18"/>
  <anchor x="1354" y="1420" name="gpos_20_mark_to_base__MARKCLASS_0_lookup_20"/>
  <anchor x="1360" y="1340" name="gpos_21_mark_to_base__MARKCLASS_0_lookup_21"/>
  <anchor x="1479" y="1540" name="gpos_22_mark_to_base__MARKCLASS_0_lookup_22"/>
  <anchor x="1479" y="-380" name="gpos_22_mark_to_base__MARKCLASS_1_lookup_22"/>
  <anchor x="1479" y="1840" name="gpos_23_mark_to_base__MARKCLASS_0_lookup_23"/>
  <anchor x="0" y="1840" name="gpos_23_mark_to_base__MARKCLASS_1_lookup_23"/>
  <anchor x="1160" y="0" name="gpos_24_mark_to_base__MARKCLASS_0_lookup_24"/>
  <outline>
    <contour>
      <point x="429" y="517" type="line"/>
      <point x="640" y="640" type="line"/>
      <point x="995" y="0" type="line"/>
      <point x="1321" y="0" type="line"/>
      <point x="856" y="793" type="line"/>
      <point x="1603" y="1409" type="line"/>
      <point x="1234" y="1409" type="line"/>
      <point x="633" y="904" type="line"/>
      <point x="474" y="770" type="line"/>
      <point x="604" y="1409" type="line"/>
      <point x="309" y="1409" type="line"/>
      <point x="36" y="0" type="line"/>
      <point x="328" y="0" type="line"/>
    </contour>
  </outline>
</glyph>
<glyph name="L" format="2">
  <advance width="1251"/>
  <unicode hex="004C"/>
  <note>
L
</note>
  <anchor x="780" y="1540" name="gpos_18_mark_to_base__MARKCLASS_0_lookup_18"/>
  <anchor x="1100" y="1540" name="gpos_18_mark_to_base__MARKCLASS_1_lookup_18"/>
  <anchor x="650" y="-130" name="gpos_18_mark_to_base__MARKCLASS_2_lookup_18"/>
  <anchor x="510" y="1420" name="gpos_20_mark_to_base__MARKCLASS_0_lookup_20"/>
  <anchor x="530" y="1300" name="gpos_21_mark_to_base__MARKCLASS_0_lookup_21"/>
  <anchor x="1251" y="1540" name="gpos_22_mark_to_base__MARKCLASS_0_lookup_22"/>
  <anchor x="1251" y="-380" name="gpos_22_mark_to_base__MARKCLASS_1_lookup_22"/>
  <anchor x="1251" y="1840" name="gpos_23_mark_to_base__MARKCLASS_0_lookup_23"/>
  <anchor x="0" y="1840" name="gpos_23_mark_to_base__MARKCLASS_1_lookup_23"/>
  <anchor x="940" y="0" name="gpos_24_mark_to_base__MARKCLASS_0_lookup_24"/>
  <outline>
    <contour>
      <point x="1131" y="228" type="line"/>
      <point x="375" y="228" type="line"/>
      <point x="604" y="1409" type="line"/>
      <point x="309" y="1409" type="line"/>
      <point x="36" y="0" type="line"/>
      <point x="1086" y="0" type="line"/>
    </contour>
  </outline>
</glyph>
<glyph name="M" format="2">
  <advance width="1706"/>
  <unicode hex="004D"/>
  <note>
M
</note>
  <outline>
    <contour>
      <point x="1206" y="0" type="line"/>
      <point x="1468" y="0" type="line"/>
      <point x="1742" y="1409" type="line"/>
      <point x="1349" y="1409" type="line"/>
      <point x="916" y="555"/>
      <point x="854" y="425"/>
      <point x="818" y="345" type="qcurve"/>
      <point x="793" y="621" type="line"/>
      <point x="705" y="1409" type="line"/>
      <point x="310" y="1409" type="line"/>
      <point x="36" y="0" type="line"/>
      <point x="298" y="0" type="line"/>
      <point x="470" y="887" type="line" smooth="yes"/>
      <point x="485" y="962"/>
      <point x="513" y="1206" type="qcurve"/>
      <point x="522" y="1110"/>
      <point x="553" y="819" type="qcurve" smooth="yes"/>
      <point x="647" y="0" type="line"/>
      <point x="857" y="0" type="line"/>
      <point x="1269" y="816" type="line" smooth="yes"/>
      <point x="1304" y="881"/>
      <point x="1383" y="1055" type="qcurve" smooth="yes"/>
      <point x="1452" y="1206" type="line"/>
      <point x="1404" y="1014"/>
      <point x="1378" y="884" type="qcurve" smooth="yes"/>
    </contour>
  </outline>
</glyph>
<glyph name="N" format="2">
  <advance width="1479"/>
  <unicode hex="004E"/>
  <note>
N
</note>
  <outline>
    <contour>
      <point x="884" y="0" type="line"/>
      <point x="1240" y="0" type="line"/>
      <point x="1514" y="1409" type="line"/>
      <point x="1252" y="1409" type="line"/>
      <point x="1078" y="524" type="line" smooth="yes"/>
      <point x="1060" y="433"/>
      <point x="1049" y="350" type="qcurve" smooth="yes"/>
      <point x="1037" y="268" type="line"/>
      <point x="660" y="1409" type="line"/>
      <point x="310" y="1409" type="line"/>
      <point x="36" y="0" type="line"/>
      <point x="298" y="0" type="line"/>
      <point x="472" y="892" type="line" smooth="yes"/>
      <point x="487" y="969"/>
      <point x="510" y="1131" type="qcurve"/>
    </contour>
  </outline>
</glyph>
<glyph name="O" format="2">
  <advance width="1593"/>
  <unicode hex="004F"/>
  <note>
O
</note>
  <outline>
    <contour>
      <point x="928" y="1430" type="qcurve" smooth="yes"/>
      <point x="685" y="1430"/>
      <point x="311" y="1215"/>
      <point x="100" y="808"/>
      <point x="100" y="573" type="qcurve" smooth="yes"/>
      <point x="100" y="393"/>
      <point x="249" y="124"/>
      <point x="534" y="-20"/>
      <point x="727" y="-20" type="qcurve" smooth="yes"/>
      <point x="970" y="-20"/>
      <point x="1348" y="197"/>
      <point x="1559" y="604"/>
      <point x="1559" y="851" type="qcurve" smooth="yes"/>
      <point x="1559" y="1119"/>
      <point x="1221" y="1430"/>
    </contour>
    <contour>
      <point x="914" y="1197" type="qcurve" smooth="yes"/>
      <point x="1080" y="1197"/>
      <point x="1255" y="1003"/>
      <point x="1255" y="827" type="qcurve" smooth="yes"/>
      <point x="1255" y="658"/>
      <point x="1130" y="362"/>
      <point x="902" y="212"/>
      <point x="741" y="212" type="qcurve" smooth="yes"/>
      <point x="580" y="212"/>
      <point x="400" y="397"/>
      <point x="400" y="581" type="qcurve" smooth="yes"/>
      <point x="400" y="745"/>
      <point x="524" y="1047"/>
      <point x="752" y="1197"/>
    </contour>
  </outline>
</glyph>
<glyph name="P" format="2">
  <advance width="1366"/>
  <unicode hex="0050"/>
  <note>
P
</note>
  <anchor x="800" y="1540" name="gpos_18_mark_to_base__MARKCLASS_0_lookup_18"/>
  <anchor x="1240" y="1540" name="gpos_18_mark_to_base__MARKCLASS_1_lookup_18"/>
  <anchor x="680" y="-130" name="gpos_18_mark_to_base__MARKCLASS_2_lookup_18"/>
  <anchor x="1293" y="1150" name="gpos_20_mark_to_base__MARKCLASS_0_lookup_20"/>
  <anchor x="1130" y="1300" name="gpos_21_mark_to_base__MARKCLASS_0_lookup_21"/>
  <anchor x="1366" y="1540" name="gpos_22_mark_to_base__MARKCLASS_0_lookup_22"/>
  <anchor x="1366" y="-380" name="gpos_22_mark_to_base__MARKCLASS_1_lookup_22"/>
  <anchor x="1366" y="1840" name="gpos_23_mark_to_base__MARKCLASS_0_lookup_23"/>
  <anchor x="0" y="1840" name="gpos_23_mark_to_base__MARKCLASS_1_lookup_23"/>
  <anchor x="180" y="0" name="gpos_24_mark_to_base__MARKCLASS_0_lookup_24"/>
  <outline>
    <contour>
      <point x="850" y="1409" type="curve"/>
      <point x="309" y="1409" type="line"/>
      <point x="36" y="0" type="line"/>
      <point x="330" y="0" type="line"/>
      <point x="428" y="496" type="line"/>
      <point x="805" y="496" type="line" smooth="yes"/>
      <point x="1148" y="496"/>
      <point x="1369" y="687"/>
      <point x="1369" y="987" type="curve" smooth="yes"/>
      <point x="1369" y="1251"/>
      <point x="1178" y="1409"/>
    </contour>
    <contour>
      <point x="471" y="723" type="line"/>
      <point x="560" y="1180" type="line"/>
      <point x="822" y="1180" type="line" smooth="yes"/>
      <point x="982" y="1180"/>
      <point x="1070" y="1107"/>
      <point x="1070" y="971" type="curve" smooth="yes"/>
      <point x="1070" y="795"/>
      <point x="967" y="723"/>
      <point x="760" y="723" type="curve" smooth="yes"/>
    </contour>
  </outline>
</glyph>
<glyph name="Q" format="2">
  <advance width="1593"/>
  <unicode hex="0051"/>
  <note>
Q
</note>
  <outline>
    <contour>
      <point x="928" y="1430" type="qcurve" smooth="yes"/>
      <point x="685" y="1430"/>
      <point x="311" y="1215"/>
      <point x="100" y="808"/>
      <point x="100" y="573" type="qcurve" smooth="yes"/>
      <point x="100" y="458"/>
      <point x="162" y="262"/>
      <point x="285" y="111"/>
      <point x="466" y="10"/>
      <point x="584" y="-9" type="qcurve"/>
      <point x="607" y="-212"/>
      <point x="820" y="-400"/>
      <point x="1017" y="-400" type="qcurve" smooth="yes"/>
      <point x="1114" y="-400"/>
      <point x="1186" y="-375" type="qcurve"/>
      <point x="1231" y="-180" type="line"/>
      <point x="1161" y="-194"/>
      <point x="1081" y="-194" type="qcurve" smooth="yes"/>
      <point x="992" y="-194"/>
      <point x="901" y="-106"/>
      <point x="882" y="-8" type="qcurve"/>
      <point x="1012" y="13"/>
      <point x="1229" y="122"/>
      <point x="1397" y="291"/>
      <point x="1512" y="514"/>
      <point x="1539" y="649" type="qcurve" smooth="yes"/>
      <point x="1559" y="745"/>
      <point x="1559" y="851" type="qcurve" smooth="yes"/>
      <point x="1559" y="1119"/>
      <point x="1221" y="1430"/>
    </contour>
    <contour>
      <point x="914" y="1197" type="qcurve" smooth="yes"/>
      <point x="1080" y="1197"/>
      <point x="1255" y="1003"/>
      <point x="1255" y="827" type="qcurve" smooth="yes"/>
      <point x="1255" y="658"/>
      <point x="1130" y="362"/>
      <point x="902" y="212"/>
      <point x="741" y="212" type="qcurve" smooth="yes"/>
      <point x="580" y="212"/>
      <point x="400" y="397"/>
      <point x="400" y="581" type="qcurve" smooth="yes"/>
      <point x="400" y="745"/>
      <point x="524" y="1047"/>
      <point x="752" y="1197"/>
    </contour>
  </outline>
</glyph>
<glyph name="R" format="2">
  <advance width="1479"/>
  <unicode hex="0052"/>
  <note>
R
</note>
  <outline>
    <contour>
      <point x="1010" y="0" type="line"/>
      <point x="1336" y="0" type="line"/>
      <point x="1062" y="583" type="line"/>
      <point x="1248" y="611"/>
      <point x="1465" y="841"/>
      <point x="1465" y="1006" type="qcurve" smooth="yes"/>
      <point x="1465" y="1129"/>
      <point x="1347" y="1311"/>
      <point x="1120" y="1409"/>
      <point x="961" y="1409" type="qcurve" smooth="yes"/>
      <point x="310" y="1409" type="line"/>
      <point x="36" y="0" type="line"/>
      <point x="331" y="0" type="line"/>
      <point x="434" y="534" type="line"/>
      <point x="780" y="534" type="line"/>
    </contour>
    <contour>
      <point x="872" y="764" type="qcurve" smooth="yes"/>
      <point x="479" y="764" type="line"/>
      <point x="560" y="1180" type="line"/>
      <point x="924" y="1180" type="line" smooth="yes"/>
      <point x="1039" y="1180"/>
      <point x="1166" y="1082"/>
      <point x="1166" y="989" type="qcurve" smooth="yes"/>
      <point x="1166" y="881"/>
      <point x="1017" y="764"/>
    </contour>
  </outline>
</glyph>
<glyph name="S" format="2">
  <advance width="1366"/>
  <unicode hex="0053"/>
  <note>
S
</note>
  <outline>
    <contour>
      <point x="600" y="-20" type="qcurve" smooth="yes"/>
      <point x="922" y="-20"/>
      <point x="1254" y="207"/>
      <point x="1254" y="423" type="qcurve" smooth="yes"/>
      <point x="1254" y="504"/>
      <point x="1206" y="628"/>
      <point x="1115" y="724"/>
      <point x="963" y="801"/>
      <point x="804" y="845" type="qcurve" smooth="yes"/>
      <point x="656" y="885"/>
      <point x="556" y="934"/>
      <point x="504" y="1000"/>
      <point x="504" y="1047" type="qcurve" smooth="yes"/>
      <point x="504" y="1128"/>
      <point x="646" y="1221"/>
      <point x="770" y="1221" type="qcurve" smooth="yes"/>
      <point x="888" y="1221"/>
      <point x="1035" y="1114"/>
      <point x="1057" y="1024" type="qcurve"/>
      <point x="1345" y="1091" type="line"/>
      <point x="1312" y="1257"/>
      <point x="1024" y="1430"/>
      <point x="786" y="1430" type="qcurve" smooth="yes"/>
      <point x="527" y="1430"/>
      <point x="213" y="1214"/>
      <point x="213" y="1037" type="qcurve" smooth="yes"/>
      <point x="213" y="926"/>
      <point x="306" y="773"/>
      <point x="483" y="667"/>
      <point x="667" y="618" type="qcurve" smooth="yes"/>
      <point x="845" y="573"/>
      <point x="965" y="480"/>
      <point x="965" y="400" type="qcurve" smooth="yes"/>
      <point x="965" y="201"/>
      <point x="620" y="201" type="qcurve" smooth="yes"/>
      <point x="480" y="201"/>
      <point x="335" y="303"/>
      <point x="314" y="414" type="qcurve"/>
      <point x="25" y="365" type="line"/>
      <point x="53" y="169"/>
      <point x="333" y="-20"/>
    </contour>
  </outline>
</glyph>
<glyph name="T" format="2">
  <advance width="1251"/>
  <unicode hex="0054"/>
  <note>
T
</note>
  <anchor x="750" y="1540" name="top"/>
  <anchor x="1240" y="1540" name="caronalt"/>
  <anchor x="620" y="-130" name="bottom"/>
  <anchor x="1280" y="1420" name="rhotic"/>
  <anchor x="1330" y="1340" name="horn"/>
  <anchor x="1251" y="1540" name="topdouble"/>
  <anchor x="1251" y="-380" name="bottomdouble"/>
  <anchor x="1251" y="1840" name="tophalfright"/>
  <anchor x="0" y="1840" name="tophalfleft"/>
  <anchor x="550" y="0" name="ogonek"/>
  <outline>
    <contour>
      <point x="895" y="1181" type="line"/>
      <point x="1351" y="1181" type="line"/>
      <point x="1395" y="1409" type="line"/>
      <point x="189" y="1409" type="line"/>
      <point x="145" y="1181" type="line"/>
      <point x="600" y="1181" type="line"/>
      <point x="370" y="0" type="line"/>
      <point x="665" y="0" type="line"/>
    </contour>
  </outline>
</glyph>
<glyph name="V" format="2">
  <advance width="1366"/>
  <unicode hex="0056"/>
  <note>
V
</note>
  <anchor x="800" y="1540" name="top"/>
  <anchor x="1330" y="1540" name="caronalt"/>
  <anchor x="680" y="-130" name="bottom"/>
  <anchor x="1328" y="1420" name="rhotic"/>
  <anchor x="1330" y="1300" name="horn"/>
  <anchor x="1366" y="1540" name="topdouble"/>
  <anchor x="1366" y="-380" name="bottomdouble"/>
  <anchor x="1366" y="1840" name="tophalfright"/>
  <anchor x="0" y="1840" name="tophalfleft"/>
  <anchor x="600" y="0" name="ogonek"/>
  <outline>
    <contour>
      <point x="1509" y="1409" type="line"/>
      <point x="1201" y="1409" type="line"/>
      <point x="688" y="405" type="line"/>
      <point x="669" y="364"/>
      <point x="643" y="309"/>
      <point x="612" y="238" type="curve"/>
      <point x="608" y="317"/>
      <point x="601" y="406"/>
      <point x="590" y="504" type="curve" smooth="yes"/>
      <point x="476" y="1409" type="line"/>
      <point x="171" y="1409" type="line"/>
      <point x="398" y="0" type="line"/>
      <point x="737" y="0" type="line"/>
    </contour>
  </outline>
</glyph>
<glyph name="W" format="2">
  <advance width="1933"/>
  <unicode hex="0057"/>
  <note>
W
</note>
  <outline>
    <contour>
      <point x="968" y="877" type="curve" smooth="yes"/>
      <point x="989" y="930"/>
      <point x="1019" y="1009"/>
      <point x="1059" y="1116" type="curve"/>
      <point x="1064" y="812" type="line"/>
      <point x="1091" y="0" type="line"/>
      <point x="1441" y="0" type="line"/>
      <point x="2079" y="1409" type="line"/>
      <point x="1788" y="1409" type="line"/>
      <point x="1562" y="859"/>
      <point x="1432" y="540"/>
      <point x="1398" y="453" type="curve" smooth="yes"/>
      <point x="1363" y="365"/>
      <point x="1337" y="297"/>
      <point x="1319" y="248" type="curve"/>
      <point x="1308" y="552" type="line"/>
      <point x="1277" y="1409" type="line"/>
      <point x="961" y="1409" type="line"/>
      <point x="843" y="1132"/>
      <point x="724" y="854"/>
      <point x="606" y="577" type="curve"/>
      <point x="562" y="467"/>
      <point x="517" y="358"/>
      <point x="473" y="248" type="curve"/>
      <point x="473" y="367"/>
      <point x="471" y="482"/>
      <point x="466" y="594" type="curve" smooth="yes"/>
      <point x="430" y="1409" type="line"/>
      <point x="150" y="1409" type="line"/>
      <point x="239" y="0" type="line"/>
      <point x="594" y="0" type="line"/>
      <point x="822" y="532"/>
      <point x="947" y="824"/>
    </contour>
  </outline>
</glyph>
<glyph name="X" format="2">
  <advance width="1366"/>
  <unicode hex="0058"/>
  <note>
X
</note>
  <anchor x="830" y="1540" name="gpos_18_mark_to_base__MARKCLASS_0_lookup_18"/>
  <anchor x="1280" y="1540" name="gpos_18_mark_to_base__MARKCLASS_1_lookup_18"/>
  <anchor x="680" y="-130" name="gpos_18_mark_to_base__MARKCLASS_2_lookup_18"/>
  <anchor x="1260" y="1420" name="gpos_20_mark_to_base__MARKCLASS_0_lookup_20"/>
  <anchor x="1260" y="1300" name="gpos_21_mark_to_base__MARKCLASS_0_lookup_21"/>
  <anchor x="1366" y="1540" name="gpos_22_mark_to_base__MARKCLASS_0_lookup_22"/>
  <anchor x="1366" y="-380" name="gpos_22_mark_to_base__MARKCLASS_1_lookup_22"/>
  <anchor x="1366" y="1840" name="gpos_23_mark_to_base__MARKCLASS_0_lookup_23"/>
  <anchor x="0" y="1840" name="gpos_23_mark_to_base__MARKCLASS_1_lookup_23"/>
  <anchor x="1100" y="0" name="gpos_24_mark_to_base__MARKCLASS_0_lookup_24"/>
  <outline>
    <contour>
      <point x="928" y="0" type="line"/>
      <point x="1235" y="0" type="line"/>
      <point x="868" y="732" type="line"/>
      <point x="1468" y="1409" type="line"/>
      <point x="1155" y="1409" type="line"/>
      <point x="753" y="938" type="line"/>
      <point x="529" y="1409" type="line"/>
      <point x="220" y="1409" type="line"/>
      <point x="558" y="736" type="line"/>
      <point x="-94" y="0" type="line"/>
      <point x="220" y="0" type="line"/>
      <point x="675" y="532" type="line"/>
    </contour>
  </outline>
</glyph>
<glyph name="Y" format="2">
  <advance width="1366"/>
  <unicode hex="0059"/>
  <note>
Y
</note>
  <anchor x="830" y="1540" name="top"/>
  <anchor x="1330" y="1540" name="caronalt"/>
  <anchor x="680" y="-130" name="bottom"/>
  <anchor x="1321" y="1420" name="rhotic"/>
  <anchor x="1290" y="1300" name="horn"/>
  <anchor x="1366" y="1540" name="topdouble"/>
  <anchor x="1366" y="-380" name="bottomdouble"/>
  <anchor x="1366" y="1840" name="tophalfright"/>
  <anchor x="0" y="1840" name="tophalfleft"/>
  <anchor x="600" y="0" name="ogonek"/>
  <outline>
    <contour>
      <point x="836" y="578" type="line"/>
      <point x="1520" y="1409" type="line"/>
      <point x="1197" y="1409" type="line"/>
      <point x="723" y="804" type="line"/>
      <point x="464" y="1409" type="line"/>
      <point x="172" y="1409" type="line"/>
      <point x="542" y="578" type="line"/>
      <point x="430" y="0" type="line"/>
      <point x="724" y="0" type="line"/>
    </contour>
  </outline>
</glyph>
<glyph name="Z" format="2">
  <advance width="1251"/>
  <unicode hex="005A"/>
  <note>
Z
</note>
  <anchor x="780" y="1540" name="gpos_18_mark_to_base__MARKCLASS_0_lookup_18"/>
  <anchor x="1140" y="1540" name="gpos_18_mark_to_base__MARKCLASS_1_lookup_18"/>
  <anchor x="640" y="-130" name="gpos_18_mark_to_base__MARKCLASS_2_lookup_18"/>
  <anchor x="1262" y="1420" name="gpos_20_mark_to_base__MARKCLASS_0_lookup_20"/>
  <anchor x="1230" y="1300" name="gpos_21_mark_to_base__MARKCLASS_0_lookup_21"/>
  <anchor x="1251" y="1540" name="gpos_22_mark_to_base__MARKCLASS_0_lookup_22"/>
  <anchor x="1251" y="-380" name="gpos_22_mark_to_base__MARKCLASS_1_lookup_22"/>
  <anchor x="1251" y="1840" name="gpos_23_mark_to_base__MARKCLASS_0_lookup_23"/>
  <anchor x="0" y="1840" name="gpos_23_mark_to_base__MARKCLASS_1_lookup_23"/>
  <anchor x="1030" y="0" name="gpos_24_mark_to_base__MARKCLASS_0_lookup_24"/>
  <outline>
    <contour>
      <point x="1127" y="231" type="line"/>
      <point x="345" y="231" type="line"/>
      <point x="1275" y="1204" type="line"/>
      <point x="1315" y="1409" type="line"/>
      <point x="301" y="1409" type="line"/>
      <point x="256" y="1178" type="line"/>
      <point x="919" y="1178" type="line"/>
      <point x="-8" y="209" type="line"/>
      <point x="-48" y="0" type="line"/>
      <point x="1082" y="0" type="line"/>
    </contour>
  </outline>
</glyph>
<glyph name="underscore" format="2">
  <advance width="1139"/>
  <unicode hex="005F"/>
  <note>
underscore
</note>
  <outline>
    <contour>
      <point x="-120" y="-250" type="line"/>
      <point x="1057" y="-250" type="line"/>
      <point x="1057" y="-172" type="line"/>
      <point x="-120" y="-172" type="line"/>
    </contour>
  </outline>
</glyph>
<glyph name="a" format="2">
  <advance width="1139"/>
  <unicode hex="0061"/>
  <note>
a
</note>
  <outline>
    <contour>
      <point x="892" y="-10" type="qcurve" smooth="yes"/>
      <point x="937" y="-10"/>
      <point x="1023" y="-4"/>
      <point x="1065" y="12" type="qcurve"/>
      <point x="1079" y="167" type="line"/>
      <point x="1047" y="160"/>
      <point x="1017" y="160" type="qcurve" smooth="yes"/>
      <point x="1010" y="160"/>
      <point x="984" y="163"/>
      <point x="958" y="175"/>
      <point x="938" y="201"/>
      <point x="938" y="225" type="qcurve" smooth="yes"/>
      <point x="938" y="252"/>
      <point x="946" y="297" type="qcurve" smooth="yes"/>
      <point x="1017" y="650" type="line" smooth="yes"/>
      <point x="1041" y="770"/>
      <point x="1041" y="807" type="qcurve" smooth="yes"/>
      <point x="1041" y="956"/>
      <point x="848" y="1102"/>
      <point x="641" y="1102" type="qcurve" smooth="yes"/>
      <point x="443" y="1102"/>
      <point x="204" y="952"/>
      <point x="170" y="808" type="qcurve"/>
      <point x="433" y="777" type="line"/>
      <point x="450" y="846"/>
      <point x="542" y="919"/>
      <point x="636" y="919" type="qcurve" smooth="yes"/>
      <point x="763" y="919"/>
      <point x="763" y="791" type="qcurve" smooth="yes"/>
      <point x="763" y="755"/>
      <point x="742" y="660" type="qcurve"/>
      <point x="551" y="657" type="line" smooth="yes"/>
      <point x="265" y="652"/>
      <point x="10" y="463"/>
      <point x="10" y="278" type="qcurve" smooth="yes"/>
      <point x="10" y="147"/>
      <point x="177" y="-20"/>
      <point x="317" y="-20" type="qcurve" smooth="yes"/>
      <point x="435" y="-20"/>
      <point x="599" y="77"/>
      <point x="683" y="207" type="qcurve"/>
      <point x="689" y="207" type="line"/>
      <point x="684" y="180"/>
      <point x="684" y="143" type="qcurve" smooth="yes"/>
      <point x="684" y="74"/>
      <point x="792" y="-10"/>
    </contour>
    <contour>
      <point x="711" y="503" type="line"/>
      <point x="689" y="411" type="line" smooth="yes"/>
      <point x="662" y="305"/>
      <point x="526" y="176"/>
      <point x="443" y="176" type="qcurve" smooth="yes"/>
      <point x="376" y="176"/>
      <point x="297" y="255"/>
      <point x="297" y="325" type="qcurve" smooth="yes"/>
      <point x="297" y="409"/>
      <point x="432" y="501"/>
      <point x="549" y="503" type="qcurve" smooth="yes"/>
    </contour>
  </outline>
</glyph>
<glyph name="b" format="2">
  <advance width="1251"/>
  <unicode hex="0062"/>
  <note>
b
</note>
  <outline>
    <contour>
      <point x="855" y="1102" type="qcurve" smooth="yes"/>
      <point x="734" y="1102"/>
      <point x="555" y="997"/>
      <point x="499" y="913" type="qcurve"/>
      <point x="495" y="913" type="line"/>
      <point x="514" y="992"/>
      <point x="527" y="1057" type="qcurve" smooth="yes"/>
      <point x="611" y="1484" type="line"/>
      <point x="330" y="1484" type="line"/>
      <point x="84" y="223" type="line" smooth="yes"/>
      <point x="70" y="149"/>
      <point x="40" y="15"/>
      <point x="35" y="0" type="qcurve"/>
      <point x="306" y="0" type="line"/>
      <point x="327" y="67" type="line" smooth="yes"/>
      <point x="338" y="104"/>
      <point x="354" y="178" type="qcurve"/>
      <point x="357" y="178" type="line"/>
      <point x="389" y="84"/>
      <point x="544" y="-20"/>
      <point x="669" y="-20" type="qcurve" smooth="yes"/>
      <point x="843" y="-20"/>
      <point x="1068" y="163"/>
      <point x="1192" y="546"/>
      <point x="1192" y="734" type="qcurve" smooth="yes"/>
      <point x="1192" y="748" type="line" smooth="yes"/>
      <point x="1192" y="913"/>
      <point x="1014" y="1102"/>
    </contour>
    <contour>
      <point x="735" y="907" type="qcurve" smooth="yes"/>
      <point x="828" y="907"/>
      <point x="899" y="799"/>
      <point x="899" y="694" type="qcurve" smooth="yes"/>
      <point x="899" y="597"/>
      <point x="823" y="298"/>
      <point x="709" y="173"/>
      <point x="608" y="173" type="qcurve" smooth="yes"/>
      <point x="513" y="173"/>
      <point x="407" y="294"/>
      <point x="407" y="401" type="qcurve" smooth="yes"/>
      <point x="407" y="461"/>
      <point x="424" y="554" type="qcurve" smooth="yes"/>
      <point x="458" y="731"/>
      <point x="609" y="907"/>
    </contour>
  </outline>
</glyph>
<glyph name="c" format="2">
  <advance width="1139"/>
  <unicode hex="0063"/>
  <note>
c
</note>
  <outline>
    <contour>
      <point x="536" y="173" type="qcurve" smooth="yes"/>
      <point x="358" y="173"/>
      <point x="358" y="407" type="qcurve" smooth="yes"/>
      <point x="358" y="460"/>
      <point x="381" y="575" type="qcurve"/>
      <point x="430" y="762"/>
      <point x="551" y="909"/>
      <point x="658" y="909" type="qcurve" smooth="yes"/>
      <point x="814" y="909"/>
      <point x="825" y="718" type="qcurve"/>
      <point x="1109" y="741" type="line"/>
      <point x="1095" y="911"/>
      <point x="869" y="1102"/>
      <point x="680" y="1102" type="qcurve" smooth="yes"/>
      <point x="484" y="1102"/>
      <point x="221" y="942"/>
      <point x="63" y="600"/>
      <point x="63" y="405" type="qcurve" smooth="yes"/>
      <point x="63" y="205"/>
      <point x="300" y="-20"/>
      <point x="520" y="-20" type="qcurve" smooth="yes"/>
      <point x="923" y="-20"/>
      <point x="1030" y="331" type="qcurve"/>
      <point x="759" y="381" type="line"/>
      <point x="727" y="278"/>
      <point x="619" y="173"/>
    </contour>
  </outline>
</glyph>
<glyph name="d" format="2">
  <advance width="1251"/>
  <unicode hex="0064"/>
  <note>
d
</note>
  <outline>
    <contour>
      <point x="749" y="160" type="qcurve"/>
      <point x="753" y="160" type="line"/>
      <point x="738" y="63"/>
      <point x="738" y="0" type="qcurve"/>
      <point x="1019" y="0" type="line"/>
      <point x="1028" y="119"/>
      <point x="1048" y="231" type="qcurve" smooth="yes"/>
      <point x="1286" y="1484" type="line"/>
      <point x="1009" y="1484" type="line"/>
      <point x="925" y="1066" type="line" smooth="yes"/>
      <point x="913" y="1004"/>
      <point x="901" y="924"/>
      <point x="899" y="904" type="qcurve"/>
      <point x="894" y="904" type="line"/>
      <point x="836" y="1102"/>
      <point x="580" y="1102" type="qcurve" smooth="yes"/>
      <point x="417" y="1102"/>
      <point x="186" y="911"/>
      <point x="58" y="545"/>
      <point x="58" y="354" type="qcurve" smooth="yes"/>
      <point x="58" y="183"/>
      <point x="238" y="-21"/>
      <point x="392" y="-21" type="qcurve" smooth="yes"/>
      <point x="513" y="-21"/>
      <point x="678" y="67"/>
    </contour>
    <contour>
      <point x="515" y="172" type="qcurve" smooth="yes"/>
      <point x="355" y="172"/>
      <point x="355" y="393" type="qcurve" smooth="yes"/>
      <point x="355" y="506"/>
      <point x="423" y="772"/>
      <point x="552" y="910"/>
      <point x="654" y="910" type="qcurve" smooth="yes"/>
      <point x="748" y="910"/>
      <point x="842" y="801"/>
      <point x="842" y="681" type="qcurve" smooth="yes"/>
      <point x="842" y="600"/>
      <point x="794" y="384"/>
      <point x="712" y="241"/>
      <point x="596" y="172"/>
    </contour>
  </outline>
</glyph>
<glyph name="e" format="2">
  <advance width="1139"/>
  <unicode hex="0065"/>
  <note>
e
</note>
  <anchor x="630" y="1200" name="gpos_18_mark_to_base__MARKCLASS_0_lookup_18"/>
  <anchor x="1000" y="1200" name="gpos_18_mark_to_base__MARKCLASS_1_lookup_18"/>
  <anchor x="580" y="-130" name="gpos_18_mark_to_base__MARKCLASS_2_lookup_18"/>
  <anchor x="1020" y="900" name="gpos_20_mark_to_base__MARKCLASS_0_lookup_20"/>
  <anchor x="900" y="1000" name="gpos_21_mark_to_base__MARKCLASS_0_lookup_21"/>
  <anchor x="1139" y="1540" name="gpos_22_mark_to_base__MARKCLASS_0_lookup_22"/>
  <anchor x="1139" y="-380" name="gpos_22_mark_to_base__MARKCLASS_1_lookup_22"/>
  <anchor x="1139" y="1840" name="gpos_23_mark_to_base__MARKCLASS_0_lookup_23"/>
  <anchor x="0" y="1840" name="gpos_23_mark_to_base__MARKCLASS_1_lookup_23"/>
  <anchor x="680" y="0" name="gpos_24_mark_to_base__MARKCLASS_0_lookup_24"/>
  <outline>
    <contour>
      <point x="358" y="476" type="curve"/>
      <point x="1058" y="476" type="line"/>
      <point x="1074" y="553"/>
      <point x="1082" y="625"/>
      <point x="1082" y="691" type="curve" smooth="yes"/>
      <point x="1082" y="952"/>
      <point x="925" y="1102"/>
      <point x="646" y="1102" type="curve" smooth="yes"/>
      <point x="414" y="1102"/>
      <point x="231" y="988"/>
      <point x="135" y="781" type="curve" smooth="yes"/>
      <point x="87" y="677"/>
      <point x="63" y="556"/>
      <point x="63" y="418" type="curve" smooth="yes"/>
      <point x="63" y="142"/>
      <point x="232" y="-20"/>
      <point x="516" y="-20" type="curve" smooth="yes"/>
      <point x="756" y="-20"/>
      <point x="893" y="51"/>
      <point x="993" y="263" type="curve"/>
      <point x="748" y="337" type="line"/>
      <point x="704" y="224"/>
      <point x="633" y="168"/>
      <point x="535" y="168" type="curve" smooth="yes"/>
      <point x="414" y="168"/>
      <point x="351" y="246"/>
      <point x="351" y="387" type="curve" smooth="yes"/>
      <point x="351" y="421"/>
      <point x="353" y="451"/>
    </contour>
    <contour>
      <point x="391" y="663" type="line"/>
      <point x="428" y="834"/>
      <point x="518" y="924"/>
      <point x="646" y="924" type="curve" smooth="yes"/>
      <point x="753" y="924"/>
      <point x="825" y="862"/>
      <point x="825" y="719" type="curve"/>
      <point x="822" y="663" type="line"/>
    </contour>
  </outline>
</glyph>
<glyph name="f" format="2">
  <advance width="682"/>
  <unicode hex="0066"/>
  <note>
f
</note>
  <anchor x="600" y="1580" name="gpos_18_mark_to_base__MARKCLASS_0_lookup_18"/>
  <anchor x="700" y="1540" name="gpos_18_mark_to_base__MARKCLASS_1_lookup_18"/>
  <anchor x="340" y="-130" name="gpos_18_mark_to_base__MARKCLASS_2_lookup_18"/>
  <anchor x="780" y="1500" name="gpos_20_mark_to_base__MARKCLASS_0_lookup_20"/>
  <anchor x="810" y="1440" name="gpos_21_mark_to_base__MARKCLASS_0_lookup_21"/>
  <anchor x="682" y="1540" name="gpos_22_mark_to_base__MARKCLASS_0_lookup_22"/>
  <anchor x="682" y="-380" name="gpos_22_mark_to_base__MARKCLASS_1_lookup_22"/>
  <anchor x="682" y="1840" name="gpos_23_mark_to_base__MARKCLASS_0_lookup_23"/>
  <anchor x="0" y="1840" name="gpos_23_mark_to_base__MARKCLASS_1_lookup_23"/>
  <anchor x="280" y="0" name="gpos_24_mark_to_base__MARKCLASS_0_lookup_24"/>
  <outline>
    <contour>
      <point x="528" y="892" type="line"/>
      <point x="741" y="892" type="line"/>
      <point x="778" y="1082" type="line"/>
      <point x="565" y="1082" type="line"/>
      <point x="581" y="1167" type="line" smooth="yes"/>
      <point x="598" y="1254"/>
      <point x="632" y="1296"/>
      <point x="721" y="1296" type="curve" smooth="yes"/>
      <point x="734" y="1296"/>
      <point x="752" y="1294"/>
      <point x="770" y="1292" type="curve" smooth="yes"/>
      <point x="790" y="1290"/>
      <point x="809" y="1287"/>
      <point x="817" y="1286" type="curve"/>
      <point x="853" y="1467" type="line"/>
      <point x="798" y="1478"/>
      <point x="747" y="1484"/>
      <point x="698" y="1484" type="curve" smooth="yes"/>
      <point x="546" y="1484"/>
      <point x="442" y="1448"/>
      <point x="377" y="1364" type="curve" smooth="yes"/>
      <point x="343" y="1321"/>
      <point x="321" y="1265"/>
      <point x="307" y="1195" type="curve" smooth="yes"/>
      <point x="285" y="1082" type="line"/>
      <point x="127" y="1082" type="line"/>
      <point x="90" y="892" type="line"/>
      <point x="248" y="892" type="line"/>
      <point x="74" y="0" type="line"/>
      <point x="354" y="0" type="line"/>
    </contour>
  </outline>
</glyph>
<glyph name="g" format="2">
  <advance width="1251"/>
  <unicode hex="0067"/>
  <note>
g
</note>
  <outline>
    <contour>
      <point x="431" y="-425" type="qcurve" smooth="yes"/>
      <point x="685" y="-425"/>
      <point x="955" y="-223"/>
      <point x="1002" y="10" type="qcurve" smooth="yes"/>
      <point x="1167" y="853" type="line"/>
      <point x="1197" y="999" type="line"/>
      <point x="1216" y="1082" type="line"/>
      <point x="951" y="1082" type="line"/>
      <point x="946" y="1074"/>
      <point x="909" y="922"/>
      <point x="903" y="893" type="qcurve"/>
      <point x="901" y="893" type="line"/>
      <point x="874" y="989"/>
      <point x="704" y="1101"/>
      <point x="586" y="1101" type="qcurve" smooth="yes"/>
      <point x="415" y="1101"/>
      <point x="192" y="926"/>
      <point x="65" y="557"/>
      <point x="65" y="356" type="qcurve" smooth="yes"/>
      <point x="65" y="192"/>
      <point x="250" y="-8"/>
      <point x="405" y="-8" type="qcurve" smooth="yes"/>
      <point x="482" y="-8"/>
      <point x="601" y="34"/>
      <point x="696" y="112"/>
      <point x="759" y="201" type="qcurve"/>
      <point x="761" y="201" type="line"/>
      <point x="750" y="123"/>
      <point x="730" y="27" type="qcurve" smooth="yes"/>
      <point x="696" y="-121"/>
      <point x="574" y="-239"/>
      <point x="464" y="-239" type="qcurve" smooth="yes"/>
      <point x="303" y="-239"/>
      <point x="276" y="-112" type="qcurve"/>
      <point x="-7" y="-142" type="line"/>
      <point x="18" y="-287"/>
      <point x="232" y="-425"/>
    </contour>
    <contour>
      <point x="846" y="686" type="qcurve" smooth="yes"/>
      <point x="846" y="562"/>
      <point x="767" y="331"/>
      <point x="621" y="197"/>
      <point x="532" y="197" type="qcurve" smooth="yes"/>
      <point x="359" y="197"/>
      <point x="359" y="396" type="qcurve" smooth="yes"/>
      <point x="359" y="469"/>
      <point x="404" y="702"/>
      <point x="473" y="845"/>
      <point x="572" y="909"/>
      <point x="648" y="909" type="qcurve" smooth="yes"/>
      <point x="742" y="909"/>
      <point x="846" y="790"/>
    </contour>
  </outline>
</glyph>
<glyph name="h" format="2">
  <advance width="1251"/>
  <unicode hex="0068"/>
  <note>
h
</note>
  <anchor x="780" y="1540" name="gpos_18_mark_to_base__MARKCLASS_0_lookup_18"/>
  <anchor x="1120" y="1540" name="gpos_18_mark_to_base__MARKCLASS_1_lookup_18"/>
  <anchor x="640" y="-130" name="gpos_18_mark_to_base__MARKCLASS_2_lookup_18"/>
  <anchor x="1080" y="900" name="gpos_20_mark_to_base__MARKCLASS_0_lookup_20"/>
  <anchor x="1040" y="1000" name="gpos_21_mark_to_base__MARKCLASS_0_lookup_21"/>
  <anchor x="1251" y="1540" name="gpos_22_mark_to_base__MARKCLASS_0_lookup_22"/>
  <anchor x="1251" y="-380" name="gpos_22_mark_to_base__MARKCLASS_1_lookup_22"/>
  <anchor x="1251" y="1840" name="gpos_23_mark_to_base__MARKCLASS_0_lookup_23"/>
  <anchor x="0" y="1840" name="gpos_23_mark_to_base__MARKCLASS_1_lookup_23"/>
  <anchor x="920" y="0" name="gpos_24_mark_to_base__MARKCLASS_0_lookup_24"/>
  <outline>
    <contour>
      <point x="486" y="897" type="curve"/>
      <point x="483" y="897" type="line"/>
      <point x="496" y="958"/>
      <point x="510" y="1018"/>
      <point x="522" y="1079" type="curve" smooth="yes"/>
      <point x="601" y="1484" type="line"/>
      <point x="321" y="1484" type="line"/>
      <point x="35" y="0" type="line"/>
      <point x="317" y="0" type="line"/>
      <point x="435" y="606" type="line" smooth="yes"/>
      <point x="464" y="765"/>
      <point x="595" y="889"/>
      <point x="730" y="889" type="curve" smooth="yes"/>
      <point x="831" y="889"/>
      <point x="882" y="846"/>
      <point x="882" y="760" type="curve" smooth="yes"/>
      <point x="882" y="733"/>
      <point x="873" y="678"/>
      <point x="856" y="595" type="curve" smooth="yes"/>
      <point x="738" y="0" type="line"/>
      <point x="1017" y="0" type="line"/>
      <point x="1144" y="653" type="line" smooth="yes"/>
      <point x="1153" y="693"/>
      <point x="1165" y="784"/>
      <point x="1165" y="817" type="curve" smooth="yes"/>
      <point x="1165" y="1001"/>
      <point x="1062" y="1101"/>
      <point x="859" y="1101" type="curve" smooth="yes"/>
      <point x="703" y="1101"/>
      <point x="586" y="1036"/>
    </contour>
  </outline>
</glyph>
<glyph name="i" format="2">
  <advance width="569"/>
  <unicode hex="0069"/>
  <note>
i
</note>
  <anchor x="440" y="1580" name="gpos_18_mark_to_base__MARKCLASS_0_lookup_18"/>
  <anchor x="460" y="1540" name="gpos_18_mark_to_base__MARKCLASS_1_lookup_18"/>
  <anchor x="280" y="-130" name="gpos_18_mark_to_base__MARKCLASS_2_lookup_18"/>
  <anchor x="410" y="1100" name="gpos_20_mark_to_base__MARKCLASS_0_lookup_20"/>
  <anchor x="480" y="1000" name="gpos_21_mark_to_base__MARKCLASS_0_lookup_21"/>
  <anchor x="569" y="1540" name="gpos_22_mark_to_base__MARKCLASS_0_lookup_22"/>
  <anchor x="569" y="-380" name="gpos_22_mark_to_base__MARKCLASS_1_lookup_22"/>
  <anchor x="569" y="1840" name="gpos_23_mark_to_base__MARKCLASS_0_lookup_23"/>
  <anchor x="0" y="1840" name="gpos_23_mark_to_base__MARKCLASS_1_lookup_23"/>
  <anchor x="200" y="0" name="gpos_24_mark_to_base__MARKCLASS_0_lookup_24"/>
  <outline>
    <contour>
      <point x="604" y="1484" type="line"/>
      <point x="323" y="1484" type="line"/>
      <point x="282" y="1277" type="line"/>
      <point x="563" y="1277" type="line"/>
    </contour>
    <contour>
      <point x="526" y="1082" type="line"/>
      <point x="245" y="1082" type="line"/>
      <point x="35" y="0" type="line"/>
      <point x="315" y="0" type="line"/>
    </contour>
  </outline>
</glyph>
<glyph name="k" format="2">
  <advance width="1139"/>
  <unicode hex="006B"/>
  <note>
k
</note>
  <anchor x="730" y="1540" name="top"/>
  <anchor x="1120" y="1540" name="caronalt"/>
  <anchor x="580" y="-130" name="bottom"/>
  <anchor x="940" y="1100" name="rhotic"/>
  <anchor x="1000" y="1000" name="horn"/>
  <anchor x="1139" y="1540" name="topdouble"/>
  <anchor x="1139" y="-380" name="bottomdouble"/>
  <anchor x="1139" y="1840" name="tophalfright"/>
  <anchor x="0" y="1840" name="tophalfleft"/>
  <anchor x="900" y="0" name="ogonek"/>
  <outline>
    <contour>
      <point x="400" y="422" type="line"/>
      <point x="540" y="497" type="line"/>
      <point x="728" y="0" type="line"/>
      <point x="1026" y="0" type="line"/>
      <point x="751" y="660" type="line"/>
      <point x="1224" y="1082" type="line"/>
      <point x="902" y="1082" type="line"/>
      <point x="597" y="788" type="line"/>
      <point x="437" y="634" type="line"/>
      <point x="604" y="1484" type="line"/>
      <point x="323" y="1484" type="line"/>
      <point x="35" y="0" type="line"/>
      <point x="315" y="0" type="line"/>
    </contour>
  </outline>
</glyph>
<glyph name="l" format="2">
  <advance width="569"/>
  <unicode hex="006C"/>
  <note>
l
</note>
  <anchor x="440" y="1580" name="gpos_18_mark_to_base__MARKCLASS_0_lookup_18"/>
  <anchor x="460" y="1540" name="gpos_18_mark_to_base__MARKCLASS_1_lookup_18"/>
  <anchor x="280" y="-130" name="gpos_18_mark_to_base__MARKCLASS_2_lookup_18"/>
  <anchor x="520" y="1500" name="gpos_20_mark_to_base__MARKCLASS_0_lookup_20"/>
  <anchor x="520" y="1300" name="gpos_21_mark_to_base__MARKCLASS_0_lookup_21"/>
  <anchor x="569" y="1540" name="gpos_22_mark_to_base__MARKCLASS_0_lookup_22"/>
  <anchor x="569" y="-380" name="gpos_22_mark_to_base__MARKCLASS_1_lookup_22"/>
  <anchor x="569" y="1840" name="gpos_23_mark_to_base__MARKCLASS_0_lookup_23"/>
  <anchor x="0" y="1840" name="gpos_23_mark_to_base__MARKCLASS_1_lookup_23"/>
  <anchor x="200" y="0" name="gpos_24_mark_to_base__MARKCLASS_0_lookup_24"/>
  <outline>
    <contour>
      <point x="604" y="1484" type="line"/>
      <point x="323" y="1484" type="line"/>
      <point x="35" y="0" type="line"/>
      <point x="315" y="0" type="line"/>
    </contour>
  </outline>
</glyph>
<glyph name="n" format="2">
  <advance width="1251"/>
  <unicode hex="006E"/>
  <note>
n
</note>
  <anchor x="720" y="1200" name="gpos_18_mark_to_base__MARKCLASS_0_lookup_18"/>
  <anchor x="1120" y="1200" name="gpos_18_mark_to_base__MARKCLASS_1_lookup_18"/>
  <anchor x="620" y="-130" name="gpos_18_mark_to_base__MARKCLASS_2_lookup_18"/>
  <anchor x="1080" y="900" name="gpos_20_mark_to_base__MARKCLASS_0_lookup_20"/>
  <anchor x="1030" y="1000" name="gpos_21_mark_to_base__MARKCLASS_0_lookup_21"/>
  <anchor x="1251" y="1540" name="gpos_22_mark_to_base__MARKCLASS_0_lookup_22"/>
  <anchor x="1251" y="-380" name="gpos_22_mark_to_base__MARKCLASS_1_lookup_22"/>
  <anchor x="1251" y="1840" name="gpos_23_mark_to_base__MARKCLASS_0_lookup_23"/>
  <anchor x="0" y="1840" name="gpos_23_mark_to_base__MARKCLASS_1_lookup_23"/>
  <anchor x="920" y="0" name="gpos_24_mark_to_base__MARKCLASS_0_lookup_24"/>
  <outline>
    <contour>
      <point x="435" y="606" type="line" smooth="yes"/>
      <point x="464" y="765"/>
      <point x="595" y="889"/>
      <point x="730" y="889" type="curve" smooth="yes"/>
      <point x="831" y="889"/>
      <point x="882" y="846"/>
      <point x="882" y="760" type="curve" smooth="yes"/>
      <point x="882" y="733"/>
      <point x="873" y="678"/>
      <point x="856" y="595" type="curve" smooth="yes"/>
      <point x="738" y="0" type="line"/>
      <point x="1017" y="0" type="line"/>
      <point x="1144" y="653" type="line" smooth="yes"/>
      <point x="1153" y="693"/>
      <point x="1165" y="784"/>
      <point x="1165" y="817" type="curve" smooth="yes"/>
      <point x="1165" y="1001"/>
      <point x="1062" y="1101"/>
      <point x="859" y="1101" type="curve" smooth="yes"/>
      <point x="703" y="1101"/>
      <point x="586" y="1036"/>
      <point x="486" y="897" type="curve"/>
      <point x="483" y="897" type="line"/>
      <point x="490" y="932"/>
      <point x="507" y="1070"/>
      <point x="507" y="1082" type="curve"/>
      <point x="239" y="1082" type="line"/>
      <point x="224" y="981"/>
      <point x="212" y="904"/>
      <point x="201" y="851" type="curve" smooth="yes"/>
      <point x="35" y="0" type="line"/>
      <point x="317" y="0" type="line"/>
    </contour>
  </outline>
</glyph>
<glyph name="o" format="2">
  <advance width="1251"/>
  <unicode hex="006F"/>
  <note>
o
</note>
  <anchor x="720" y="1200" name="gpos_18_mark_to_base__MARKCLASS_0_lookup_18"/>
  <anchor x="1120" y="1200" name="gpos_18_mark_to_base__MARKCLASS_1_lookup_18"/>
  <anchor x="630" y="-130" name="gpos_18_mark_to_base__MARKCLASS_2_lookup_18"/>
  <anchor x="1120" y="900" name="gpos_20_mark_to_base__MARKCLASS_0_lookup_20"/>
  <anchor x="980" y="1000" name="gpos_21_mark_to_base__MARKCLASS_0_lookup_21"/>
  <anchor x="1251" y="1540" name="gpos_22_mark_to_base__MARKCLASS_0_lookup_22"/>
  <anchor x="1251" y="-380" name="gpos_22_mark_to_base__MARKCLASS_1_lookup_22"/>
  <anchor x="1251" y="1840" name="gpos_23_mark_to_base__MARKCLASS_0_lookup_23"/>
  <anchor x="0" y="1840" name="gpos_23_mark_to_base__MARKCLASS_1_lookup_23"/>
  <anchor x="680" y="0" name="gpos_24_mark_to_base__MARKCLASS_0_lookup_24"/>
  <outline>
    <contour>
      <point x="1185" y="683" type="curve"/>
      <point x="1185" y="948"/>
      <point x="1017" y="1101"/>
      <point x="704" y="1101" type="curve" smooth="yes"/>
      <point x="453" y="1101"/>
      <point x="249" y="982"/>
      <point x="143" y="775" type="curve" smooth="yes"/>
      <point x="90" y="672"/>
      <point x="63" y="553"/>
      <point x="63" y="419" type="curve" smooth="yes"/>
      <point x="63" y="147"/>
      <point x="244" y="-20"/>
      <point x="535" y="-20" type="curve" smooth="yes"/>
      <point x="786" y="-20"/>
      <point x="995" y="100"/>
      <point x="1104" y="315" type="curve" smooth="yes"/>
      <point x="1158" y="422"/>
      <point x="1185" y="545"/>
    </contour>
    <contour>
      <point x="891" y="662" type="curve"/>
      <point x="882" y="466"/>
      <point x="831" y="304"/>
      <point x="744" y="229" type="curve" smooth="yes"/>
      <point x="700" y="191"/>
      <point x="641" y="172"/>
      <point x="566" y="172" type="curve" smooth="yes"/>
      <point x="427" y="172"/>
      <point x="358" y="258"/>
      <point x="358" y="431" type="curve" smooth="yes"/>
      <point x="358" y="582"/>
      <point x="412" y="769"/>
      <point x="502" y="849" type="curve" smooth="yes"/>
      <point x="547" y="889"/>
      <point x="607" y="909"/>
      <point x="683" y="909" type="curve" smooth="yes"/>
      <point x="822" y="909"/>
      <point x="891" y="827"/>
    </contour>
  </outline>
</glyph>
<glyph name="p" format="2">
  <advance width="1251"/>
  <unicode hex="0070"/>
  <note>
p
</note>
  <outline>
    <contour>
      <point x="728" y="907" type="qcurve" smooth="yes"/>
      <point x="812" y="907"/>
      <point x="889" y="800"/>
      <point x="889" y="694" type="qcurve" smooth="yes"/>
      <point x="889" y="585"/>
      <point x="821" y="301"/>
      <point x="703" y="173"/>
      <point x="601" y="173" type="qcurve" smooth="yes"/>
      <point x="506" y="173"/>
      <point x="400" y="294"/>
      <point x="400" y="401" type="qcurve" smooth="yes"/>
      <point x="400" y="461"/>
      <point x="417" y="554" type="qcurve" smooth="yes"/>
      <point x="451" y="731"/>
      <point x="602" y="907"/>
    </contour>
    <contour>
      <point x="493" y="913" type="qcurve"/>
      <point x="489" y="913" type="line"/>
      <point x="497" y="941"/>
      <point x="512" y="1068"/>
      <point x="512" y="1082" type="qcurve"/>
      <point x="237" y="1082" type="line"/>
      <point x="218" y="943" type="line"/>
      <point x="198" y="833" type="line"/>
      <point x="-45" y="-425" type="line"/>
      <point x="235" y="-425" type="line"/>
      <point x="315" y="-10" type="line" smooth="yes"/>
      <point x="340" y="116"/>
      <point x="347" y="178" type="qcurve"/>
      <point x="349" y="178" type="line"/>
      <point x="381" y="84"/>
      <point x="537" y="-20"/>
      <point x="662" y="-20" type="qcurve" smooth="yes"/>
      <point x="836" y="-20"/>
      <point x="1061" y="163"/>
      <point x="1185" y="546"/>
      <point x="1185" y="748" type="qcurve" smooth="yes"/>
      <point x="1185" y="913"/>
      <point x="1007" y="1102"/>
      <point x="848" y="1102" type="qcurve" smooth="yes"/>
      <point x="730" y="1102"/>
      <point x="565" y="1013"/>
    </contour>
  </outline>
</glyph>
<glyph name="q" format="2">
  <advance width="1251"/>
  <unicode hex="0071"/>
  <note>
q
</note>
  <outline>
    <contour>
      <point x="898" y="903" type="qcurve"/>
      <point x="893" y="903" type="line"/>
      <point x="852" y="1011"/>
      <point x="710" y="1102"/>
      <point x="580" y="1102" type="qcurve" smooth="yes"/>
      <point x="419" y="1102"/>
      <point x="187" y="910"/>
      <point x="59" y="544"/>
      <point x="59" y="348" type="qcurve" smooth="yes"/>
      <point x="59" y="175"/>
      <point x="242" y="-21"/>
      <point x="394" y="-21" type="qcurve" smooth="yes"/>
      <point x="510" y="-21"/>
      <point x="679" y="65"/>
      <point x="754" y="163" type="qcurve"/>
      <point x="758" y="163" type="line"/>
      <point x="722" y="7" type="line"/>
      <point x="637" y="-425" type="line"/>
      <point x="918" y="-425" type="line"/>
      <point x="1163" y="843"/>
      <point x="1207" y="1055"/>
      <point x="1215" y="1082" type="qcurve"/>
      <point x="945" y="1082" type="line"/>
      <point x="923" y="1026"/>
    </contour>
    <contour>
      <point x="518" y="172" type="qcurve" smooth="yes"/>
      <point x="437" y="172"/>
      <point x="356" y="282"/>
      <point x="356" y="386" type="qcurve" smooth="yes"/>
      <point x="356" y="509"/>
      <point x="427" y="781"/>
      <point x="559" y="910"/>
      <point x="669" y="910" type="qcurve" smooth="yes"/>
      <point x="843" y="910"/>
      <point x="843" y="680" type="qcurve" smooth="yes"/>
      <point x="843" y="615"/>
      <point x="827" y="527" type="qcurve" smooth="yes"/>
      <point x="795" y="349"/>
      <point x="645" y="172"/>
    </contour>
  </outline>
</glyph>
<glyph name="r" format="2">
  <advance width="797"/>
  <unicode hex="0072"/>
  <note>
r
</note>
  <anchor x="530" y="1200" name="top"/>
  <anchor x="760" y="1200" name="caronalt"/>
  <anchor x="280" y="-130" name="bottom"/>
  <anchor x="800" y="1100" name="rhotic"/>
  <anchor x="850" y="1000" name="horn"/>
  <anchor x="797" y="1540" name="topdouble"/>
  <anchor x="797" y="-380" name="bottomdouble"/>
  <anchor x="797" y="1840" name="tophalfright"/>
  <anchor x="0" y="1840" name="tophalfleft"/>
  <anchor x="200" y="0" name="ogonek"/>
  <outline>
    <contour>
      <point x="844" y="853" type="curve"/>
      <point x="890" y="1088" type="line"/>
      <point x="853" y="1097"/>
      <point x="818" y="1102"/>
      <point x="787" y="1102" type="curve" smooth="yes"/>
      <point x="664" y="1102"/>
      <point x="577" y="1040"/>
      <point x="480" y="861" type="curve"/>
      <point x="476" y="861" type="line"/>
      <point x="484" y="910" type="line"/>
      <point x="506" y="1082" type="line"/>
      <point x="238" y="1082" type="line"/>
      <point x="232" y="1036"/>
      <point x="225" y="991"/>
      <point x="217" y="947" type="curve" smooth="yes"/>
      <point x="211" y="907"/>
      <point x="204" y="868"/>
      <point x="196" y="830" type="curve" smooth="yes"/>
      <point x="35" y="0" type="line"/>
      <point x="316" y="0" type="line"/>
      <point x="417" y="514" type="line" smooth="yes"/>
      <point x="464" y="754"/>
      <point x="566" y="868"/>
      <point x="730" y="868" type="curve" smooth="yes"/>
      <point x="760" y="868"/>
      <point x="798" y="863"/>
    </contour>
  </outline>
</glyph>
<glyph name="s" format="2">
  <advance width="1139"/>
  <unicode hex="0073"/>
  <note>
s
</note>
  <outline>
    <contour>
      <point x="1000" y="334" type="qcurve" smooth="yes"/>
      <point x="1000" y="458"/>
      <point x="850" y="610"/>
      <point x="668" y="651" type="qcurve" smooth="yes"/>
      <point x="527" y="684"/>
      <point x="453" y="716"/>
      <point x="413" y="760"/>
      <point x="413" y="793" type="qcurve" smooth="yes"/>
      <point x="413" y="913"/>
      <point x="618" y="913" type="qcurve" smooth="yes"/>
      <point x="703" y="913"/>
      <point x="801" y="851"/>
      <point x="818" y="782" type="qcurve"/>
      <point x="1069" y="811" type="line"/>
      <point x="1045" y="958"/>
      <point x="843" y="1099"/>
      <point x="637" y="1099" type="qcurve" smooth="yes"/>
      <point x="404" y="1099"/>
      <point x="153" y="929"/>
      <point x="153" y="769" type="qcurve" smooth="yes"/>
      <point x="153" y="643"/>
      <point x="316" y="484"/>
      <point x="515" y="439" type="qcurve" smooth="yes"/>
      <point x="656" y="409"/>
      <point x="739" y="354"/>
      <point x="739" y="302" type="qcurve" smooth="yes"/>
      <point x="739" y="236"/>
      <point x="626" y="166"/>
      <point x="517" y="166" type="qcurve" smooth="yes"/>
      <point x="407" y="166"/>
      <point x="295" y="232"/>
      <point x="274" y="307" type="qcurve"/>
      <point x="23" y="271" type="line"/>
      <point x="64" y="122"/>
      <point x="296" y="-20"/>
      <point x="497" y="-20" type="qcurve" smooth="yes"/>
      <point x="743" y="-20"/>
      <point x="1000" y="160"/>
    </contour>
  </outline>
</glyph>
<glyph name="t" format="2">
  <advance width="682"/>
  <unicode hex="0074"/>
  <note>
t
</note>
  <outline>
    <contour>
      <point x="376" y="-16" type="qcurve" smooth="yes"/>
      <point x="479" y="-16"/>
      <point x="560" y="8" type="qcurve"/>
      <point x="592" y="190" type="line"/>
      <point x="516" y="177"/>
      <point x="484" y="177" type="qcurve" smooth="yes"/>
      <point x="444" y="177"/>
      <point x="397" y="222"/>
      <point x="397" y="268" type="qcurve" smooth="yes"/>
      <point x="397" y="301"/>
      <point x="408" y="357" type="qcurve" smooth="yes"/>
      <point x="512" y="892" type="line"/>
      <point x="717" y="892" type="line"/>
      <point x="752" y="1082" type="line"/>
      <point x="550" y="1082" type="line"/>
      <point x="598" y="1336" type="line"/>
      <point x="422" y="1336" type="line"/>
      <point x="285" y="1082" type="line"/>
      <point x="123" y="1082" type="line"/>
      <point x="86" y="892" type="line"/>
      <point x="234" y="892" type="line"/>
      <point x="132" y="366" type="line" smooth="yes"/>
      <point x="116" y="280"/>
      <point x="116" y="209" type="qcurve" smooth="yes"/>
      <point x="116" y="101"/>
      <point x="252" y="-16"/>
    </contour>
  </outline>
</glyph>
<glyph name="u" format="2">
  <advance width="1251"/>
  <unicode hex="0075"/>
  <note>
u
</note>
  <anchor x="720" y="1200" name="gpos_18_mark_to_base__MARKCLASS_0_lookup_18"/>
  <anchor x="1120" y="1200" name="gpos_18_mark_to_base__MARKCLASS_1_lookup_18"/>
  <anchor x="620" y="-130" name="gpos_18_mark_to_base__MARKCLASS_2_lookup_18"/>
  <anchor x="1080" y="1100" name="gpos_20_mark_to_base__MARKCLASS_0_lookup_20"/>
  <anchor x="1100" y="1000" name="gpos_21_mark_to_base__MARKCLASS_0_lookup_21"/>
  <anchor x="1251" y="1540" name="gpos_22_mark_to_base__MARKCLASS_0_lookup_22"/>
  <anchor x="1251" y="-380" name="gpos_22_mark_to_base__MARKCLASS_1_lookup_22"/>
  <anchor x="1251" y="1840" name="gpos_23_mark_to_base__MARKCLASS_0_lookup_23"/>
  <anchor x="0" y="1840" name="gpos_23_mark_to_base__MARKCLASS_1_lookup_23"/>
  <anchor x="920" y="0" name="gpos_24_mark_to_base__MARKCLASS_0_lookup_24"/>
  <outline>
    <contour>
      <point x="764" y="185" type="curve"/>
      <point x="767" y="185" type="line"/>
      <point x="760" y="150"/>
      <point x="743" y="12"/>
      <point x="743" y="0" type="curve"/>
      <point x="1011" y="0" type="line"/>
      <point x="1026" y="101"/>
      <point x="1038" y="178"/>
      <point x="1049" y="231" type="curve" smooth="yes"/>
      <point x="1215" y="1082" type="line"/>
      <point x="933" y="1082" type="line"/>
      <point x="815" y="476" type="line" smooth="yes"/>
      <point x="784" y="315"/>
      <point x="655" y="193"/>
      <point x="520" y="193" type="curve" smooth="yes"/>
      <point x="419" y="193"/>
      <point x="368" y="236"/>
      <point x="368" y="322" type="curve" smooth="yes"/>
      <point x="368" y="350"/>
      <point x="377" y="405"/>
      <point x="394" y="487" type="curve" smooth="yes"/>
      <point x="512" y="1082" type="line"/>
      <point x="233" y="1082" type="line"/>
      <point x="106" y="429" type="line"/>
      <point x="97" y="392"/>
      <point x="85" y="298"/>
      <point x="85" y="265" type="curve" smooth="yes"/>
      <point x="85" y="81"/>
      <point x="188" y="-19"/>
      <point x="391" y="-19" type="curve" smooth="yes"/>
      <point x="546" y="-19"/>
      <point x="663" y="42"/>
    </contour>
  </outline>
</glyph>
<glyph name="v" format="2">
  <advance width="1139"/>
  <unicode hex="0076"/>
  <note>
v
</note>
  <anchor x="660" y="1200" name="gpos_18_mark_to_base__MARKCLASS_0_lookup_18"/>
  <anchor x="1120" y="1200" name="gpos_18_mark_to_base__MARKCLASS_1_lookup_18"/>
  <anchor x="560" y="-130" name="gpos_18_mark_to_base__MARKCLASS_2_lookup_18"/>
  <anchor x="1020" y="1100" name="gpos_20_mark_to_base__MARKCLASS_0_lookup_20"/>
  <anchor x="1060" y="1000" name="gpos_21_mark_to_base__MARKCLASS_0_lookup_21"/>
  <anchor x="1139" y="1540" name="gpos_22_mark_to_base__MARKCLASS_0_lookup_22"/>
  <anchor x="1139" y="-380" name="gpos_22_mark_to_base__MARKCLASS_1_lookup_22"/>
  <anchor x="1139" y="1840" name="gpos_23_mark_to_base__MARKCLASS_0_lookup_23"/>
  <anchor x="0" y="1840" name="gpos_23_mark_to_base__MARKCLASS_1_lookup_23"/>
  <anchor x="440" y="0" name="gpos_24_mark_to_base__MARKCLASS_0_lookup_24"/>
  <outline>
    <contour>
      <point x="1232" y="1082" type="line"/>
      <point x="930" y="1082" type="line"/>
      <point x="614" y="474" type="line" smooth="yes"/>
      <point x="580" y="406"/>
      <point x="547" y="334"/>
      <point x="514" y="257" type="curve" smooth="yes"/>
      <point x="492" y="208" type="line"/>
      <point x="489" y="259" type="line" smooth="yes"/>
      <point x="485" y="330"/>
      <point x="474" y="447"/>
      <point x="470" y="477" type="curve" smooth="yes"/>
      <point x="399" y="1082" type="line"/>
      <point x="110" y="1082" type="line"/>
      <point x="286" y="0" type="line"/>
      <point x="622" y="0" type="line"/>
    </contour>
  </outline>
</glyph>
<glyph name="w" format="2">
  <advance width="1593"/>
  <unicode hex="0077"/>
  <note>
w
</note>
  <anchor x="900" y="1200" name="top"/>
  <anchor x="1580" y="1200" name="caronalt"/>
  <anchor x="800" y="-130" name="bottom"/>
  <anchor x="1520" y="1100" name="rhotic"/>
  <anchor x="1560" y="1000" name="horn"/>
  <anchor x="1593" y="1540" name="topdouble"/>
  <anchor x="1593" y="-380" name="bottomdouble"/>
  <anchor x="1593" y="1840" name="tophalfright"/>
  <anchor x="0" y="1840" name="tophalfleft"/>
  <anchor x="1100" y="0" name="ogonek"/>
  <outline>
    <contour>
      <point x="767" y="658" type="line"/>
      <point x="795" y="718"/>
      <point x="827" y="795"/>
      <point x="862" y="890" type="curve"/>
      <point x="867" y="660" type="line"/>
      <point x="910" y="0" type="line"/>
      <point x="1207" y="0" type="line"/>
      <point x="1702" y="1082" type="line"/>
      <point x="1436" y="1082" type="line"/>
      <point x="1145" y="387" type="line" smooth="yes"/>
      <point x="1127" y="343"/>
      <point x="1110" y="299"/>
      <point x="1092" y="255" type="curve"/>
      <point x="1090" y="319"/>
      <point x="1091" y="382"/>
      <point x="1087" y="446" type="curve" smooth="yes"/>
      <point x="1045" y="1082" type="line"/>
      <point x="744" y="1082" type="line"/>
      <point x="450" y="446" type="line" smooth="yes"/>
      <point x="421" y="383"/>
      <point x="397" y="319"/>
      <point x="371" y="255" type="curve"/>
      <point x="371" y="299"/>
      <point x="372" y="342"/>
      <point x="371" y="386" type="curve" smooth="yes"/>
      <point x="357" y="1082" type="line"/>
      <point x="99" y="1082" type="line"/>
      <point x="168" y="0" type="line"/>
      <point x="465" y="0" type="line"/>
    </contour>
  </outline>
</glyph>
<glyph name="x" format="2">
  <advance width="1139"/>
  <unicode hex="0078"/>
  <note>
x
</note>
  <anchor x="630" y="1200" name="top"/>
  <anchor x="1060" y="1200" name="caronalt"/>
  <anchor x="560" y="-130" name="bottom"/>
  <anchor x="940" y="1100" name="rhotic"/>
  <anchor x="1000" y="1000" name="horn"/>
  <anchor x="1139" y="1540" name="topdouble"/>
  <anchor x="1139" y="-380" name="bottomdouble"/>
  <anchor x="1139" y="1840" name="tophalfright"/>
  <anchor x="0" y="1840" name="tophalfleft"/>
  <anchor x="900" y="0" name="ogonek"/>
  <outline>
    <contour>
      <point x="538" y="383" type="line"/>
      <point x="724" y="0" type="line"/>
      <point x="1019" y="0" type="line"/>
      <point x="725" y="557" type="line"/>
      <point x="1208" y="1082" type="line"/>
      <point x="900" y="1082" type="line"/>
      <point x="604" y="735" type="line"/>
      <point x="431" y="1082" type="line"/>
      <point x="139" y="1082" type="line"/>
      <point x="418" y="562" type="line"/>
      <point x="-90" y="0" type="line"/>
      <point x="211" y="0" type="line"/>
    </contour>
  </outline>
</glyph>
<glyph name="y" format="2">
  <advance width="1139"/>
  <unicode hex="0079"/>
  <note>
y
</note>
  <anchor x="630" y="1200" name="gpos_18_mark_to_base__MARKCLASS_0_lookup_18"/>
  <anchor x="1120" y="1200" name="gpos_18_mark_to_base__MARKCLASS_1_lookup_18"/>
  <anchor x="460" y="-540" name="gpos_18_mark_to_base__MARKCLASS_2_lookup_18"/>
  <anchor x="1020" y="1100" name="gpos_20_mark_to_base__MARKCLASS_0_lookup_20"/>
  <anchor x="1080" y="1000" name="gpos_21_mark_to_base__MARKCLASS_0_lookup_21"/>
  <anchor x="1139" y="1540" name="gpos_22_mark_to_base__MARKCLASS_0_lookup_22"/>
  <anchor x="1139" y="-380" name="gpos_22_mark_to_base__MARKCLASS_1_lookup_22"/>
  <anchor x="1139" y="1840" name="gpos_23_mark_to_base__MARKCLASS_0_lookup_23"/>
  <anchor x="0" y="1840" name="gpos_23_mark_to_base__MARKCLASS_1_lookup_23"/>
  <anchor x="280" y="-400" name="gpos_24_mark_to_base__MARKCLASS_0_lookup_24"/>
  <outline>
    <contour>
      <point x="88" y="-425" type="curve"/>
      <point x="212" y="-425"/>
      <point x="306" y="-383"/>
      <point x="396" y="-292" type="curve" smooth="yes"/>
      <point x="441" y="-247"/>
      <point x="499" y="-168"/>
      <point x="570" y="-57" type="curve"/>
      <point x="1224" y="1082" type="line"/>
      <point x="924" y="1082" type="line"/>
      <point x="665" y="581" type="line"/>
      <point x="526" y="288" type="line"/>
      <point x="520" y="276"/>
      <point x="516" y="264"/>
      <point x="509" y="251" type="curve"/>
      <point x="508" y="294"/>
      <point x="485" y="506"/>
      <point x="474" y="585" type="curve" smooth="yes"/>
      <point x="403" y="1082" type="line"/>
      <point x="112" y="1082" type="line"/>
      <point x="324" y="24" type="line"/>
      <point x="296" y="-24" type="line" smooth="yes"/>
      <point x="217" y="-163"/>
      <point x="144" y="-220"/>
      <point x="40" y="-220" type="curve" smooth="yes"/>
      <point x="9" y="-220"/>
      <point x="-20" y="-217"/>
      <point x="-47" y="-211" type="curve"/>
      <point x="-85" y="-407" type="line"/>
      <point x="-34" y="-419"/>
      <point x="23" y="-425"/>
    </contour>
  </outline>
</glyph>
<glyph name="z" format="2">
  <advance width="1024"/>
  <unicode hex="007A"/>
  <note>
z
</note>
  <anchor x="600" y="1200" name="gpos_18_mark_to_base__MARKCLASS_0_lookup_18"/>
  <anchor x="900" y="1200" name="gpos_18_mark_to_base__MARKCLASS_1_lookup_18"/>
  <anchor x="500" y="-130" name="gpos_18_mark_to_base__MARKCLASS_2_lookup_18"/>
  <anchor x="880" y="1100" name="gpos_20_mark_to_base__MARKCLASS_0_lookup_20"/>
  <anchor x="960" y="1000" name="gpos_21_mark_to_base__MARKCLASS_0_lookup_21"/>
  <anchor x="1024" y="1540" name="gpos_22_mark_to_base__MARKCLASS_0_lookup_22"/>
  <anchor x="1024" y="-380" name="gpos_22_mark_to_base__MARKCLASS_1_lookup_22"/>
  <anchor x="1024" y="1840" name="gpos_23_mark_to_base__MARKCLASS_0_lookup_23"/>
  <anchor x="0" y="1840" name="gpos_23_mark_to_base__MARKCLASS_1_lookup_23"/>
  <anchor x="740" y="0" name="gpos_24_mark_to_base__MARKCLASS_0_lookup_24"/>
  <outline>
    <contour>
      <point x="888" y="205" type="line"/>
      <point x="361" y="205" type="line"/>
      <point x="971" y="881" type="line"/>
      <point x="1010" y="1082" type="line"/>
      <point x="241" y="1082" type="line"/>
      <point x="201" y="879" type="line"/>
      <point x="641" y="879" type="line"/>
      <point x="28" y="199" type="line"/>
      <point x="-10" y="0" type="line"/>
      <point x="848" y="0" type="line"/>
    </contour>
  </outline>
</glyph>
<glyph name="braceleft" format="2">
  <advance width="797"/>
  <unicode hex="007B"/>
  <note>
braceleft
</note>
  <outline>
    <contour>
      <point x="388" y="-425" type="qcurve" smooth="yes"/>
      <point x="571" y="-425" type="line"/>
      <point x="608" y="-234" type="line"/>
      <point x="528" y="-234" type="line" smooth="yes"/>
      <point x="472" y="-234"/>
      <point x="406" y="-182"/>
      <point x="406" y="-129" type="qcurve" smooth="yes"/>
      <point x="406" y="-95"/>
      <point x="415" y="-53" type="qcurve" smooth="yes"/>
      <point x="480" y="281" type="line" smooth="yes"/>
      <point x="485" y="304"/>
      <point x="485" y="333" type="qcurve" smooth="yes"/>
      <point x="485" y="408"/>
      <point x="396" y="509"/>
      <point x="322" y="528" type="qcurve"/>
      <point x="323" y="532" type="line"/>
      <point x="420" y="552"/>
      <point x="560" y="685"/>
      <point x="579" y="779" type="qcurve" smooth="yes"/>
      <point x="639" y="1089" type="line" smooth="yes"/>
      <point x="661" y="1201"/>
      <point x="747" y="1294"/>
      <point x="829" y="1294" type="qcurve" smooth="yes"/>
      <point x="905" y="1294" type="line"/>
      <point x="942" y="1484" type="line"/>
      <point x="748" y="1484" type="line" smooth="yes"/>
      <point x="594" y="1484"/>
      <point x="427" y="1336"/>
      <point x="398" y="1190" type="qcurve" smooth="yes"/>
      <point x="331" y="852" type="line" smooth="yes"/>
      <point x="288" y="629"/>
      <point x="57" y="625" type="qcurve"/>
      <point x="19" y="433" type="line"/>
      <point x="211" y="429"/>
      <point x="211" y="275" type="qcurve" smooth="yes"/>
      <point x="211" y="242"/>
      <point x="204" y="207" type="qcurve" smooth="yes"/>
      <point x="143" y="-101" type="line" smooth="yes"/>
      <point x="132" y="-158"/>
      <point x="132" y="-202" type="qcurve" smooth="yes"/>
      <point x="132" y="-304"/>
      <point x="269" y="-425"/>
    </contour>
  </outline>
</glyph>
<glyph name="bar" format="2">
  <advance width="573"/>
  <unicode hex="007C"/>
  <note>
bar
</note>
  <outline>
    <contour>
      <point x="191" y="-425" type="line"/>
      <point x="453" y="-425" type="line"/>
      <point x="453" y="1484" type="line"/>
      <point x="191" y="1484" type="line"/>
    </contour>
  </outline>
</glyph>
<glyph name="braceright" format="2">
  <advance width="797"/>
  <unicode hex="007D"/>
  <note>
braceright
</note>
  <outline>
    <contour>
      <point x="399" y="1485" type="qcurve" smooth="yes"/>
      <point x="216" y="1485" type="line"/>
      <point x="179" y="1294" type="line"/>
      <point x="259" y="1294" type="line" smooth="yes"/>
      <point x="315" y="1294"/>
      <point x="381" y="1242"/>
      <point x="381" y="1189" type="qcurve" smooth="yes"/>
      <point x="381" y="1157"/>
      <point x="372" y="1112" type="qcurve" smooth="yes"/>
      <point x="307" y="779" type="line" smooth="yes"/>
      <point x="302" y="756"/>
      <point x="302" y="727" type="qcurve" smooth="yes"/>
      <point x="302" y="653"/>
      <point x="390" y="550"/>
      <point x="465" y="531" type="qcurve"/>
      <point x="464" y="528" type="line"/>
      <point x="367" y="508"/>
      <point x="227" y="375"/>
      <point x="208" y="280" type="qcurve" smooth="yes"/>
      <point x="148" y="-30" type="line" smooth="yes"/>
      <point x="126" y="-142"/>
      <point x="40" y="-235"/>
      <point x="-42" y="-235" type="qcurve" smooth="yes"/>
      <point x="-118" y="-235" type="line"/>
      <point x="-155" y="-425" type="line"/>
      <point x="39" y="-425" type="line" smooth="yes"/>
      <point x="189" y="-425"/>
      <point x="358" y="-282"/>
      <point x="389" y="-130" type="qcurve" smooth="yes"/>
      <point x="456" y="207" type="line" smooth="yes"/>
      <point x="478" y="320"/>
      <point x="612" y="433"/>
      <point x="730" y="435" type="qcurve"/>
      <point x="768" y="627" type="line"/>
      <point x="669" y="629"/>
      <point x="576" y="708"/>
      <point x="576" y="785" type="qcurve" smooth="yes"/>
      <point x="576" y="820"/>
      <point x="583" y="853" type="qcurve" smooth="yes"/>
      <point x="644" y="1161" type="line" smooth="yes"/>
      <point x="655" y="1216"/>
      <point x="655" y="1262" type="qcurve" smooth="yes"/>
      <point x="655" y="1364"/>
      <point x="518" y="1485"/>
    </contour>
  </outline>
</glyph>
<glyph name="asciitilde" format="2">
  <advance width="1196"/>
  <unicode hex="007E"/>
  <note>
asciitilde
</note>
  <outline>
    <contour>
      <point x="889" y="516" type="qcurve" smooth="yes"/>
      <point x="975" y="516"/>
      <point x="1092" y="552"/>
      <point x="1156" y="596" type="qcurve"/>
      <point x="1156" y="815" type="line"/>
      <point x="1042" y="723"/>
      <point x="908" y="723" type="qcurve" smooth="yes"/>
      <point x="830" y="723"/>
      <point x="696" y="770" type="qcurve" smooth="yes"/>
      <point x="622" y="796"/>
      <point x="469" y="840"/>
      <point x="389" y="840" type="qcurve" smooth="yes"/>
      <point x="231" y="840"/>
      <point x="118" y="756" type="qcurve"/>
      <point x="118" y="543" type="line"/>
      <point x="183" y="588"/>
      <point x="302" y="631"/>
      <point x="373" y="631" type="qcurve" smooth="yes"/>
      <point x="459" y="631"/>
      <point x="594" y="584" type="qcurve" smooth="yes"/>
      <point x="669" y="558"/>
      <point x="814" y="516"/>
    </contour>
  </outline>
</glyph>
<glyph name="exclamdown" format="2">
  <advance width="682"/>
  <unicode hex="00A1"/>
  <note>
exclamdown
</note>
  <outline>
    <contour>
      <point x="247" y="812" type="line"/>
      <point x="535" y="812" type="line"/>
      <point x="588" y="1082" type="line"/>
      <point x="300" y="1082" type="line"/>
    </contour>
    <contour>
      <point x="20" y="-327" type="line"/>
      <point x="314" y="-327" type="line"/>
      <point x="472" y="654" type="line"/>
      <point x="242" y="654" type="line"/>
    </contour>
  </outline>
</glyph>
<glyph name="cent" format="2">
  <advance width="1139"/>
  <unicode hex="00A2"/>
  <note>
cent
</note>
  <outline>
    <contour>
      <point x="549" y="328" type="qcurve" smooth="yes"/>
      <point x="371" y="328"/>
      <point x="371" y="562" type="qcurve" smooth="yes"/>
      <point x="371" y="615"/>
      <point x="394" y="730" type="qcurve"/>
      <point x="443" y="917"/>
      <point x="564" y="1064"/>
      <point x="671" y="1064" type="qcurve" smooth="yes"/>
      <point x="827" y="1064"/>
      <point x="838" y="873" type="qcurve"/>
      <point x="1122" y="896" type="line"/>
      <point x="1111" y="1039"/>
      <point x="941" y="1225"/>
      <point x="799" y="1248" type="qcurve"/>
      <point x="831" y="1409" type="line"/>
      <point x="669" y="1409" type="line"/>
      <point x="638" y="1255" type="line"/>
      <point x="418" y="1244"/>
      <point x="150" y="983"/>
      <point x="94" y="739" type="qcurve" smooth="yes"/>
      <point x="76" y="665"/>
      <point x="76" y="560" type="qcurve" smooth="yes"/>
      <point x="76" y="385"/>
      <point x="257" y="169"/>
      <point x="422" y="143" type="qcurve"/>
      <point x="390" y="-31" type="line"/>
      <point x="552" y="-31" type="line"/>
      <point x="584" y="136" type="line"/>
      <point x="760" y="147"/>
      <point x="991" y="317"/>
      <point x="1043" y="486" type="qcurve"/>
      <point x="772" y="536" type="line"/>
      <point x="740" y="433"/>
      <point x="632" y="328"/>
    </contour>
  </outline>
</glyph>
<glyph name="sterling" format="2">
  <advance width="1139"/>
  <unicode hex="00A3"/>
  <note>
sterling
</note>
  <outline>
    <contour>
      <point x="1104" y="363" type="qcurve"/>
      <point x="879" y="402" type="line"/>
      <point x="855" y="300"/>
      <point x="736" y="210"/>
      <point x="641" y="210" type="qcurve" smooth="yes"/>
      <point x="233" y="210" type="line"/>
      <point x="423" y="283"/>
      <point x="465" y="478" type="qcurve" smooth="yes"/>
      <point x="492" y="604" type="line"/>
      <point x="778" y="604" type="line"/>
      <point x="811" y="774" type="line"/>
      <point x="525" y="774" type="line"/>
      <point x="578" y="1042" type="line" smooth="yes"/>
      <point x="598" y="1147"/>
      <point x="682" y="1239"/>
      <point x="760" y="1239" type="qcurve" smooth="yes"/>
      <point x="831" y="1239"/>
      <point x="914" y="1166"/>
      <point x="929" y="1082" type="qcurve"/>
      <point x="1174" y="1130" type="line"/>
      <point x="1157" y="1271"/>
      <point x="948" y="1430"/>
      <point x="772" y="1430" type="qcurve" smooth="yes"/>
      <point x="575" y="1430"/>
      <point x="355" y="1241"/>
      <point x="316" y="1034" type="qcurve" smooth="yes"/>
      <point x="265" y="774" type="line"/>
      <point x="87" y="774" type="line"/>
      <point x="55" y="604" type="line"/>
      <point x="242" y="604" type="line"/>
      <point x="217" y="481" type="line" smooth="yes"/>
      <point x="196" y="376"/>
      <point x="82" y="243"/>
      <point x="-12" y="205" type="qcurve"/>
      <point x="-51" y="0" type="line"/>
      <point x="663" y="0" type="line" smooth="yes"/>
      <point x="834" y="0"/>
      <point x="1062" y="184"/>
    </contour>
  </outline>
</glyph>
<glyph name="currency" format="2">
  <advance width="1139"/>
  <unicode hex="00A4"/>
  <note>
currency
</note>
  <outline>
    <contour>
      <point x="149" y="684" type="qcurve" smooth="yes"/>
      <point x="149" y="564"/>
      <point x="207" y="465" type="qcurve"/>
      <point x="72" y="328" type="line"/>
      <point x="229" y="170" type="line"/>
      <point x="364" y="307" type="line"/>
      <point x="462" y="250"/>
      <point x="584" y="250" type="qcurve" smooth="yes"/>
      <point x="705" y="250"/>
      <point x="805" y="309" type="qcurve"/>
      <point x="938" y="174" type="line"/>
      <point x="1096" y="334" type="line"/>
      <point x="962" y="467" type="line"/>
      <point x="1020" y="566"/>
      <point x="1020" y="684" type="qcurve" smooth="yes"/>
      <point x="1020" y="804"/>
      <point x="960" y="903" type="qcurve"/>
      <point x="1096" y="1038" type="line"/>
      <point x="938" y="1196" type="line"/>
      <point x="803" y="1061" type="line"/>
      <point x="705" y="1120"/>
      <point x="584" y="1120" type="qcurve" smooth="yes"/>
      <point x="465" y="1120"/>
      <point x="364" y="1061" type="qcurve"/>
      <point x="233" y="1194" type="line"/>
      <point x="76" y="1038" type="line"/>
      <point x="209" y="905" type="line"/>
      <point x="149" y="804"/>
    </contour>
    <contour>
      <point x="375" y="686" type="qcurve" smooth="yes"/>
      <point x="375" y="773"/>
      <point x="498" y="895"/>
      <point x="584" y="895" type="qcurve" smooth="yes"/>
      <point x="670" y="895"/>
      <point x="792" y="772"/>
      <point x="792" y="686" type="qcurve" smooth="yes"/>
      <point x="792" y="601"/>
      <point x="669" y="477"/>
      <point x="584" y="477" type="qcurve" smooth="yes"/>
      <point x="497" y="477"/>
      <point x="375" y="600"/>
    </contour>
  </outline>
</glyph>
<glyph name="section" format="2">
  <advance width="1139"/>
  <unicode hex="00A7"/>
  <note>
section
</note>
  <outline>
    <contour>
      <point x="718" y="1427" type="qcurve" smooth="yes"/>
      <point x="467" y="1427"/>
      <point x="221" y="1265"/>
      <point x="221" y="1100" type="qcurve" smooth="yes"/>
      <point x="221" y="1022"/>
      <point x="295" y="900"/>
      <point x="366" y="861" type="qcurve"/>
      <point x="95" y="794"/>
      <point x="95" y="585" type="qcurve" smooth="yes"/>
      <point x="95" y="354"/>
      <point x="416" y="283" type="qcurve" smooth="yes"/>
      <point x="572" y="247"/>
      <point x="665" y="205"/>
      <point x="716" y="143"/>
      <point x="716" y="95" type="qcurve" smooth="yes"/>
      <point x="716" y="21"/>
      <point x="574" y="-59"/>
      <point x="438" y="-59" type="qcurve" smooth="yes"/>
      <point x="332" y="-59"/>
      <point x="216" y="13"/>
      <point x="202" y="96" type="qcurve"/>
      <point x="-42" y="59" type="line"/>
      <point x="-23" y="-90"/>
      <point x="205" y="-229"/>
      <point x="425" y="-229" type="qcurve" smooth="yes"/>
      <point x="685" y="-229"/>
      <point x="962" y="-40"/>
      <point x="962" y="142" type="qcurve" smooth="yes"/>
      <point x="962" y="217"/>
      <point x="893" y="333"/>
      <point x="830" y="368" type="qcurve"/>
      <point x="963" y="410"/>
      <point x="1079" y="556"/>
      <point x="1079" y="668" type="qcurve" smooth="yes"/>
      <point x="1079" y="881"/>
      <point x="722" y="963" type="qcurve" smooth="yes"/>
      <point x="613" y="989"/>
      <point x="521" y="1030"/>
      <point x="469" y="1086"/>
      <point x="469" y="1124" type="qcurve" smooth="yes"/>
      <point x="469" y="1257"/>
      <point x="697" y="1257" type="qcurve" smooth="yes"/>
      <point x="780" y="1257"/>
      <point x="892" y="1196"/>
      <point x="904" y="1128" type="qcurve"/>
      <point x="1148" y="1153" type="line"/>
      <point x="1141" y="1287"/>
      <point x="922" y="1427"/>
    </contour>
    <contour>
      <point x="571" y="780" type="qcurve"/>
      <point x="721" y="746"/>
      <point x="830" y="667"/>
      <point x="830" y="598" type="qcurve" smooth="yes"/>
      <point x="830" y="536"/>
      <point x="711" y="463"/>
      <point x="600" y="454" type="qcurve"/>
      <point x="482" y="482"/>
      <point x="395" y="525"/>
      <point x="346" y="584"/>
      <point x="346" y="626" type="qcurve" smooth="yes"/>
      <point x="346" y="696"/>
      <point x="468" y="774"/>
    </contour>
  </outline>
</glyph>
<glyph name="copyright" format="2">
  <advance width="1509"/>
  <unicode hex="00A9"/>
  <note>
copyright
</note>
  <outline>
    <contour>
      <point x="1508" y="707" type="qcurve" smooth="yes"/>
      <point x="1508" y="901"/>
      <point x="1316" y="1235"/>
      <point x="979" y="1430"/>
      <point x="785" y="1430" type="qcurve" smooth="yes"/>
      <point x="592" y="1430"/>
      <point x="256" y="1236"/>
      <point x="62" y="900"/>
      <point x="62" y="707" type="qcurve" smooth="yes"/>
      <point x="62" y="518"/>
      <point x="249" y="185"/>
      <point x="588" y="-16"/>
      <point x="785" y="-16" type="qcurve" smooth="yes"/>
      <point x="978" y="-16"/>
      <point x="1315" y="177"/>
      <point x="1508" y="514"/>
    </contour>
    <contour>
      <point x="1396" y="707" type="qcurve" smooth="yes"/>
      <point x="1396" y="544"/>
      <point x="1233" y="260"/>
      <point x="949" y="96"/>
      <point x="785" y="96" type="qcurve" smooth="yes"/>
      <point x="621" y="96"/>
      <point x="340" y="260"/>
      <point x="177" y="544"/>
      <point x="177" y="707" type="qcurve" smooth="yes"/>
      <point x="177" y="876"/>
      <point x="348" y="1159"/>
      <point x="628" y="1315"/>
      <point x="785" y="1315" type="qcurve" smooth="yes"/>
      <point x="948" y="1315"/>
      <point x="1232" y="1151"/>
      <point x="1396" y="870"/>
    </contour>
    <contour>
      <point x="798" y="285" type="qcurve" smooth="yes"/>
      <point x="922" y="285"/>
      <point x="1096" y="397"/>
      <point x="1154" y="522" type="qcurve"/>
      <point x="994" y="569" type="line"/>
      <point x="966" y="500"/>
      <point x="864" y="426"/>
      <point x="798" y="426" type="qcurve" smooth="yes"/>
      <point x="692" y="426"/>
      <point x="574" y="574"/>
      <point x="574" y="709" type="qcurve" smooth="yes"/>
      <point x="574" y="843"/>
      <point x="685" y="983"/>
      <point x="794" y="983" type="qcurve" smooth="yes"/>
      <point x="863" y="983"/>
      <point x="960" y="915"/>
      <point x="986" y="854" type="qcurve"/>
      <point x="1142" y="895" type="line"/>
      <point x="1094" y="1012"/>
      <point x="919" y="1124"/>
      <point x="789" y="1124" type="qcurve" smooth="yes"/>
      <point x="598" y="1124"/>
      <point x="394" y="912"/>
      <point x="394" y="709" type="qcurve" smooth="yes"/>
      <point x="394" y="507"/>
      <point x="605" y="285"/>
    </contour>
  </outline>
</glyph>
<glyph name="ordfeminine" format="2">
  <advance width="758"/>
  <unicode hex="00AA"/>
  <note>
ordfeminine
</note>
  <outline>
    <contour>
      <point x="679" y="697" type="qcurve" smooth="yes"/>
      <point x="755" y="697"/>
      <point x="790" y="709" type="qcurve"/>
      <point x="800" y="811" type="line"/>
      <point x="776" y="805"/>
      <point x="759" y="805" type="qcurve" smooth="yes"/>
      <point x="707" y="805"/>
      <point x="707" y="848" type="qcurve"/>
      <point x="712" y="895" type="line"/>
      <point x="771" y="1183"/>
      <point x="775" y="1214"/>
      <point x="775" y="1227" type="qcurve" smooth="yes"/>
      <point x="775" y="1325"/>
      <point x="650" y="1418"/>
      <point x="515" y="1418" type="qcurve" smooth="yes"/>
      <point x="377" y="1418"/>
      <point x="229" y="1315"/>
      <point x="209" y="1227" type="qcurve"/>
      <point x="380" y="1208" type="line"/>
      <point x="392" y="1253"/>
      <point x="452" y="1299"/>
      <point x="512" y="1299" type="qcurve" smooth="yes"/>
      <point x="594" y="1299"/>
      <point x="594" y="1217" type="qcurve" smooth="yes"/>
      <point x="594" y="1192"/>
      <point x="585" y="1156" type="qcurve" smooth="yes"/>
      <point x="580" y="1130" type="line"/>
      <point x="457" y="1128" type="line" smooth="yes"/>
      <point x="270" y="1125"/>
      <point x="104" y="1001"/>
      <point x="104" y="884" type="qcurve" smooth="yes"/>
      <point x="104" y="797"/>
      <point x="215" y="689"/>
      <point x="304" y="689" type="qcurve" smooth="yes"/>
      <point x="380" y="689"/>
      <point x="486" y="749"/>
      <point x="542" y="836" type="qcurve"/>
      <point x="545" y="836" type="line"/>
      <point x="542" y="795" type="line" smooth="yes"/>
      <point x="542" y="749"/>
      <point x="613" y="697"/>
    </contour>
    <contour>
      <point x="561" y="1029" type="line"/>
      <point x="545" y="969" type="line" smooth="yes"/>
      <point x="527" y="898"/>
      <point x="439" y="816"/>
      <point x="387" y="816" type="qcurve" smooth="yes"/>
      <point x="349" y="816"/>
      <point x="298" y="863"/>
      <point x="298" y="914" type="qcurve" smooth="yes"/>
      <point x="298" y="968"/>
      <point x="386" y="1025"/>
      <point x="463" y="1027" type="qcurve" smooth="yes"/>
    </contour>
  </outline>
</glyph>
<glyph name="registered" format="2">
  <advance width="1509"/>
  <unicode hex="00AE"/>
  <note>
registered
</note>
  <outline>
    <contour>
      <point x="1508" y="707" type="qcurve" smooth="yes"/>
      <point x="1508" y="901"/>
      <point x="1316" y="1235"/>
      <point x="979" y="1430"/>
      <point x="785" y="1430" type="qcurve" smooth="yes"/>
      <point x="592" y="1430"/>
      <point x="256" y="1236"/>
      <point x="62" y="900"/>
      <point x="62" y="707" type="qcurve" smooth="yes"/>
      <point x="62" y="518"/>
      <point x="249" y="185"/>
      <point x="588" y="-16"/>
      <point x="785" y="-16" type="qcurve" smooth="yes"/>
      <point x="978" y="-16"/>
      <point x="1315" y="177"/>
      <point x="1508" y="514"/>
    </contour>
    <contour>
      <point x="1396" y="707" type="qcurve" smooth="yes"/>
      <point x="1396" y="544"/>
      <point x="1233" y="260"/>
      <point x="949" y="96"/>
      <point x="785" y="96" type="qcurve" smooth="yes"/>
      <point x="621" y="96"/>
      <point x="340" y="260"/>
      <point x="177" y="544"/>
      <point x="177" y="707" type="qcurve" smooth="yes"/>
      <point x="177" y="876"/>
      <point x="348" y="1159"/>
      <point x="628" y="1315"/>
      <point x="785" y="1315" type="qcurve" smooth="yes"/>
      <point x="948" y="1315"/>
      <point x="1232" y="1151"/>
      <point x="1396" y="870"/>
    </contour>
    <contour>
      <point x="953" y="297" type="line"/>
      <point x="1154" y="297" type="line"/>
      <point x="941" y="633" type="line"/>
      <point x="1019" y="658"/>
      <point x="1115" y="776"/>
      <point x="1115" y="870" type="qcurve" smooth="yes"/>
      <point x="1115" y="983"/>
      <point x="963" y="1112"/>
      <point x="810" y="1112" type="qcurve" smooth="yes"/>
      <point x="480" y="1112" type="line"/>
      <point x="480" y="297" type="line"/>
      <point x="658" y="297" type="line"/>
      <point x="658" y="610" type="line"/>
      <point x="775" y="610" type="line"/>
    </contour>
    <contour>
      <point x="935" y="868" type="qcurve" smooth="yes"/>
      <point x="935" y="810"/>
      <point x="868" y="739"/>
      <point x="802" y="739" type="qcurve" smooth="yes"/>
      <point x="658" y="739" type="line"/>
      <point x="658" y="985" type="line"/>
      <point x="791" y="985" type="line" smooth="yes"/>
      <point x="860" y="985"/>
      <point x="935" y="925"/>
    </contour>
  </outline>
</glyph>
<glyph name="degree" format="2">
  <advance width="819"/>
  <unicode hex="00B0"/>
  <note>
degree
</note>
  <outline>
    <contour>
      <point x="830" y="1110" type="qcurve" smooth="yes"/>
      <point x="830" y="1240"/>
      <point x="644" y="1425"/>
      <point x="509" y="1425" type="qcurve" smooth="yes"/>
      <point x="421" y="1425"/>
      <point x="274" y="1342"/>
      <point x="189" y="1196"/>
      <point x="189" y="1110" type="qcurve" smooth="yes"/>
      <point x="189" y="977"/>
      <point x="377" y="795"/>
      <point x="509" y="795" type="qcurve" smooth="yes"/>
      <point x="643" y="795"/>
      <point x="830" y="980"/>
    </contour>
    <contour>
      <point x="672" y="1110" type="qcurve" smooth="yes"/>
      <point x="672" y="1040"/>
      <point x="576" y="942"/>
      <point x="509" y="942" type="qcurve" smooth="yes"/>
      <point x="441" y="942"/>
      <point x="343" y="1041"/>
      <point x="343" y="1110" type="qcurve" smooth="yes"/>
      <point x="343" y="1179"/>
      <point x="438" y="1276"/>
      <point x="509" y="1276" type="qcurve" smooth="yes"/>
      <point x="579" y="1276"/>
      <point x="672" y="1180"/>
    </contour>
  </outline>
</glyph>
<glyph name="twosuperior" format="2">
  <advance width="682"/>
  <unicode hex="00B2"/>
  <note>
twosuperior
</note>
  <outline>
    <contour>
      <point x="71" y="696" type="line"/>
      <point x="635" y="696" type="line"/>
      <point x="660" y="839" type="line"/>
      <point x="311" y="839" type="line"/>
      <point x="333" y="869"/>
      <point x="411" y="918"/>
      <point x="503" y="967"/>
      <point x="599" y="1021"/>
      <point x="676" y="1090"/>
      <point x="726" y="1179"/>
      <point x="726" y="1239" type="qcurve" smooth="yes"/>
      <point x="726" y="1325"/>
      <point x="594" y="1426"/>
      <point x="479" y="1426" type="qcurve" smooth="yes"/>
      <point x="356" y="1426"/>
      <point x="218" y="1335"/>
      <point x="187" y="1236" type="qcurve"/>
      <point x="349" y="1202" type="line"/>
      <point x="375" y="1299"/>
      <point x="463" y="1299" type="qcurve" smooth="yes"/>
      <point x="498" y="1299"/>
      <point x="542" y="1260"/>
      <point x="542" y="1231" type="qcurve" smooth="yes"/>
      <point x="542" y="1180"/>
      <point x="465" y="1095"/>
      <point x="373" y="1045" type="qcurve" smooth="yes"/>
      <point x="263" y="983"/>
      <point x="135" y="879"/>
      <point x="95" y="816" type="qcurve"/>
    </contour>
  </outline>
</glyph>
<glyph name="threesuperior" format="2">
  <advance width="682"/>
  <unicode hex="00B3"/>
  <note>
threesuperior
</note>
  <outline>
    <contour>
      <point x="496" y="915" type="qcurve" smooth="yes"/>
      <point x="496" y="864"/>
      <point x="431" y="811"/>
      <point x="385" y="811" type="qcurve" smooth="yes"/>
      <point x="294" y="811"/>
      <point x="277" y="910" type="qcurve"/>
      <point x="96" y="885" type="line"/>
      <point x="123" y="688"/>
      <point x="369" y="688" type="qcurve" smooth="yes"/>
      <point x="514" y="688"/>
      <point x="684" y="812"/>
      <point x="684" y="913" type="qcurve" smooth="yes"/>
      <point x="684" y="976"/>
      <point x="606" y="1053"/>
      <point x="542" y="1065" type="qcurve"/>
      <point x="543" y="1067" type="line"/>
      <point x="625" y="1074"/>
      <point x="726" y="1176"/>
      <point x="726" y="1247" type="qcurve" smooth="yes"/>
      <point x="726" y="1337"/>
      <point x="594" y="1426"/>
      <point x="476" y="1426" type="qcurve" smooth="yes"/>
      <point x="344" y="1426"/>
      <point x="204" y="1332"/>
      <point x="178" y="1234" type="qcurve"/>
      <point x="341" y="1210" type="line"/>
      <point x="366" y="1304"/>
      <point x="456" y="1304" type="qcurve" smooth="yes"/>
      <point x="539" y="1304"/>
      <point x="539" y="1221" type="qcurve" smooth="yes"/>
      <point x="539" y="1176"/>
      <point x="463" y="1126"/>
      <point x="401" y="1126" type="qcurve" smooth="yes"/>
      <point x="341" y="1126" type="line"/>
      <point x="317" y="1000" type="line"/>
      <point x="385" y="1000" type="line" smooth="yes"/>
      <point x="496" y="1000"/>
    </contour>
  </outline>
</glyph>
<glyph name="mu1" format="2">
  <advance width="1180"/>
  <unicode hex="00B5"/>
  <note>
mu1
</note>
  <outline>
    <contour>
      <point x="875" y="-20" type="qcurve" smooth="yes"/>
      <point x="957" y="-20"/>
      <point x="1063" y="5" type="qcurve"/>
      <point x="1079" y="198" type="line"/>
      <point x="1056" y="191"/>
      <point x="1033" y="191" type="qcurve" smooth="yes"/>
      <point x="983" y="191"/>
      <point x="983" y="260" type="qcurve" smooth="yes"/>
      <point x="983" y="280"/>
      <point x="992" y="325" type="qcurve" smooth="yes"/>
      <point x="1139" y="1082" type="line"/>
      <point x="858" y="1082" type="line"/>
      <point x="746" y="504" type="line" smooth="yes"/>
      <point x="720" y="353"/>
      <point x="600" y="193"/>
      <point x="519" y="193" type="qcurve" smooth="yes"/>
      <point x="394" y="193"/>
      <point x="394" y="358" type="qcurve" smooth="yes"/>
      <point x="396" y="418"/>
      <point x="407" y="477" type="qcurve" smooth="yes"/>
      <point x="525" y="1082" type="line"/>
      <point x="244" y="1082" type="line"/>
      <point x="-47" y="-425" type="line"/>
      <point x="233" y="-425" type="line"/>
      <point x="306" y="-45" type="line"/>
      <point x="322" y="70" type="line"/>
      <point x="328" y="70" type="line"/>
      <point x="343" y="29"/>
      <point x="420" y="-20"/>
      <point x="479" y="-20" type="qcurve" smooth="yes"/>
      <point x="560" y="-20"/>
      <point x="666" y="77"/>
      <point x="708" y="164" type="qcurve"/>
      <point x="712" y="164" type="line"/>
      <point x="710" y="143" type="line"/>
      <point x="710" y="122" type="line" smooth="yes"/>
      <point x="710" y="45"/>
      <point x="787" y="-20"/>
    </contour>
  </outline>
</glyph>
<glyph name="paragraph" format="2">
  <advance width="1139"/>
  <unicode hex="00B6"/>
  <note>
paragraph
</note>
  <outline>
    <contour>
      <point x="975" y="1266" type="line"/>
      <point x="1106" y="1266" type="line"/>
      <point x="1106" y="1409" type="line"/>
      <point x="477" y="1409" type="line" smooth="yes"/>
      <point x="303" y="1409"/>
      <point x="106" y="1218"/>
      <point x="106" y="1049" type="qcurve" smooth="yes"/>
      <point x="106" y="879"/>
      <point x="300" y="694"/>
      <point x="469" y="694" type="qcurve"/>
      <point x="469" y="-264" type="line"/>
      <point x="624" y="-264" type="line"/>
      <point x="624" y="1266" type="line"/>
      <point x="819" y="1266" type="line"/>
      <point x="819" y="-264" type="line"/>
      <point x="975" y="-264" type="line"/>
    </contour>
  </outline>
</glyph>
<glyph name="middot" format="2">
  <advance width="682"/>
  <unicode hex="00B7"/>
  <note>
middot
</note>
  <outline>
    <contour>
      <point x="189" y="531" type="line"/>
      <point x="477" y="531" type="line"/>
      <point x="536" y="836" type="line"/>
      <point x="248" y="836" type="line"/>
    </contour>
  </outline>
</glyph>
<glyph name="cedilla" format="2">
  <advance width="682"/>
  <unicode hex="00B8"/>
  <note>
cedilla
</note>
  <outline>
    <contour>
      <point x="194" y="-425" type="qcurve" smooth="yes"/>
      <point x="371" y="-425"/>
      <point x="539" y="-312"/>
      <point x="539" y="-215" type="qcurve" smooth="yes"/>
      <point x="539" y="-149"/>
      <point x="452" y="-84"/>
      <point x="382" y="-83" type="qcurve"/>
      <point x="430" y="0" type="line"/>
      <point x="289" y="0" type="line"/>
      <point x="191" y="-171" type="line"/>
      <point x="219" y="-169" type="line"/>
      <point x="244" y="-169" type="line" smooth="yes"/>
      <point x="354" y="-169"/>
      <point x="354" y="-232" type="qcurve" smooth="yes"/>
      <point x="354" y="-274"/>
      <point x="280" y="-309"/>
      <point x="199" y="-309" type="qcurve" smooth="yes"/>
      <point x="159" y="-309"/>
      <point x="117" y="-302" type="qcurve"/>
      <point x="88" y="-419" type="line"/>
      <point x="144" y="-425"/>
    </contour>
  </outline>
</glyph>
<glyph name="ordmasculine" format="2">
  <advance width="748"/>
  <unicode hex="00BA"/>
  <note>
ordmasculine
</note>
  <outline>
    <contour>
      <point x="828" y="1142" type="qcurve" smooth="yes"/>
      <point x="828" y="1271"/>
      <point x="668" y="1418"/>
      <point x="515" y="1418" type="qcurve" smooth="yes"/>
      <point x="330" y="1418"/>
      <point x="102" y="1177"/>
      <point x="102" y="980" type="qcurve" smooth="yes"/>
      <point x="102" y="846"/>
      <point x="267" y="689"/>
      <point x="409" y="689" type="qcurve" smooth="yes"/>
      <point x="595" y="689"/>
      <point x="828" y="939"/>
    </contour>
    <contour>
      <point x="625" y="1128" type="qcurve"/>
      <point x="620" y="1055"/>
      <point x="599" y="963"/>
      <point x="572" y="900"/>
      <point x="531" y="850"/>
      <point x="479" y="826"/>
      <point x="429" y="826" type="qcurve" smooth="yes"/>
      <point x="369" y="826"/>
      <point x="306" y="908"/>
      <point x="306" y="987" type="qcurve" smooth="yes"/>
      <point x="306" y="1039"/>
      <point x="332" y="1164"/>
      <point x="381" y="1242"/>
      <point x="449" y="1280"/>
      <point x="501" y="1280" type="qcurve" smooth="yes"/>
      <point x="562" y="1280"/>
      <point x="625" y="1201"/>
    </contour>
  </outline>
</glyph>
<glyph name="questiondown" format="2">
  <advance width="1251"/>
  <unicode hex="00BF"/>
  <note>
questiondown
</note>
  <outline>
    <contour>
      <point x="490" y="-348" type="qcurve" smooth="yes"/>
      <point x="934" y="-348"/>
      <point x="1051" y="34" type="qcurve"/>
      <point x="785" y="74" type="line"/>
      <point x="733" y="-119"/>
      <point x="506" y="-119" type="qcurve" smooth="yes"/>
      <point x="405" y="-119"/>
      <point x="309" y="-36"/>
      <point x="309" y="27" type="qcurve" smooth="yes"/>
      <point x="309" y="66"/>
      <point x="331" y="128"/>
      <point x="385" y="189"/>
      <point x="476" y="255"/>
      <point x="545" y="298" type="qcurve" smooth="yes"/>
      <point x="663" y="371"/>
      <point x="760" y="464"/>
      <point x="822" y="579"/>
      <point x="836" y="656" type="qcurve"/>
      <point x="569" y="656" type="line"/>
      <point x="564" y="616"/>
      <point x="531" y="555"/>
      <point x="477" y="502"/>
      <point x="394" y="447" type="qcurve"/>
      <point x="237" y="360"/>
      <point x="101" y="239"/>
      <point x="26" y="97"/>
      <point x="26" y="7" type="qcurve" smooth="yes"/>
      <point x="26" y="-160"/>
      <point x="276" y="-348"/>
    </contour>
    <contour>
      <point x="926" y="1082" type="line"/>
      <point x="637" y="1082" type="line"/>
      <point x="585" y="812" type="line"/>
      <point x="874" y="812" type="line"/>
    </contour>
  </outline>
</glyph>
<glyph name="AE" format="2">
  <advance width="2048"/>
  <unicode hex="00C6"/>
  <note>
AE
</note>
  <anchor x="1450" y="1540" name="gpos_18_mark_to_base__MARKCLASS_0_lookup_18"/>
  <anchor x="1920" y="1540" name="gpos_18_mark_to_base__MARKCLASS_1_lookup_18"/>
  <anchor x="1060" y="-130" name="gpos_18_mark_to_base__MARKCLASS_2_lookup_18"/>
  <anchor x="2048" y="1840" name="gpos_22_mark_to_base__MARKCLASS_0_lookup_22"/>
  <anchor x="2048" y="-380" name="gpos_22_mark_to_base__MARKCLASS_1_lookup_22"/>
  <anchor x="2048" y="1840" name="gpos_23_mark_to_base__MARKCLASS_0_lookup_23"/>
  <anchor x="0" y="1840" name="gpos_23_mark_to_base__MARKCLASS_1_lookup_23"/>
  <anchor x="1780" y="0" name="gpos_24_mark_to_base__MARKCLASS_0_lookup_24"/>
  <outline>
    <contour>
      <point x="457" y="360" type="line"/>
      <point x="907" y="360" type="line"/>
      <point x="837" y="0" type="line"/>
      <point x="1866" y="0" type="line"/>
      <point x="1910" y="227" type="line"/>
      <point x="1168" y="227" type="line"/>
      <point x="1241" y="606" type="line"/>
      <point x="1880" y="606" type="line"/>
      <point x="1923" y="827" type="line"/>
      <point x="1284" y="827" type="line"/>
      <point x="1353" y="1182" type="line"/>
      <point x="2054" y="1182" type="line"/>
      <point x="2099" y="1409" type="line"/>
      <point x="868" y="1409" type="line"/>
      <point x="-97" y="0" type="line"/>
      <point x="215" y="0" type="line"/>
    </contour>
    <contour>
      <point x="602" y="582" type="line"/>
      <point x="871" y="983" type="line"/>
      <point x="1007" y="1192" type="line"/>
      <point x="1068" y="1192" type="line"/>
      <point x="950" y="582" type="line"/>
    </contour>
  </outline>
</glyph>
<glyph name="Eth" format="2">
  <advance width="1479"/>
  <unicode hex="00D0"/>
  <note>
Eth
</note>
  <anchor x="850" y="1540" name="gpos_18_mark_to_base__MARKCLASS_0_lookup_18"/>
  <anchor x="1330" y="1540" name="gpos_18_mark_to_base__MARKCLASS_1_lookup_18"/>
  <anchor x="700" y="-130" name="gpos_18_mark_to_base__MARKCLASS_2_lookup_18"/>
  <anchor x="1479" y="1840" name="gpos_22_mark_to_base__MARKCLASS_0_lookup_22"/>
  <anchor x="1479" y="-380" name="gpos_22_mark_to_base__MARKCLASS_1_lookup_22"/>
  <anchor x="1479" y="1840" name="gpos_23_mark_to_base__MARKCLASS_0_lookup_23"/>
  <anchor x="0" y="1840" name="gpos_23_mark_to_base__MARKCLASS_1_lookup_23"/>
  <anchor x="670" y="0" name="gpos_24_mark_to_base__MARKCLASS_0_lookup_24"/>
  <outline>
    <contour>
      <point x="734" y="1409" type="curve"/>
      <point x="310" y="1409" type="line"/>
      <point x="194" y="813" type="line"/>
      <point x="65" y="813" type="line"/>
      <point x="23" y="594" type="line"/>
      <point x="151" y="594" type="line"/>
      <point x="36" y="0" type="line"/>
      <point x="614" y="0" type="line" smooth="yes"/>
      <point x="925" y="0"/>
      <point x="1190" y="149"/>
      <point x="1322" y="390" type="curve" smooth="yes"/>
      <point x="1388" y="511"/>
      <point x="1421" y="650"/>
      <point x="1421" y="807" type="curve" smooth="yes"/>
      <point x="1421" y="1196"/>
      <point x="1178" y="1409"/>
    </contour>
    <contour>
      <point x="375" y="228" type="line"/>
      <point x="446" y="594" type="line"/>
      <point x="801" y="594" type="line"/>
      <point x="845" y="813" type="line"/>
      <point x="488" y="813" type="line"/>
      <point x="560" y="1181" type="line"/>
      <point x="736" y="1181" type="line" smooth="yes"/>
      <point x="1000" y="1181"/>
      <point x="1145" y="1046"/>
      <point x="1145" y="794" type="curve" smooth="yes"/>
      <point x="1145" y="566"/>
      <point x="1053" y="388"/>
      <point x="889" y="297" type="curve" smooth="yes"/>
      <point x="806" y="251"/>
      <point x="712" y="228"/>
      <point x="605" y="228" type="curve" smooth="yes"/>
    </contour>
  </outline>
</glyph>
<glyph name="multiply" format="2">
  <advance width="1196"/>
  <unicode hex="00D7"/>
  <note>
multiply
</note>
  <outline>
    <contour>
      <point x="126" y="326" type="line"/>
      <point x="284" y="168" type="line"/>
      <point x="640" y="526" type="line"/>
      <point x="992" y="172" type="line"/>
      <point x="1150" y="332" type="line"/>
      <point x="798" y="682" type="line"/>
      <point x="1150" y="1036" type="line"/>
      <point x="992" y="1194" type="line"/>
      <point x="640" y="842" type="line"/>
      <point x="288" y="1192" type="line"/>
      <point x="130" y="1036" type="line"/>
      <point x="482" y="684" type="line"/>
    </contour>
  </outline>
</glyph>
<glyph name="Oslash" format="2">
  <advance width="1593"/>
  <unicode hex="00D8"/>
  <note>
Oslash
</note>
  <outline>
    <contour>
      <point x="928" y="1430" type="qcurve" smooth="yes"/>
      <point x="685" y="1430"/>
      <point x="311" y="1215"/>
      <point x="100" y="808"/>
      <point x="100" y="573" type="qcurve" smooth="yes"/>
      <point x="100" y="325"/>
      <point x="240" y="167" type="qcurve"/>
      <point x="35" y="-53" type="line"/>
      <point x="242" y="-53" type="line"/>
      <point x="357" y="71" type="line"/>
      <point x="505" y="-20"/>
      <point x="727" y="-20" type="qcurve" smooth="yes"/>
      <point x="970" y="-20"/>
      <point x="1348" y="197"/>
      <point x="1559" y="604"/>
      <point x="1559" y="851" type="qcurve" smooth="yes"/>
      <point x="1559" y="1079"/>
      <point x="1435" y="1227" type="qcurve"/>
      <point x="1658" y="1466" type="line"/>
      <point x="1455" y="1466" type="line"/>
      <point x="1324" y="1326" type="line"/>
      <point x="1165" y="1430"/>
    </contour>
    <contour>
      <point x="914" y="1197" type="qcurve" smooth="yes"/>
      <point x="1051" y="1197"/>
      <point x="1138" y="1127" type="qcurve"/>
      <point x="439" y="379" type="line"/>
      <point x="400" y="460"/>
      <point x="400" y="581" type="qcurve" smooth="yes"/>
      <point x="400" y="745"/>
      <point x="524" y="1047"/>
      <point x="752" y="1197"/>
    </contour>
    <contour>
      <point x="1255" y="827" type="qcurve" smooth="yes"/>
      <point x="1255" y="658"/>
      <point x="1130" y="362"/>
      <point x="902" y="212"/>
      <point x="741" y="212" type="qcurve" smooth="yes"/>
      <point x="617" y="212"/>
      <point x="538" y="264" type="qcurve"/>
      <point x="1226" y="1002" type="line"/>
      <point x="1255" y="927"/>
    </contour>
  </outline>
</glyph>
<glyph name="Thorn" format="2">
  <advance width="1366"/>
  <unicode hex="00DE"/>
  <note>
Thorn
</note>
  <outline>
    <contour>
      <point x="331" y="0" type="line"/>
      <point x="384" y="271" type="line"/>
      <point x="762" y="271" type="line" smooth="yes"/>
      <point x="1019" y="271"/>
      <point x="1326" y="537"/>
      <point x="1326" y="762" type="qcurve" smooth="yes"/>
      <point x="1326" y="960"/>
      <point x="1053" y="1184"/>
      <point x="807" y="1184" type="qcurve" smooth="yes"/>
      <point x="561" y="1184" type="line"/>
      <point x="605" y="1409" type="line"/>
      <point x="310" y="1409" type="line"/>
      <point x="36" y="0" type="line"/>
    </contour>
    <contour>
      <point x="428" y="498" type="line"/>
      <point x="517" y="955" type="line"/>
      <point x="779" y="955" type="line" smooth="yes"/>
      <point x="899" y="955"/>
      <point x="1027" y="848"/>
      <point x="1027" y="746" type="qcurve" smooth="yes"/>
      <point x="1027" y="614"/>
      <point x="872" y="498"/>
      <point x="717" y="498" type="qcurve" smooth="yes"/>
    </contour>
  </outline>
</glyph>
<glyph name="germandbls" format="2">
  <advance width="1251"/>
  <unicode hex="00DF"/>
  <note>
germandbls
</note>
  <outline>
    <contour>
      <point x="35" y="0" type="line"/>
      <point x="316" y="0" type="line"/>
      <point x="513" y="1021" type="line" smooth="yes"/>
      <point x="539" y="1153"/>
      <point x="672" y="1281"/>
      <point x="788" y="1281" type="qcurve" smooth="yes"/>
      <point x="858" y="1281"/>
      <point x="931" y="1221"/>
      <point x="931" y="1168" type="qcurve" smooth="yes"/>
      <point x="931" y="1110"/>
      <point x="863" y="1012"/>
      <point x="785" y="953" type="qcurve" smooth="yes"/>
      <point x="707" y="895"/>
      <point x="638" y="786"/>
      <point x="638" y="718" type="qcurve" smooth="yes"/>
      <point x="638" y="650"/>
      <point x="697" y="547"/>
      <point x="761" y="501" type="qcurve" smooth="yes"/>
      <point x="827" y="452"/>
      <point x="883" y="373"/>
      <point x="883" y="322" type="qcurve" smooth="yes"/>
      <point x="883" y="250"/>
      <point x="800" y="166"/>
      <point x="720" y="166" type="qcurve" smooth="yes"/>
      <point x="670" y="166"/>
      <point x="574" y="187"/>
      <point x="496" y="223" type="qcurve"/>
      <point x="428" y="37" type="line"/>
      <point x="546" y="-20"/>
      <point x="749" y="-20" type="qcurve" smooth="yes"/>
      <point x="931" y="-20"/>
      <point x="1152" y="178"/>
      <point x="1152" y="345" type="qcurve" smooth="yes"/>
      <point x="1152" y="507"/>
      <point x="1026" y="601" type="qcurve" smooth="yes"/>
      <point x="954" y="654"/>
      <point x="900" y="719"/>
      <point x="900" y="759" type="qcurve" smooth="yes"/>
      <point x="900" y="796"/>
      <point x="958" y="860"/>
      <point x="1044" y="924" type="qcurve" smooth="yes"/>
      <point x="1187" y="1031"/>
      <point x="1187" y="1196" type="qcurve" smooth="yes"/>
      <point x="1187" y="1330"/>
      <point x="978" y="1484"/>
      <point x="797" y="1484" type="qcurve" smooth="yes"/>
      <point x="562" y="1484"/>
      <point x="285" y="1264"/>
      <point x="235" y="1027" type="qcurve" smooth="yes"/>
    </contour>
  </outline>
</glyph>
<glyph name="ae" format="2">
  <advance width="1821"/>
  <unicode hex="00E6"/>
  <note>
ae
</note>
  <outline>
    <contour>
      <point x="1027" y="476" type="qcurve"/>
      <point x="1727" y="476" type="line"/>
      <point x="1751" y="592"/>
      <point x="1751" y="691" type="qcurve" smooth="yes"/>
      <point x="1751" y="887"/>
      <point x="1524" y="1102"/>
      <point x="1315" y="1102" type="qcurve" smooth="yes"/>
      <point x="1113" y="1102"/>
      <point x="973" y="989" type="qcurve"/>
      <point x="880" y="1102"/>
      <point x="673" y="1102" type="qcurve" smooth="yes"/>
      <point x="475" y="1102"/>
      <point x="236" y="952"/>
      <point x="202" y="808" type="qcurve"/>
      <point x="465" y="777" type="line"/>
      <point x="482" y="846"/>
      <point x="574" y="919"/>
      <point x="668" y="919" type="qcurve" smooth="yes"/>
      <point x="795" y="919"/>
      <point x="795" y="791" type="qcurve" smooth="yes"/>
      <point x="795" y="755"/>
      <point x="774" y="660" type="qcurve"/>
      <point x="583" y="660" type="line" smooth="yes"/>
      <point x="42" y="660"/>
      <point x="42" y="278" type="qcurve" smooth="yes"/>
      <point x="42" y="147"/>
      <point x="209" y="-20"/>
      <point x="349" y="-20" type="qcurve" smooth="yes"/>
      <point x="468" y="-20"/>
      <point x="615" y="24"/>
      <point x="740" y="119"/>
      <point x="791" y="199" type="qcurve"/>
      <point x="888" y="-20"/>
      <point x="1185" y="-20" type="qcurve" smooth="yes"/>
      <point x="1365" y="-20"/>
      <point x="1587" y="104"/>
      <point x="1662" y="263" type="qcurve"/>
      <point x="1417" y="337" type="line"/>
      <point x="1351" y="168"/>
      <point x="1204" y="168" type="qcurve" smooth="yes"/>
      <point x="1113" y="168"/>
      <point x="1020" y="281"/>
      <point x="1020" y="387" type="qcurve" smooth="yes"/>
      <point x="1020" y="438"/>
    </contour>
    <contour>
      <point x="743" y="500" type="line"/>
      <point x="721" y="411" type="line" smooth="yes"/>
      <point x="694" y="305"/>
      <point x="558" y="176"/>
      <point x="475" y="176" type="qcurve" smooth="yes"/>
      <point x="410" y="176"/>
      <point x="341" y="253"/>
      <point x="341" y="325" type="qcurve" smooth="yes"/>
      <point x="341" y="408"/>
      <point x="469" y="500"/>
      <point x="582" y="500" type="qcurve" smooth="yes"/>
    </contour>
    <contour>
      <point x="1491" y="663" type="line"/>
      <point x="1060" y="663" type="line"/>
      <point x="1088" y="791"/>
      <point x="1219" y="924"/>
      <point x="1315" y="924" type="qcurve" smooth="yes"/>
      <point x="1395" y="924"/>
      <point x="1494" y="826"/>
      <point x="1494" y="719" type="qcurve"/>
    </contour>
  </outline>
</glyph>
<glyph name="eth" format="2">
  <advance width="1251"/>
  <unicode hex="00F0"/>
  <note>
eth
</note>
  <outline>
    <contour>
      <point x="661" y="1305" type="qcurve"/>
      <point x="512" y="1248" type="line"/>
      <point x="479" y="1069" type="line"/>
      <point x="756" y="1180" type="line"/>
      <point x="849" y="1056"/>
      <point x="881" y="916" type="qcurve"/>
      <point x="844" y="942"/>
      <point x="710" y="979"/>
      <point x="649" y="979" type="qcurve" smooth="yes"/>
      <point x="376" y="979"/>
      <point x="58" y="668"/>
      <point x="58" y="410" type="qcurve" smooth="yes"/>
      <point x="58" y="211"/>
      <point x="308" y="-20"/>
      <point x="527" y="-20" type="qcurve" smooth="yes"/>
      <point x="830" y="-20"/>
      <point x="1172" y="374"/>
      <point x="1172" y="728" type="qcurve" smooth="yes"/>
      <point x="1172" y="889"/>
      <point x="1086" y="1146"/>
      <point x="991" y="1269" type="qcurve"/>
      <point x="1136" y="1323" type="line"/>
      <point x="1168" y="1499" type="line"/>
      <point x="873" y="1390" type="line"/>
      <point x="804" y="1446"/>
      <point x="732" y="1484" type="qcurve"/>
      <point x="439" y="1484" type="line"/>
      <point x="537" y="1426"/>
    </contour>
    <contour>
      <point x="658" y="787" type="qcurve" smooth="yes"/>
      <point x="762" y="787"/>
      <point x="868" y="691"/>
      <point x="868" y="606" type="qcurve" smooth="yes"/>
      <point x="868" y="488"/>
      <point x="787" y="287"/>
      <point x="642" y="172"/>
      <point x="555" y="172" type="qcurve" smooth="yes"/>
      <point x="462" y="172"/>
      <point x="352" y="293"/>
      <point x="352" y="395" type="qcurve" smooth="yes"/>
      <point x="352" y="571"/>
      <point x="520" y="787"/>
    </contour>
  </outline>
</glyph>
<glyph name="oslash" format="2">
  <advance width="1251"/>
  <unicode hex="00F8"/>
  <note>
oslash
</note>
  <outline>
    <contour>
      <point x="42" y="-38" type="line"/>
      <point x="233" y="-38" type="line"/>
      <point x="291" y="29" type="line"/>
      <point x="397" y="-20"/>
      <point x="535" y="-20" type="qcurve" smooth="yes"/>
      <point x="723" y="-20"/>
      <point x="1022" y="154"/>
      <point x="1185" y="476"/>
      <point x="1185" y="683" type="qcurve" smooth="yes"/>
      <point x="1185" y="855"/>
      <point x="1092" y="960" type="qcurve"/>
      <point x="1226" y="1116" type="line"/>
      <point x="1037" y="1116" type="line"/>
      <point x="977" y="1047" type="line"/>
      <point x="863" y="1101"/>
      <point x="704" y="1101" type="qcurve" smooth="yes"/>
      <point x="516" y="1101"/>
      <point x="222" y="930"/>
      <point x="63" y="620"/>
      <point x="63" y="419" type="qcurve" smooth="yes"/>
      <point x="63" y="228"/>
      <point x="173" y="114" type="qcurve"/>
    </contour>
    <contour>
      <point x="358" y="431" type="qcurve" smooth="yes"/>
      <point x="358" y="544"/>
      <point x="434" y="789"/>
      <point x="569" y="909"/>
      <point x="683" y="909" type="qcurve" smooth="yes"/>
      <point x="771" y="909"/>
      <point x="821" y="865" type="qcurve"/>
      <point x="366" y="338" type="line"/>
      <point x="358" y="381"/>
    </contour>
    <contour>
      <point x="891" y="662" type="qcurve" smooth="yes"/>
      <point x="884" y="515"/>
      <point x="809" y="285"/>
      <point x="678" y="172"/>
      <point x="566" y="172" type="qcurve" smooth="yes"/>
      <point x="492" y="172"/>
      <point x="443" y="206" type="qcurve"/>
      <point x="887" y="722" type="line"/>
      <point x="891" y="694"/>
    </contour>
  </outline>
</glyph>
<glyph name="thorn" format="2">
  <advance width="1251"/>
  <unicode hex="00FE"/>
  <note>
thorn
</note>
  <outline>
    <contour>
      <point x="728" y="907" type="qcurve" smooth="yes"/>
      <point x="812" y="907"/>
      <point x="889" y="800"/>
      <point x="889" y="694" type="qcurve" smooth="yes"/>
      <point x="889" y="585"/>
      <point x="821" y="301"/>
      <point x="703" y="173"/>
      <point x="601" y="173" type="qcurve" smooth="yes"/>
      <point x="506" y="173"/>
      <point x="400" y="294"/>
      <point x="400" y="401" type="qcurve" smooth="yes"/>
      <point x="400" y="461"/>
      <point x="417" y="554" type="qcurve" smooth="yes"/>
      <point x="451" y="731"/>
      <point x="602" y="907"/>
    </contour>
    <contour>
      <point x="487" y="913" type="line"/>
      <point x="503" y="965"/>
      <point x="521" y="1057" type="qcurve" smooth="yes"/>
      <point x="604" y="1484" type="line"/>
      <point x="323" y="1484" type="line"/>
      <point x="-46" y="-425" type="line"/>
      <point x="234" y="-425" type="line"/>
      <point x="315" y="-10" type="line"/>
      <point x="333" y="88" type="line"/>
      <point x="347" y="178" type="line"/>
      <point x="349" y="178" type="line"/>
      <point x="381" y="84"/>
      <point x="537" y="-20"/>
      <point x="662" y="-20" type="qcurve" smooth="yes"/>
      <point x="836" y="-20"/>
      <point x="1061" y="163"/>
      <point x="1185" y="546"/>
      <point x="1185" y="748" type="qcurve" smooth="yes"/>
      <point x="1185" y="913"/>
      <point x="1007" y="1102"/>
      <point x="848" y="1102" type="qcurve" smooth="yes"/>
      <point x="730" y="1102"/>
      <point x="565" y="1013"/>
      <point x="493" y="913" type="qcurve"/>
    </contour>
  </outline>
</glyph>
<glyph name="dcroat" format="2">
  <advance width="1251"/>
  <unicode hex="0111"/>
  <note>
dcroat
</note>
  <outline>
    <contour>
      <point x="749" y="160" type="qcurve"/>
      <point x="753" y="160" type="line"/>
      <point x="738" y="63"/>
      <point x="738" y="0" type="qcurve"/>
      <point x="1019" y="0" type="line"/>
      <point x="1028" y="119"/>
      <point x="1048" y="231" type="qcurve" smooth="yes"/>
      <point x="1227" y="1175" type="line"/>
      <point x="1358" y="1175" type="line"/>
      <point x="1391" y="1345" type="line"/>
      <point x="1259" y="1345" type="line"/>
      <point x="1286" y="1484" type="line"/>
      <point x="1009" y="1484" type="line"/>
      <point x="981" y="1345" type="line"/>
      <point x="691" y="1345" type="line"/>
      <point x="658" y="1175" type="line"/>
      <point x="947" y="1175" type="line"/>
      <point x="922" y="1053" type="line" smooth="yes"/>
      <point x="908" y="984"/>
      <point x="895" y="893"/>
      <point x="893" y="871" type="qcurve"/>
      <point x="887" y="871" type="line"/>
      <point x="858" y="964"/>
      <point x="698" y="1061"/>
      <point x="571" y="1061" type="qcurve" smooth="yes"/>
      <point x="413" y="1061"/>
      <point x="184" y="875"/>
      <point x="58" y="522"/>
      <point x="58" y="340" type="qcurve" smooth="yes"/>
      <point x="58" y="175"/>
      <point x="238" y="-21"/>
      <point x="392" y="-21" type="qcurve" smooth="yes"/>
      <point x="513" y="-21"/>
      <point x="678" y="67"/>
    </contour>
    <contour>
      <point x="515" y="172" type="qcurve" smooth="yes"/>
      <point x="355" y="172"/>
      <point x="355" y="382" type="qcurve" smooth="yes"/>
      <point x="355" y="489"/>
      <point x="423" y="745"/>
      <point x="551" y="874"/>
      <point x="648" y="874" type="qcurve" smooth="yes"/>
      <point x="742" y="874"/>
      <point x="836" y="771"/>
      <point x="836" y="656" type="qcurve" smooth="yes"/>
      <point x="836" y="549"/>
      <point x="759" y="297"/>
      <point x="621" y="172"/>
    </contour>
  </outline>
</glyph>
<glyph name="Hbar" format="2">
  <advance width="1479"/>
  <unicode hex="0126"/>
  <note>
Hbar
</note>
  <anchor x="880" y="1540" name="top"/>
  <anchor x="1330" y="1540" name="caronalt"/>
  <anchor x="730" y="-130" name="bottom"/>
  <anchor x="1479" y="1540" name="topdouble"/>
  <anchor x="1479" y="-380" name="bottomdouble"/>
  <anchor x="1479" y="1840" name="tophalfright"/>
  <anchor x="0" y="1840" name="tophalfleft"/>
  <anchor x="1100" y="0" name="ogonek"/>
  <outline>
    <contour>
      <point x="448" y="604" type="line"/>
      <point x="1074" y="604" type="line"/>
      <point x="956" y="0" type="line"/>
      <point x="1240" y="0" type="line"/>
      <point x="1443" y="1045" type="line"/>
      <point x="1566" y="1045" type="line"/>
      <point x="1599" y="1215" type="line"/>
      <point x="1476" y="1215" type="line"/>
      <point x="1514" y="1409" type="line"/>
      <point x="1230" y="1409" type="line"/>
      <point x="1192" y="1215" type="line"/>
      <point x="566" y="1215" type="line"/>
      <point x="604" y="1409" type="line"/>
      <point x="309" y="1409" type="line"/>
      <point x="271" y="1215" type="line"/>
      <point x="148" y="1215" type="line"/>
      <point x="115" y="1045" type="line"/>
      <point x="238" y="1045" type="line"/>
      <point x="36" y="0" type="line"/>
      <point x="330" y="0" type="line"/>
    </contour>
    <contour>
      <point x="495" y="848" type="line"/>
      <point x="533" y="1045" type="line"/>
      <point x="1159" y="1045" type="line"/>
      <point x="1121" y="848" type="line"/>
    </contour>
  </outline>
</glyph>
<glyph name="hbar" format="2">
  <advance width="1251"/>
  <unicode hex="0127"/>
  <note>
hbar
</note>
  <outline>
    <contour>
      <point x="601" y="1484" type="line"/>
      <point x="321" y="1484" type="line"/>
      <point x="294" y="1345" type="line"/>
      <point x="157" y="1345" type="line"/>
      <point x="124" y="1175" type="line"/>
      <point x="261" y="1175" type="line"/>
      <point x="35" y="0" type="line"/>
      <point x="317" y="0" type="line"/>
      <point x="427" y="566" type="line" smooth="yes"/>
      <point x="449" y="685"/>
      <point x="621" y="849"/>
      <point x="722" y="849" type="qcurve" smooth="yes"/>
      <point x="874" y="849"/>
      <point x="874" y="720" type="qcurve" smooth="yes"/>
      <point x="874" y="679"/>
      <point x="848" y="555" type="qcurve" smooth="yes"/>
      <point x="738" y="0" type="line"/>
      <point x="1017" y="0" type="line"/>
      <point x="1136" y="613" type="line" smooth="yes"/>
      <point x="1143" y="643"/>
      <point x="1157" y="752"/>
      <point x="1157" y="777" type="qcurve" smooth="yes"/>
      <point x="1157" y="915"/>
      <point x="1003" y="1061"/>
      <point x="851" y="1061" type="qcurve" smooth="yes"/>
      <point x="734" y="1061"/>
      <point x="553" y="961"/>
      <point x="478" y="857" type="qcurve"/>
      <point x="475" y="857" type="line"/>
      <point x="505" y="992"/>
      <point x="540" y="1175" type="qcurve"/>
      <point x="854" y="1175" type="line"/>
      <point x="887" y="1345" type="line"/>
      <point x="574" y="1345" type="line"/>
    </contour>
  </outline>
</glyph>
<glyph name="dotlessi" format="2">
  <advance width="569"/>
  <unicode hex="0131"/>
  <note>
dotlessi
</note>
  <anchor x="340" y="1200" name="top"/>
  <anchor x="420" y="1260" name="caronalt"/>
  <anchor x="280" y="-130" name="bottom"/>
  <anchor x="410" y="1100" name="rhotic"/>
  <anchor x="569" y="1540" name="topdouble"/>
  <anchor x="569" y="-380" name="bottomdouble"/>
  <anchor x="569" y="1840" name="tophalfright"/>
  <anchor x="0" y="1840" name="tophalfleft"/>
  <anchor x="210" y="0" name="ogonek"/>
  <outline>
    <contour>
      <point x="526" y="1082" type="line"/>
      <point x="245" y="1082" type="line"/>
      <point x="35" y="0" type="line"/>
      <point x="315" y="0" type="line"/>
    </contour>
  </outline>
</glyph>
<glyph name="kgreenlandic" format="2">
  <advance width="1139"/>
  <unicode hex="0138"/>
  <note>
kgreenlandic
</note>
  <anchor x="700" y="1200" name="gpos_18_mark_to_base__MARKCLASS_0_lookup_18"/>
  <anchor x="1120" y="1260" name="gpos_18_mark_to_base__MARKCLASS_1_lookup_18"/>
  <anchor x="580" y="-130" name="gpos_18_mark_to_base__MARKCLASS_2_lookup_18"/>
  <anchor x="1139" y="1540" name="gpos_22_mark_to_base__MARKCLASS_0_lookup_22"/>
  <anchor x="1139" y="-380" name="gpos_22_mark_to_base__MARKCLASS_1_lookup_22"/>
  <anchor x="1139" y="1840" name="gpos_23_mark_to_base__MARKCLASS_0_lookup_23"/>
  <anchor x="0" y="1840" name="gpos_23_mark_to_base__MARKCLASS_1_lookup_23"/>
  <anchor x="900" y="0" name="gpos_24_mark_to_base__MARKCLASS_0_lookup_24"/>
  <outline>
    <contour>
      <point x="400" y="422" type="line"/>
      <point x="540" y="497" type="line"/>
      <point x="728" y="0" type="line"/>
      <point x="1026" y="0" type="line"/>
      <point x="751" y="660" type="line"/>
      <point x="1224" y="1082" type="line"/>
      <point x="902" y="1082" type="line"/>
      <point x="595" y="786" type="line"/>
      <point x="438" y="634" type="line"/>
      <point x="526" y="1082" type="line"/>
      <point x="245" y="1082" type="line"/>
      <point x="35" y="0" type="line"/>
      <point x="315" y="0" type="line"/>
    </contour>
  </outline>
</glyph>
<glyph name="Eng" format="2">
  <advance width="1481"/>
  <unicode hex="014A"/>
  <note>
Eng
</note>
  <outline>
    <contour>
      <point x="844" y="-20" type="qcurve" smooth="yes"/>
      <point x="998" y="-20"/>
      <point x="1201" y="79"/>
      <point x="1323" y="302"/>
      <point x="1369" y="542" type="qcurve" smooth="yes"/>
      <point x="1436" y="888" type="line" smooth="yes"/>
      <point x="1456" y="995"/>
      <point x="1456" y="1065" type="qcurve" smooth="yes"/>
      <point x="1456" y="1429"/>
      <point x="1057" y="1429" type="qcurve" smooth="yes"/>
      <point x="907" y="1429"/>
      <point x="651" y="1291"/>
      <point x="556" y="1158" type="qcurve"/>
      <point x="552" y="1158" type="line"/>
      <point x="585" y="1342"/>
      <point x="594" y="1409" type="qcurve"/>
      <point x="304" y="1409" type="line"/>
      <point x="247" y="1092" type="line"/>
      <point x="36" y="0" type="line"/>
      <point x="330" y="0" type="line"/>
      <point x="504" y="891" type="line" smooth="yes"/>
      <point x="520" y="972"/>
      <point x="649" y="1118"/>
      <point x="835" y="1200"/>
      <point x="931" y="1200" type="qcurve" smooth="yes"/>
      <point x="1051" y="1200"/>
      <point x="1168" y="1104"/>
      <point x="1168" y="1018" type="qcurve" smooth="yes"/>
      <point x="1168" y="960"/>
      <point x="1143" y="841" type="qcurve" smooth="yes"/>
      <point x="1087" y="553" type="line" smooth="yes"/>
      <point x="1047" y="347"/>
      <point x="958" y="212"/>
      <point x="874" y="212" type="qcurve" smooth="yes"/>
      <point x="823" y="212"/>
      <point x="744" y="269"/>
      <point x="708" y="331" type="qcurve"/>
      <point x="461" y="214" type="line"/>
      <point x="576" y="-20"/>
    </contour>
  </outline>
</glyph>
<glyph name="eng" format="2">
  <advance width="1251"/>
  <unicode hex="014B"/>
  <note>
eng
</note>
  <anchor x="720" y="1200" name="gpos_18_mark_to_base__MARKCLASS_0_lookup_18"/>
  <anchor x="1120" y="1260" name="gpos_18_mark_to_base__MARKCLASS_1_lookup_18"/>
  <anchor x="620" y="-540" name="gpos_18_mark_to_base__MARKCLASS_2_lookup_18"/>
  <anchor x="1251" y="1540" name="gpos_22_mark_to_base__MARKCLASS_0_lookup_22"/>
  <anchor x="1251" y="-380" name="gpos_22_mark_to_base__MARKCLASS_1_lookup_22"/>
  <anchor x="1251" y="1840" name="gpos_23_mark_to_base__MARKCLASS_0_lookup_23"/>
  <anchor x="0" y="1840" name="gpos_23_mark_to_base__MARKCLASS_1_lookup_23"/>
  <anchor x="810" y="-400" name="gpos_24_mark_to_base__MARKCLASS_0_lookup_24"/>
  <outline>
    <contour>
      <point x="649" y="-425" type="curve"/>
      <point x="841" y="-425"/>
      <point x="960" y="-312"/>
      <point x="993" y="-128" type="curve" smooth="yes"/>
      <point x="1144" y="653" type="line" smooth="yes"/>
      <point x="1153" y="693"/>
      <point x="1165" y="784"/>
      <point x="1165" y="817" type="curve" smooth="yes"/>
      <point x="1165" y="1001"/>
      <point x="1062" y="1101"/>
      <point x="859" y="1101" type="curve" smooth="yes"/>
      <point x="703" y="1101"/>
      <point x="586" y="1036"/>
      <point x="486" y="897" type="curve"/>
      <point x="483" y="897" type="line"/>
      <point x="490" y="930"/>
      <point x="507" y="1058"/>
      <point x="507" y="1082" type="curve"/>
      <point x="239" y="1082" type="line"/>
      <point x="224" y="981"/>
      <point x="212" y="904"/>
      <point x="201" y="851" type="curve" smooth="yes"/>
      <point x="35" y="0" type="line"/>
      <point x="317" y="0" type="line"/>
      <point x="435" y="606" type="line" smooth="yes"/>
      <point x="464" y="765"/>
      <point x="595" y="889"/>
      <point x="730" y="889" type="curve" smooth="yes"/>
      <point x="831" y="889"/>
      <point x="882" y="846"/>
      <point x="882" y="760" type="curve" smooth="yes"/>
      <point x="882" y="733"/>
      <point x="873" y="678"/>
      <point x="856" y="595" type="curve" smooth="yes"/>
      <point x="725" y="-60" type="line" smooth="yes"/>
      <point x="701" y="-181"/>
      <point x="666" y="-222"/>
      <point x="577" y="-222" type="curve"/>
      <point x="558" y="-221"/>
      <point x="538" y="-219"/>
      <point x="519" y="-218" type="curve"/>
      <point x="483" y="-406" type="line"/>
      <point x="530" y="-419"/>
      <point x="586" y="-425"/>
    </contour>
  </outline>
</glyph>
<glyph name="OE" format="2">
  <advance width="2048"/>
  <unicode hex="0152"/>
  <note>
OE
</note>
  <outline>
    <contour>
      <point x="917" y="0" type="qcurve"/>
      <point x="1866" y="0" type="line"/>
      <point x="1911" y="231" type="line"/>
      <point x="1203" y="231" type="line"/>
      <point x="1276" y="606" type="line"/>
      <point x="1882" y="606" type="line"/>
      <point x="1925" y="827" type="line"/>
      <point x="1319" y="827" type="line"/>
      <point x="1388" y="1182" type="line"/>
      <point x="2055" y="1182" type="line"/>
      <point x="2099" y="1409" type="line"/>
      <point x="1150" y="1409" type="line"/>
      <point x="1087" y="1415" type="line" smooth="yes"/>
      <point x="1028" y="1420"/>
      <point x="949" y="1420" type="qcurve" smooth="yes"/>
      <point x="765" y="1420"/>
      <point x="449" y="1295"/>
      <point x="220" y="1058"/>
      <point x="103" y="743"/>
      <point x="103" y="573" type="qcurve" smooth="yes"/>
      <point x="103" y="295"/>
      <point x="420" y="-10"/>
      <point x="706" y="-10" type="qcurve" smooth="yes"/>
      <point x="854" y="-10"/>
    </contour>
    <contour>
      <point x="736" y="222" type="qcurve" smooth="yes"/>
      <point x="575" y="222"/>
      <point x="403" y="399"/>
      <point x="403" y="563" type="qcurve" smooth="yes"/>
      <point x="403" y="690"/>
      <point x="477" y="935"/>
      <point x="617" y="1105"/>
      <point x="812" y="1188"/>
      <point x="939" y="1188" type="qcurve" smooth="yes"/>
      <point x="960" y="1188"/>
      <point x="1058" y="1179"/>
      <point x="1089" y="1169" type="qcurve"/>
      <point x="909" y="242" type="line"/>
      <point x="838" y="222"/>
    </contour>
  </outline>
</glyph>
<glyph name="oe" format="2">
  <advance width="1933"/>
  <unicode hex="0153"/>
  <note>
oe
</note>
  <outline>
    <contour>
      <point x="1163" y="476" type="qcurve"/>
      <point x="1863" y="476" type="line"/>
      <point x="1887" y="592"/>
      <point x="1887" y="691" type="qcurve" smooth="yes"/>
      <point x="1887" y="887"/>
      <point x="1660" y="1102"/>
      <point x="1451" y="1102" type="qcurve" smooth="yes"/>
      <point x="1220" y="1102"/>
      <point x="1068" y="960" type="qcurve"/>
      <point x="998" y="1034"/>
      <point x="824" y="1101"/>
      <point x="699" y="1101" type="qcurve" smooth="yes"/>
      <point x="511" y="1101"/>
      <point x="217" y="930"/>
      <point x="58" y="620"/>
      <point x="58" y="419" type="qcurve" smooth="yes"/>
      <point x="58" y="215"/>
      <point x="312" y="-20"/>
      <point x="530" y="-20" type="qcurve" smooth="yes"/>
      <point x="668" y="-20"/>
      <point x="887" y="57"/>
      <point x="955" y="132" type="qcurve"/>
      <point x="1074" y="-20"/>
      <point x="1321" y="-20" type="qcurve" smooth="yes"/>
      <point x="1501" y="-20"/>
      <point x="1723" y="104"/>
      <point x="1798" y="263" type="qcurve"/>
      <point x="1553" y="337" type="line"/>
      <point x="1487" y="168"/>
      <point x="1340" y="168" type="qcurve" smooth="yes"/>
      <point x="1249" y="168"/>
      <point x="1156" y="281"/>
      <point x="1156" y="387" type="qcurve" smooth="yes"/>
      <point x="1156" y="438"/>
    </contour>
    <contour>
      <point x="886" y="662" type="qcurve"/>
      <point x="880" y="523"/>
      <point x="806" y="289"/>
      <point x="676" y="172"/>
      <point x="562" y="172" type="qcurve" smooth="yes"/>
      <point x="457" y="172"/>
      <point x="353" y="307"/>
      <point x="353" y="431" type="qcurve" smooth="yes"/>
      <point x="353" y="544"/>
      <point x="429" y="789"/>
      <point x="564" y="909"/>
      <point x="678" y="909" type="qcurve" smooth="yes"/>
      <point x="886" y="909"/>
    </contour>
    <contour>
      <point x="1627" y="663" type="line"/>
      <point x="1196" y="663" type="line"/>
      <point x="1224" y="791"/>
      <point x="1355" y="924"/>
      <point x="1451" y="924" type="qcurve" smooth="yes"/>
      <point x="1531" y="924"/>
      <point x="1630" y="826"/>
      <point x="1630" y="719" type="qcurve"/>
    </contour>
  </outline>
</glyph>
<glyph name="Tbar" format="2">
  <advance width="1251"/>
  <unicode hex="0166"/>
  <note>
Tbar
</note>
  <anchor x="750" y="1540" name="gpos_18_mark_to_base__MARKCLASS_0_lookup_18"/>
  <anchor x="1240" y="1540" name="gpos_18_mark_to_base__MARKCLASS_1_lookup_18"/>
  <anchor x="620" y="-130" name="gpos_18_mark_to_base__MARKCLASS_2_lookup_18"/>
  <anchor x="1251" y="1540" name="gpos_22_mark_to_base__MARKCLASS_0_lookup_22"/>
  <anchor x="1251" y="-380" name="gpos_22_mark_to_base__MARKCLASS_1_lookup_22"/>
  <anchor x="1251" y="1840" name="gpos_23_mark_to_base__MARKCLASS_0_lookup_23"/>
  <anchor x="0" y="1840" name="gpos_23_mark_to_base__MARKCLASS_1_lookup_23"/>
  <anchor x="550" y="0" name="gpos_24_mark_to_base__MARKCLASS_0_lookup_24"/>
  <outline>
    <contour>
      <point x="787" y="626" type="line"/>
      <point x="1015" y="626" type="line"/>
      <point x="1052" y="816" type="line"/>
      <point x="824" y="816" type="line"/>
      <point x="895" y="1181" type="line"/>
      <point x="1351" y="1181" type="line"/>
      <point x="1395" y="1409" type="line"/>
      <point x="189" y="1409" type="line"/>
      <point x="145" y="1181" type="line"/>
      <point x="600" y="1181" type="line"/>
      <point x="529" y="816" type="line"/>
      <point x="302" y="816" type="line"/>
      <point x="265" y="626" type="line"/>
      <point x="492" y="626" type="line"/>
      <point x="370" y="0" type="line"/>
      <point x="665" y="0" type="line"/>
    </contour>
  </outline>
</glyph>
<glyph name="tbar" format="2">
  <advance width="682"/>
  <unicode hex="0167"/>
  <note>
tbar
</note>
  <outline>
    <contour>
      <point x="376" y="-16" type="qcurve" smooth="yes"/>
      <point x="479" y="-16"/>
      <point x="560" y="8" type="qcurve"/>
      <point x="592" y="190" type="line"/>
      <point x="516" y="177"/>
      <point x="484" y="177" type="qcurve" smooth="yes"/>
      <point x="444" y="177"/>
      <point x="397" y="222"/>
      <point x="397" y="268" type="qcurve" smooth="yes"/>
      <point x="397" y="301"/>
      <point x="408" y="357" type="qcurve" smooth="yes"/>
      <point x="430" y="473" type="line"/>
      <point x="615" y="473" type="line"/>
      <point x="652" y="663" type="line"/>
      <point x="467" y="663" type="line"/>
      <point x="512" y="892" type="line"/>
      <point x="717" y="892" type="line"/>
      <point x="752" y="1082" type="line"/>
      <point x="550" y="1082" type="line"/>
      <point x="598" y="1336" type="line"/>
      <point x="422" y="1336" type="line"/>
      <point x="285" y="1082" type="line"/>
      <point x="123" y="1082" type="line"/>
      <point x="86" y="892" type="line"/>
      <point x="234" y="892" type="line"/>
      <point x="189" y="663" type="line"/>
      <point x="62" y="663" type="line"/>
      <point x="26" y="473" type="line"/>
      <point x="152" y="473" type="line"/>
      <point x="132" y="366" type="line" smooth="yes"/>
      <point x="116" y="280"/>
      <point x="116" y="209" type="qcurve" smooth="yes"/>
      <point x="116" y="101"/>
      <point x="252" y="-16"/>
    </contour>
  </outline>
</glyph>
<glyph name="longs" format="2">
  <advance width="569"/>
  <unicode hex="017F"/>
  <note>
longs
</note>
  <anchor x="520" y="1580" name="gpos_18_mark_to_base__MARKCLASS_0_lookup_18"/>
  <anchor x="630" y="1540" name="gpos_18_mark_to_base__MARKCLASS_1_lookup_18"/>
  <anchor x="280" y="-130" name="gpos_18_mark_to_base__MARKCLASS_2_lookup_18"/>
  <anchor x="569" y="1540" name="gpos_22_mark_to_base__MARKCLASS_0_lookup_22"/>
  <anchor x="569" y="-380" name="gpos_22_mark_to_base__MARKCLASS_1_lookup_22"/>
  <anchor x="569" y="1840" name="gpos_23_mark_to_base__MARKCLASS_0_lookup_23"/>
  <anchor x="0" y="1840" name="gpos_23_mark_to_base__MARKCLASS_1_lookup_23"/>
  <anchor x="220" y="0" name="gpos_24_mark_to_base__MARKCLASS_0_lookup_24"/>
  <outline>
    <contour>
      <point x="35" y="0" type="line"/>
      <point x="315" y="0" type="line"/>
      <point x="542" y="1167" type="line" smooth="yes"/>
      <point x="551" y="1211"/>
      <point x="564" y="1244"/>
      <point x="586" y="1265" type="curve" smooth="yes"/>
      <point x="608" y="1286"/>
      <point x="638" y="1296"/>
      <point x="682" y="1296" type="curve" smooth="yes"/>
      <point x="710" y="1296"/>
      <point x="763" y="1289"/>
      <point x="778" y="1286" type="curve"/>
      <point x="814" y="1467" type="line"/>
      <point x="759" y="1478"/>
      <point x="708" y="1484"/>
      <point x="659" y="1484" type="curve"/>
      <point x="430" y="1484"/>
      <point x="308" y="1402"/>
      <point x="268" y="1195" type="curve" smooth="yes"/>
    </contour>
  </outline>
</glyph>
<glyph name="uni0180" format="2">
  <advance width="1251"/>
  <unicode hex="0180"/>
  <note>
uni0180
</note>
  <outline>
    <contour>
      <point x="799" y="1175" type="line"/>
      <point x="827" y="1345" type="line"/>
      <point x="584" y="1345" type="line"/>
      <point x="611" y="1484" type="line"/>
      <point x="330" y="1484" type="line"/>
      <point x="303" y="1345" type="line"/>
      <point x="161" y="1345" type="line"/>
      <point x="128" y="1175" type="line"/>
      <point x="269" y="1175" type="line"/>
      <point x="84" y="223" type="line" smooth="yes"/>
      <point x="43" y="25"/>
      <point x="35" y="0" type="qcurve"/>
      <point x="306" y="0" type="line"/>
      <point x="307" y="4"/>
      <point x="318" y="41"/>
      <point x="333" y="93"/>
      <point x="348" y="152"/>
      <point x="354" y="178" type="qcurve"/>
      <point x="356" y="178" type="line"/>
      <point x="388" y="84"/>
      <point x="544" y="-20"/>
      <point x="669" y="-20" type="qcurve" smooth="yes"/>
      <point x="829" y="-20"/>
      <point x="1058" y="148"/>
      <point x="1185" y="487"/>
      <point x="1185" y="708" type="qcurve" smooth="yes"/>
      <point x="1185" y="873"/>
      <point x="1007" y="1062"/>
      <point x="848" y="1062" type="qcurve" smooth="yes"/>
      <point x="739" y="1062"/>
      <point x="555" y="967"/>
      <point x="492" y="873" type="qcurve"/>
      <point x="488" y="873" type="line"/>
      <point x="515" y="993"/>
      <point x="551" y="1175" type="qcurve"/>
    </contour>
    <contour>
      <point x="728" y="867" type="qcurve" smooth="yes"/>
      <point x="810" y="867"/>
      <point x="892" y="765"/>
      <point x="892" y="654" type="qcurve" smooth="yes"/>
      <point x="892" y="431"/>
      <point x="741" y="173"/>
      <point x="608" y="173" type="qcurve" smooth="yes"/>
      <point x="513" y="173"/>
      <point x="407" y="294"/>
      <point x="407" y="401" type="qcurve" smooth="yes"/>
      <point x="407" y="478"/>
      <point x="451" y="681"/>
      <point x="528" y="808"/>
      <point x="634" y="867"/>
    </contour>
  </outline>
</glyph>
<glyph name="uni0181" format="2">
  <advance width="1630"/>
  <unicode hex="0181"/>
  <note>
uni0181
</note>
  <outline>
    <contour>
      <point x="475" y="1195" type="line"/>
      <point x="243" y="0" type="line"/>
      <point x="948" y="0" type="line" smooth="yes"/>
      <point x="1262" y="0"/>
      <point x="1575" y="220"/>
      <point x="1575" y="431" type="qcurve" smooth="yes"/>
      <point x="1575" y="550"/>
      <point x="1422" y="715"/>
      <point x="1286" y="738" type="qcurve"/>
      <point x="1445" y="771"/>
      <point x="1610" y="946"/>
      <point x="1610" y="1083" type="qcurve" smooth="yes"/>
      <point x="1610" y="1244"/>
      <point x="1352" y="1409"/>
      <point x="1101" y="1409" type="qcurve" smooth="yes"/>
      <point x="476" y="1409" type="line" smooth="yes"/>
      <point x="278" y="1409"/>
      <point x="89" y="1220"/>
      <point x="89" y="1021" type="qcurve" smooth="yes"/>
      <point x="89" y="972"/>
      <point x="94" y="934" type="qcurve"/>
      <point x="319" y="951" type="line"/>
      <point x="307" y="1011"/>
      <point x="307" y="1048" type="qcurve" smooth="yes"/>
      <point x="307" y="1119"/>
      <point x="383" y="1195"/>
      <point x="455" y="1195" type="qcurve" smooth="yes"/>
    </contour>
    <contour>
      <point x="580" y="219" type="line"/>
      <point x="659" y="623" type="line"/>
      <point x="989" y="623" type="line" smooth="yes"/>
      <point x="1143" y="623"/>
      <point x="1279" y="527"/>
      <point x="1279" y="437" type="qcurve" smooth="yes"/>
      <point x="1279" y="320"/>
      <point x="1117" y="219"/>
      <point x="908" y="219" type="qcurve" smooth="yes"/>
    </contour>
    <contour>
      <point x="701" y="841" type="line"/>
      <point x="768" y="1190" type="line"/>
      <point x="1069" y="1190" type="line" smooth="yes"/>
      <point x="1203" y="1190"/>
      <point x="1317" y="1118"/>
      <point x="1317" y="1038" type="qcurve" smooth="yes"/>
      <point x="1317" y="933"/>
      <point x="1170" y="841"/>
      <point x="995" y="841" type="qcurve" smooth="yes"/>
    </contour>
  </outline>
</glyph>
<glyph name="uni0182" format="2">
  <advance width="1450"/>
  <unicode hex="0182"/>
  <note>
uni0182
</note>
  <anchor x="820" y="1540" name="gpos_18_mark_to_base__MARKCLASS_0_lookup_18"/>
  <anchor x="1280" y="1540" name="gpos_18_mark_to_base__MARKCLASS_1_lookup_18"/>
  <anchor x="680" y="-130" name="gpos_18_mark_to_base__MARKCLASS_2_lookup_18"/>
  <anchor x="1472" y="1540" name="gpos_22_mark_to_base__MARKCLASS_0_lookup_22"/>
  <anchor x="1472" y="-380" name="gpos_22_mark_to_base__MARKCLASS_1_lookup_22"/>
  <anchor x="1472" y="1840" name="gpos_23_mark_to_base__MARKCLASS_0_lookup_23"/>
  <anchor x="0" y="1840" name="gpos_23_mark_to_base__MARKCLASS_1_lookup_23"/>
  <anchor x="760" y="0" name="gpos_24_mark_to_base__MARKCLASS_0_lookup_24"/>
  <outline>
    <contour>
      <point x="309" y="1409" type="line"/>
      <point x="36" y="0" type="line"/>
      <point x="756" y="0" type="line" smooth="yes"/>
      <point x="1143" y="0"/>
      <point x="1370" y="167"/>
      <point x="1370" y="462" type="curve" smooth="yes"/>
      <point x="1370" y="701"/>
      <point x="1178" y="848"/>
      <point x="869" y="848" type="curve" smooth="yes"/>
      <point x="495" y="848" type="line"/>
      <point x="560" y="1182" type="line"/>
      <point x="1324" y="1182" type="line"/>
      <point x="1368" y="1409" type="line"/>
    </contour>
    <contour>
      <point x="375" y="230" type="line"/>
      <point x="451" y="621" type="line"/>
      <point x="805" y="621" type="line" smooth="yes"/>
      <point x="988" y="621"/>
      <point x="1066" y="560"/>
      <point x="1066" y="441" type="curve" smooth="yes"/>
      <point x="1066" y="306"/>
      <point x="959" y="230"/>
      <point x="766" y="230" type="curve" smooth="yes"/>
    </contour>
  </outline>
</glyph>
<glyph name="uni0183" format="2">
  <advance width="1251"/>
  <unicode hex="0183"/>
  <note>
uni0183
</note>
  <outline>
    <contour>
      <point x="855" y="1102" type="qcurve" smooth="yes"/>
      <point x="746" y="1102"/>
      <point x="562" y="1007"/>
      <point x="499" y="913" type="qcurve"/>
      <point x="495" y="913" type="line"/>
      <point x="511" y="982"/>
      <point x="569" y="1271" type="qcurve"/>
      <point x="1075" y="1271" type="line"/>
      <point x="1111" y="1484" type="line"/>
      <point x="330" y="1484" type="line"/>
      <point x="79" y="199"/>
      <point x="41" y="17"/>
      <point x="35" y="0" type="qcurve"/>
      <point x="306" y="0" type="line"/>
      <point x="307" y="4"/>
      <point x="318" y="41"/>
      <point x="333" y="93"/>
      <point x="348" y="152"/>
      <point x="354" y="178" type="qcurve"/>
      <point x="357" y="178" type="line"/>
      <point x="389" y="84"/>
      <point x="544" y="-20"/>
      <point x="669" y="-20" type="qcurve" smooth="yes"/>
      <point x="843" y="-20"/>
      <point x="1068" y="163"/>
      <point x="1192" y="546"/>
      <point x="1192" y="748" type="qcurve" smooth="yes"/>
      <point x="1192" y="913"/>
      <point x="1014" y="1102"/>
    </contour>
    <contour>
      <point x="735" y="907" type="qcurve" smooth="yes"/>
      <point x="828" y="907"/>
      <point x="899" y="799"/>
      <point x="899" y="694" type="qcurve" smooth="yes"/>
      <point x="899" y="597"/>
      <point x="823" y="298"/>
      <point x="709" y="173"/>
      <point x="608" y="173" type="qcurve" smooth="yes"/>
      <point x="513" y="173"/>
      <point x="407" y="294"/>
      <point x="407" y="401" type="qcurve" smooth="yes"/>
      <point x="407" y="480"/>
      <point x="455" y="694"/>
      <point x="537" y="837"/>
      <point x="654" y="907"/>
    </contour>
  </outline>
</glyph>
<glyph name="uni0184" format="2">
  <advance width="1450"/>
  <unicode hex="0184"/>
  <note>
uni0184
</note>
  <outline>
    <contour>
      <point x="36" y="0" type="line"/>
      <point x="756" y="0" type="line" smooth="yes"/>
      <point x="1046" y="0"/>
      <point x="1370" y="241"/>
      <point x="1370" y="462" type="qcurve" smooth="yes"/>
      <point x="1370" y="641"/>
      <point x="1101" y="848"/>
      <point x="869" y="848" type="qcurve" smooth="yes"/>
      <point x="495" y="848" type="line"/>
      <point x="604" y="1409" type="line"/>
      <point x="529" y="1409" type="line"/>
      <point x="118" y="1242" type="line"/>
      <point x="112" y="1206" type="line"/>
      <point x="230" y="1003" type="line"/>
    </contour>
    <contour>
      <point x="375" y="230" type="line"/>
      <point x="451" y="621" type="line"/>
      <point x="805" y="621" type="line" smooth="yes"/>
      <point x="942" y="621"/>
      <point x="1066" y="530"/>
      <point x="1066" y="441" type="qcurve" smooth="yes"/>
      <point x="1066" y="340"/>
      <point x="911" y="230"/>
      <point x="766" y="230" type="qcurve" smooth="yes"/>
    </contour>
  </outline>
</glyph>
<glyph name="uni0185" format="2">
  <advance width="1251"/>
  <unicode hex="0185"/>
  <note>
uni0185
</note>
  <outline>
    <contour>
      <point x="35" y="0" type="qcurve"/>
      <point x="306" y="0" type="line"/>
      <point x="307" y="4"/>
      <point x="318" y="41"/>
      <point x="333" y="93"/>
      <point x="348" y="152"/>
      <point x="354" y="178" type="qcurve"/>
      <point x="356" y="178" type="line"/>
      <point x="388" y="84"/>
      <point x="544" y="-20"/>
      <point x="669" y="-20" type="qcurve" smooth="yes"/>
      <point x="769" y="-20"/>
      <point x="930" y="41"/>
      <point x="1055" y="171"/>
      <point x="1143" y="374"/>
      <point x="1171" y="516" type="qcurve" smooth="yes"/>
      <point x="1182" y="574"/>
      <point x="1192" y="686"/>
      <point x="1192" y="734" type="qcurve" smooth="yes"/>
      <point x="1192" y="748" type="line" smooth="yes"/>
      <point x="1192" y="829"/>
      <point x="1147" y="960"/>
      <point x="1062" y="1052"/>
      <point x="936" y="1102"/>
      <point x="855" y="1102" type="qcurve" smooth="yes"/>
      <point x="795" y="1102"/>
      <point x="689" y="1074"/>
      <point x="600" y="1025"/>
      <point x="527" y="955"/>
      <point x="499" y="913" type="qcurve"/>
      <point x="495" y="913" type="line"/>
      <point x="496" y="917"/>
      <point x="503" y="947"/>
      <point x="507" y="965"/>
      <point x="523" y="1041"/>
      <point x="548" y="1167"/>
      <point x="585" y="1354"/>
      <point x="611" y="1484" type="qcurve"/>
      <point x="539" y="1484" type="line"/>
      <point x="147" y="1325" type="line"/>
      <point x="142" y="1290" type="line"/>
      <point x="254" y="1097" type="line"/>
      <point x="84" y="223" type="line" smooth="yes"/>
      <point x="76" y="184"/>
      <point x="61" y="112"/>
      <point x="48" y="52"/>
      <point x="38" y="9"/>
    </contour>
    <contour>
      <point x="735" y="907" type="qcurve" smooth="yes"/>
      <point x="828" y="907"/>
      <point x="899" y="799"/>
      <point x="899" y="694" type="qcurve" smooth="yes"/>
      <point x="899" y="656"/>
      <point x="888" y="567"/>
      <point x="877" y="516" type="qcurve" smooth="yes"/>
      <point x="856" y="414"/>
      <point x="805" y="281"/>
      <point x="740" y="204"/>
      <point x="659" y="173"/>
      <point x="608" y="173" type="qcurve" smooth="yes"/>
      <point x="563" y="173"/>
      <point x="489" y="202"/>
      <point x="436" y="260"/>
      <point x="407" y="345"/>
      <point x="407" y="401" type="qcurve" smooth="yes"/>
      <point x="407" y="434"/>
      <point x="416" y="510"/>
      <point x="424" y="554" type="qcurve" smooth="yes"/>
      <point x="444" y="657"/>
      <point x="507" y="794"/>
      <point x="587" y="874"/>
      <point x="682" y="907"/>
    </contour>
  </outline>
</glyph>
<glyph name="uni0186" format="2">
  <advance width="1479"/>
  <unicode hex="0186"/>
  <note>
uni0186
</note>
  <anchor x="800" y="1540" name="gpos_18_mark_to_base__MARKCLASS_0_lookup_18"/>
  <anchor x="1330" y="1540" name="gpos_18_mark_to_base__MARKCLASS_1_lookup_18"/>
  <anchor x="700" y="-130" name="gpos_18_mark_to_base__MARKCLASS_2_lookup_18"/>
  <anchor x="1479" y="1540" name="gpos_22_mark_to_base__MARKCLASS_0_lookup_22"/>
  <anchor x="1479" y="-380" name="gpos_22_mark_to_base__MARKCLASS_1_lookup_22"/>
  <anchor x="1479" y="1840" name="gpos_23_mark_to_base__MARKCLASS_0_lookup_23"/>
  <anchor x="0" y="1840" name="gpos_23_mark_to_base__MARKCLASS_1_lookup_23"/>
  <anchor x="800" y="0" name="gpos_24_mark_to_base__MARKCLASS_0_lookup_24"/>
  <outline>
    <contour>
      <point x="121" y="1027" type="curve"/>
      <point x="359" y="930" type="line"/>
      <point x="465" y="1109"/>
      <point x="606" y="1198"/>
      <point x="782" y="1198" type="curve" smooth="yes"/>
      <point x="1006" y="1198"/>
      <point x="1141" y="1075"/>
      <point x="1141" y="860" type="curve" smooth="yes"/>
      <point x="1141" y="607"/>
      <point x="1059" y="402"/>
      <point x="909" y="294" type="curve" smooth="yes"/>
      <point x="834" y="239"/>
      <point x="745" y="212"/>
      <point x="644" y="212" type="curve" smooth="yes"/>
      <point x="467" y="212"/>
      <point x="336" y="303"/>
      <point x="311" y="443" type="curve"/>
      <point x="37" y="372" type="line"/>
      <point x="85" y="125"/>
      <point x="297" y="-20"/>
      <point x="605" y="-20" type="curve" smooth="yes"/>
      <point x="942" y="-20"/>
      <point x="1205" y="135"/>
      <point x="1342" y="408" type="curve" smooth="yes"/>
      <point x="1411" y="544"/>
      <point x="1445" y="698"/>
      <point x="1445" y="871" type="curve" smooth="yes"/>
      <point x="1445" y="1092"/>
      <point x="1345" y="1268"/>
      <point x="1158" y="1361" type="curve" smooth="yes"/>
      <point x="1065" y="1407"/>
      <point x="954" y="1430"/>
      <point x="827" y="1430" type="curve" smooth="yes"/>
      <point x="515" y="1430"/>
      <point x="289" y="1308"/>
    </contour>
  </outline>
</glyph>
<glyph name="uni0187" format="2">
  <advance width="1479"/>
  <unicode hex="0187"/>
  <note>
uni0187
</note>
  <outline>
    <contour>
      <point x="401" y="573" type="qcurve" smooth="yes"/>
      <point x="401" y="862"/>
      <point x="676" y="1198"/>
      <point x="918" y="1198" type="qcurve" smooth="yes"/>
      <point x="1035" y="1198"/>
      <point x="1200" y="1074"/>
      <point x="1229" y="967" type="qcurve"/>
      <point x="1503" y="1038" type="line"/>
      <point x="1565" y="1357" type="line" smooth="yes"/>
      <point x="1581" y="1438"/>
      <point x="1653" y="1498"/>
      <point x="1705" y="1498" type="qcurve" smooth="yes"/>
      <point x="1735" y="1498"/>
      <point x="1790" y="1486" type="qcurve"/>
      <point x="1830" y="1690" type="line"/>
      <point x="1756" y="1707"/>
      <point x="1681" y="1707" type="qcurve" smooth="yes"/>
      <point x="1532" y="1707"/>
      <point x="1339" y="1560"/>
      <point x="1311" y="1417" type="qcurve" smooth="yes"/>
      <point x="1296" y="1337" type="line"/>
      <point x="1151" y="1430"/>
      <point x="927" y="1430" type="qcurve" smooth="yes"/>
      <point x="687" y="1430"/>
      <point x="310" y="1218"/>
      <point x="100" y="821"/>
      <point x="100" y="569" type="qcurve" smooth="yes"/>
      <point x="100" y="392"/>
      <point x="243" y="124"/>
      <point x="519" y="-20"/>
      <point x="711" y="-20" type="qcurve" smooth="yes"/>
      <point x="936" y="-20"/>
      <point x="1272" y="166"/>
      <point x="1376" y="352" type="qcurve"/>
      <point x="1149" y="469" type="line"/>
      <point x="997" y="211"/>
      <point x="731" y="211" type="qcurve" smooth="yes"/>
      <point x="572" y="211"/>
      <point x="401" y="400"/>
    </contour>
  </outline>
</glyph>
<glyph name="uni0188" format="2">
  <advance width="1139"/>
  <unicode hex="0188"/>
  <note>
uni0188
</note>
  <outline>
    <contour>
      <point x="825" y="718" type="qcurve"/>
      <point x="1109" y="741" type="line"/>
      <point x="1156" y="981" type="line" smooth="yes"/>
      <point x="1172" y="1062"/>
      <point x="1244" y="1122"/>
      <point x="1296" y="1122" type="qcurve" smooth="yes"/>
      <point x="1326" y="1122"/>
      <point x="1381" y="1110" type="qcurve"/>
      <point x="1420" y="1311" type="line"/>
      <point x="1348" y="1328"/>
      <point x="1272" y="1328" type="qcurve" smooth="yes"/>
      <point x="1131" y="1328"/>
      <point x="946" y="1189"/>
      <point x="918" y="1049" type="qcurve"/>
      <point x="816" y="1102"/>
      <point x="680" y="1102" type="qcurve" smooth="yes"/>
      <point x="484" y="1102"/>
      <point x="221" y="942"/>
      <point x="63" y="600"/>
      <point x="63" y="405" type="qcurve" smooth="yes"/>
      <point x="63" y="205"/>
      <point x="300" y="-20"/>
      <point x="520" y="-20" type="qcurve" smooth="yes"/>
      <point x="925" y="-20"/>
      <point x="1030" y="331" type="qcurve"/>
      <point x="759" y="381" type="line"/>
      <point x="727" y="278"/>
      <point x="619" y="173"/>
      <point x="536" y="173" type="qcurve" smooth="yes"/>
      <point x="358" y="173"/>
      <point x="358" y="407" type="qcurve" smooth="yes"/>
      <point x="358" y="460"/>
      <point x="381" y="575" type="qcurve"/>
      <point x="430" y="762"/>
      <point x="551" y="909"/>
      <point x="658" y="909" type="qcurve" smooth="yes"/>
      <point x="814" y="909"/>
    </contour>
  </outline>
</glyph>
<glyph name="uni018A" format="2">
  <advance width="1623"/>
  <unicode hex="018A"/>
  <note>
uni018A
</note>
  <outline>
    <contour>
      <point x="906" y="1409" type="qcurve" smooth="yes"/>
      <point x="476" y="1409" type="line" smooth="yes"/>
      <point x="278" y="1409"/>
      <point x="89" y="1220"/>
      <point x="89" y="1021" type="qcurve" smooth="yes"/>
      <point x="89" y="972"/>
      <point x="94" y="934" type="qcurve"/>
      <point x="319" y="951" type="line"/>
      <point x="307" y="1011"/>
      <point x="307" y="1048" type="qcurve" smooth="yes"/>
      <point x="307" y="1119"/>
      <point x="383" y="1195"/>
      <point x="455" y="1195" type="qcurve" smooth="yes"/>
      <point x="472" y="1195" type="line"/>
      <point x="240" y="0" type="line"/>
      <point x="786" y="0" type="line" smooth="yes"/>
      <point x="1019" y="0"/>
      <point x="1395" y="209"/>
      <point x="1593" y="571"/>
      <point x="1593" y="807" type="qcurve" smooth="yes"/>
      <point x="1593" y="1099"/>
      <point x="1239" y="1409"/>
    </contour>
    <contour>
      <point x="579" y="228" type="line"/>
      <point x="764" y="1181" type="line"/>
      <point x="908" y="1181" type="line" smooth="yes"/>
      <point x="1106" y="1181"/>
      <point x="1317" y="983"/>
      <point x="1317" y="794" type="qcurve" smooth="yes"/>
      <point x="1317" y="623"/>
      <point x="1184" y="365"/>
      <point x="937" y="228"/>
      <point x="777" y="228" type="qcurve" smooth="yes"/>
    </contour>
  </outline>
</glyph>
<glyph name="uni018B" format="2">
  <advance width="1366"/>
  <unicode hex="018B"/>
  <note>
uni018B
</note>
  <outline>
    <contour>
      <point x="33" y="370" type="qcurve" smooth="yes"/>
      <point x="33" y="260"/>
      <point x="141" y="92"/>
      <point x="343" y="0"/>
      <point x="480" y="0" type="qcurve" smooth="yes"/>
      <point x="1152" y="0" type="line"/>
      <point x="1425" y="1409" type="line"/>
      <point x="424" y="1409" type="line"/>
      <point x="380" y="1182" type="line"/>
      <point x="1086" y="1182" type="line"/>
      <point x="1020" y="841" type="line"/>
      <point x="611" y="841" type="line" smooth="yes"/>
      <point x="438" y="841"/>
      <point x="178" y="728"/>
      <point x="33" y="514"/>
    </contour>
    <contour>
      <point x="641" y="623" type="qcurve" smooth="yes"/>
      <point x="978" y="623" type="line"/>
      <point x="899" y="219" type="line"/>
      <point x="570" y="219" type="line" smooth="yes"/>
      <point x="335" y="219"/>
      <point x="335" y="392" type="qcurve" smooth="yes"/>
      <point x="335" y="504"/>
      <point x="490" y="623"/>
    </contour>
  </outline>
</glyph>
<glyph name="uni018D" format="2">
  <advance width="1250"/>
  <unicode hex="018D"/>
  <note>
uni018D
</note>
  <outline>
    <contour>
      <point x="1203" y="678" type="qcurve" smooth="yes"/>
      <point x="1203" y="878"/>
      <point x="964" y="1102"/>
      <point x="745" y="1102" type="qcurve" smooth="yes"/>
      <point x="550" y="1102"/>
      <point x="248" y="934"/>
      <point x="83" y="633"/>
      <point x="83" y="444" type="qcurve" smooth="yes"/>
      <point x="83" y="356"/>
      <point x="125" y="220"/>
      <point x="195" y="111"/>
      <point x="273" y="41" type="qcurve" smooth="yes"/>
      <point x="572" y="-221" type="line"/>
      <point x="35" y="-221" type="line"/>
      <point x="-5" y="-424" type="line"/>
      <point x="918" y="-424" type="line"/>
      <point x="953" y="-244" type="line"/>
      <point x="655" y="9" type="line"/>
      <point x="914" y="63"/>
      <point x="1203" y="418"/>
    </contour>
    <contour>
      <point x="567" y="192" type="qcurve" smooth="yes"/>
      <point x="480" y="192"/>
      <point x="377" y="306"/>
      <point x="377" y="422" type="qcurve" smooth="yes"/>
      <point x="377" y="562"/>
      <point x="452" y="784"/>
      <point x="595" y="909"/>
      <point x="698" y="909" type="qcurve" smooth="yes"/>
      <point x="799" y="909"/>
      <point x="911" y="794"/>
      <point x="911" y="689" type="qcurve" smooth="yes"/>
      <point x="911" y="547"/>
      <point x="821" y="312"/>
      <point x="669" y="192"/>
    </contour>
  </outline>
</glyph>
<glyph name="uni018E" format="2">
  <advance width="1366"/>
  <unicode hex="018E"/>
  <note>
uni018E
</note>
  <anchor x="820" y="1540" name="top"/>
  <anchor x="1240" y="1540" name="caronalt"/>
  <anchor x="640" y="-130" name="bottom"/>
  <anchor x="1366" y="1540" name="topdouble"/>
  <anchor x="1366" y="-380" name="bottomdouble"/>
  <anchor x="1366" y="1840" name="tophalfright"/>
  <anchor x="0" y="1840" name="tophalfleft"/>
  <anchor x="1000" y="0" name="ogonek"/>
  <outline>
    <contour>
      <point x="20" y="0" type="line"/>
      <point x="1128" y="0" type="line"/>
      <point x="1401" y="1409" type="line"/>
      <point x="253" y="1409" type="line"/>
      <point x="208" y="1181" type="line"/>
      <point x="1062" y="1181" type="line"/>
      <point x="990" y="810" type="line"/>
      <point x="238" y="810" type="line"/>
      <point x="194" y="582" type="line"/>
      <point x="946" y="582" type="line"/>
      <point x="877" y="228" type="line"/>
      <point x="64" y="228" type="line"/>
    </contour>
  </outline>
</glyph>
